%TF.GenerationSoftware,KiCad,Pcbnew,9.0.4*%
%TF.CreationDate,2026-06-27T21:58:40+02:00*%
%TF.ProjectId,esp32_wroom32e,65737033-325f-4777-926f-6f6d3332652e,rev?*%
%TF.SameCoordinates,Original*%
%TF.FileFunction,Paste,Top*%
%TF.FilePolarity,Positive*%
%FSLAX46Y46*%
G04 Gerber Fmt 4.6, Leading zero omitted, Abs format (unit mm)*
G04 Created by KiCad (PCBNEW 9.0.4) date 2026-06-27 21:58:40*
%MOMM*%
%LPD*%
G01*
G04 APERTURE LIST*
G04 Aperture macros list*
%AMRoundRect*
0 Rectangle with rounded corners*
0 $1 Rounding radius*
0 $2 $3 $4 $5 $6 $7 $8 $9 X,Y pos of 4 corners*
0 Add a 4 corners polygon primitive as box body*
4,1,4,$2,$3,$4,$5,$6,$7,$8,$9,$2,$3,0*
0 Add four circle primitives for the rounded corners*
1,1,$1+$1,$2,$3*
1,1,$1+$1,$4,$5*
1,1,$1+$1,$6,$7*
1,1,$1+$1,$8,$9*
0 Add four rect primitives between the rounded corners*
20,1,$1+$1,$2,$3,$4,$5,0*
20,1,$1+$1,$4,$5,$6,$7,0*
20,1,$1+$1,$6,$7,$8,$9,0*
20,1,$1+$1,$8,$9,$2,$3,0*%
G04 Aperture macros list end*
%ADD10RoundRect,0.225000X0.225000X0.250000X-0.225000X0.250000X-0.225000X-0.250000X0.225000X-0.250000X0*%
%ADD11RoundRect,0.375000X-0.625000X-0.375000X0.625000X-0.375000X0.625000X0.375000X-0.625000X0.375000X0*%
%ADD12RoundRect,0.500000X-0.500000X-1.400000X0.500000X-1.400000X0.500000X1.400000X-0.500000X1.400000X0*%
%ADD13RoundRect,0.225000X-0.225000X-0.250000X0.225000X-0.250000X0.225000X0.250000X-0.225000X0.250000X0*%
%ADD14RoundRect,0.200000X0.200000X0.275000X-0.200000X0.275000X-0.200000X-0.275000X0.200000X-0.275000X0*%
%ADD15RoundRect,0.250000X0.275000X-0.275000X0.275000X0.275000X-0.275000X0.275000X-0.275000X-0.275000X0*%
%ADD16RoundRect,0.062500X0.062500X-0.350000X0.062500X0.350000X-0.062500X0.350000X-0.062500X-0.350000X0*%
%ADD17RoundRect,0.062500X0.350000X-0.062500X0.350000X0.062500X-0.350000X0.062500X-0.350000X-0.062500X0*%
%ADD18O,1.800000X1.000000*%
%ADD19O,2.100000X1.000000*%
%ADD20RoundRect,0.150000X0.425000X-0.150000X0.425000X0.150000X-0.425000X0.150000X-0.425000X-0.150000X0*%
%ADD21RoundRect,0.075000X0.500000X-0.075000X0.500000X0.075000X-0.500000X0.075000X-0.500000X-0.075000X0*%
%ADD22R,0.900000X0.900000*%
%ADD23R,1.500000X0.900000*%
%ADD24R,0.900000X1.500000*%
%ADD25R,1.000000X0.750000*%
%ADD26R,0.750000X1.000000*%
%ADD27RoundRect,0.200000X-0.275000X0.200000X-0.275000X-0.200000X0.275000X-0.200000X0.275000X0.200000X0*%
%ADD28RoundRect,0.200000X-0.200000X-0.275000X0.200000X-0.275000X0.200000X0.275000X-0.200000X0.275000X0*%
%ADD29RoundRect,0.150000X0.150000X-0.587500X0.150000X0.587500X-0.150000X0.587500X-0.150000X-0.587500X0*%
%ADD30RoundRect,0.225000X0.250000X-0.225000X0.250000X0.225000X-0.250000X0.225000X-0.250000X-0.225000X0*%
G04 APERTURE END LIST*
D10*
%TO.C,C3*%
X92595000Y-66080000D03*
X94145000Y-66080000D03*
%TD*%
%TO.C,C1*%
X94325000Y-69130000D03*
X92775000Y-69130000D03*
%TD*%
%TO.C,C2*%
X94315000Y-70920000D03*
X92765000Y-70920000D03*
%TD*%
D11*
%TO.C,U2*%
X96590000Y-66270000D03*
X96590000Y-68570000D03*
D12*
X102890000Y-68570000D03*
D11*
X96590000Y-70870000D03*
%TD*%
D13*
%TO.C,C6*%
X137240000Y-52240000D03*
X138790000Y-52240000D03*
%TD*%
%TO.C,C5*%
X136305000Y-54790000D03*
X137855000Y-54790000D03*
%TD*%
D14*
%TO.C,R9*%
X129275000Y-54860000D03*
X127625000Y-54860000D03*
%TD*%
%TO.C,R8*%
X129455000Y-51820000D03*
X127805000Y-51820000D03*
%TD*%
D15*
%TO.C,U3*%
X133032500Y-52130000D03*
X134332500Y-52130000D03*
X133032500Y-50830000D03*
X134332500Y-50830000D03*
D16*
X132432500Y-53417500D03*
X132932500Y-53417500D03*
X133432500Y-53417500D03*
X133932500Y-53417500D03*
X134432500Y-53417500D03*
X134932500Y-53417500D03*
D17*
X135620000Y-52730000D03*
X135620000Y-52230000D03*
X135620000Y-51730000D03*
X135620000Y-51230000D03*
X135620000Y-50730000D03*
X135620000Y-50230000D03*
D16*
X134932500Y-49542500D03*
X134432500Y-49542500D03*
X133932500Y-49542500D03*
X133432500Y-49542500D03*
X132932500Y-49542500D03*
X132432500Y-49542500D03*
D17*
X131745000Y-50230000D03*
X131745000Y-50730000D03*
X131745000Y-51230000D03*
X131745000Y-51730000D03*
X131745000Y-52230000D03*
X131745000Y-52730000D03*
%TD*%
D18*
%TO.C,J1*%
X141030000Y-60770000D03*
D19*
X136850000Y-60770000D03*
D18*
X141030000Y-69410000D03*
D19*
X136850000Y-69410000D03*
D20*
X136275000Y-68290000D03*
X136275000Y-67490000D03*
D21*
X136275000Y-66840000D03*
X136275000Y-65840000D03*
X136275000Y-64340000D03*
X136275000Y-63340000D03*
D20*
X136275000Y-62690000D03*
X136275000Y-61890000D03*
X136275000Y-61890000D03*
X136275000Y-62690000D03*
D21*
X136275000Y-63840000D03*
X136275000Y-64840000D03*
X136275000Y-65340000D03*
X136275000Y-66340000D03*
D20*
X136275000Y-67490000D03*
X136275000Y-68290000D03*
%TD*%
D22*
%TO.C,U1*%
X116152500Y-57845000D03*
X116152500Y-56445000D03*
X116152500Y-55045000D03*
X114752500Y-57845000D03*
X114752500Y-56445000D03*
X114752500Y-55045000D03*
X113352500Y-57845000D03*
X113352500Y-56445000D03*
X113352500Y-55045000D03*
D23*
X125002500Y-48725000D03*
X125002500Y-49995000D03*
X125002500Y-51265000D03*
X125002500Y-52535000D03*
X125002500Y-53805000D03*
X125002500Y-55075000D03*
X125002500Y-56345000D03*
X125002500Y-57615000D03*
X125002500Y-58885000D03*
X125002500Y-60155000D03*
X125002500Y-61425000D03*
X125002500Y-62695000D03*
X125002500Y-63965000D03*
X125002500Y-65235000D03*
D24*
X121967500Y-66485000D03*
X120697500Y-66485000D03*
X119427500Y-66485000D03*
X118157500Y-66485000D03*
X116887500Y-66485000D03*
X115617500Y-66485000D03*
X114347500Y-66485000D03*
X113077500Y-66485000D03*
X111807500Y-66485000D03*
X110537500Y-66485000D03*
D23*
X107502500Y-65235000D03*
X107502500Y-63965000D03*
X107502500Y-62695000D03*
X107502500Y-61425000D03*
X107502500Y-60155000D03*
X107502500Y-58885000D03*
X107502500Y-57615000D03*
X107502500Y-56345000D03*
X107502500Y-55075000D03*
X107502500Y-53805000D03*
X107502500Y-52535000D03*
X107502500Y-51265000D03*
X107502500Y-49995000D03*
X107502500Y-48725000D03*
%TD*%
D25*
%TO.C,S2*%
X98082500Y-63015000D03*
X92082500Y-63015000D03*
X98082500Y-59265000D03*
X92082500Y-59265000D03*
%TD*%
D26*
%TO.C,S1*%
X96885000Y-50100000D03*
X96885000Y-56100000D03*
X93135000Y-50100000D03*
X93135000Y-56100000D03*
%TD*%
D27*
%TO.C,R6*%
X127190000Y-65245000D03*
X127190000Y-66895000D03*
%TD*%
D28*
%TO.C,R5*%
X100645000Y-50110000D03*
X102295000Y-50110000D03*
%TD*%
%TO.C,R4*%
X106420000Y-70750000D03*
X108070000Y-70750000D03*
%TD*%
D14*
%TO.C,R3*%
X101445000Y-58300000D03*
X99795000Y-58300000D03*
%TD*%
%TO.C,R2*%
X132925000Y-59500000D03*
X131275000Y-59500000D03*
%TD*%
%TO.C,R1*%
X133725000Y-69860000D03*
X132075000Y-69860000D03*
%TD*%
D29*
%TO.C,Q2*%
X124920000Y-70465000D03*
X126820000Y-70465000D03*
X125870000Y-68590000D03*
%TD*%
%TO.C,Q1*%
X99800000Y-54825000D03*
X101700000Y-54825000D03*
X100750000Y-52950000D03*
%TD*%
D30*
%TO.C,C7*%
X98700000Y-50080000D03*
X98700000Y-48530000D03*
%TD*%
%TO.C,C4*%
X104960000Y-50075000D03*
X104960000Y-48525000D03*
%TD*%
M02*
