M48
; DRILL file {KiCad 9.0.4} date 2026-06-27T21:58:37+0200
; FORMAT={-:-/ absolute / metric / decimal}
; #@! TF.CreationDate,2026-06-27T21:58:37+02:00
; #@! TF.GenerationSoftware,Kicad,Pcbnew,9.0.4
; #@! TF.FileFunction,Plated,1,2,PTH
FMAT,2
METRIC
; #@! TA.AperFunction,Plated,PTH,ComponentDrill
T1C0.200
; #@! TA.AperFunction,Plated,PTH,ViaDrill
T2C0.300
; #@! TA.AperFunction,Plated,PTH,ViaDrill
T3C0.500
; #@! TA.AperFunction,Plated,PTH,ComponentDrill
T4C0.600
; #@! TA.AperFunction,Plated,PTH,ComponentDrill
T5C1.000
%
G90
G05
T1
X113.352Y-55.745
X113.352Y-57.145
X114.052Y-55.045
X114.052Y-56.445
X114.052Y-57.845
X114.752Y-55.745
X114.752Y-57.145
X115.453Y-55.045
X115.453Y-56.445
X115.453Y-57.845
X116.152Y-55.745
X116.152Y-57.145
T2
X95.17Y-73.86
X103.05Y-58.4
X104.71Y-67.19
X105.59Y-58.03
X108.815Y-65.38
X109.44Y-64.13
X109.62Y-57.54
X112.318Y-68.249
X117.2Y-59.7
X118.41Y-59.88
X118.58Y-52.68
X119.57Y-49.45
X119.58Y-60.03
X120.49Y-60.24
X122.03Y-60.31
X126.59Y-50.61
X126.79Y-63.37
X126.98Y-57.97
X127.12Y-61.5
X128.99Y-57.19
X130.17Y-62.23
X130.91Y-61.33
X132.11Y-55.71
X133.62Y-61.6
X134.06Y-66.74
X134.06Y-68.61
X134.18Y-63.44
T3
X104.56Y-69.45
X107.26Y-69.45
X110.21Y-49.59
X111.12Y-68.32
X111.16Y-61.01
X112.76Y-53.32
X122.54Y-69.45
X127.585Y-71.725
X128.63Y-65.455
X133.05Y-67.49
X139.32Y-58.29
X141.0Y-57.31
X141.54Y-53.27
T5
X100.46Y-74.49
X103.0Y-74.49
X105.54Y-74.49
X113.75Y-74.21
X116.29Y-74.21
X118.83Y-74.21
X121.37Y-74.21
X123.91Y-74.21
X126.45Y-74.21
X128.99Y-74.21
X131.53Y-74.21
X134.07Y-74.21
X136.61Y-74.21
T4
G00X136.3Y-60.77
M15
G01X137.4Y-60.77
M16
G05
G00X136.3Y-69.41
M15
G01X137.4Y-69.41
M16
G05
G00X140.63Y-60.77
M15
G01X141.43Y-60.77
M16
G05
G00X140.63Y-69.41
M15
G01X141.43Y-69.41
M16
G05
M30
