%TF.GenerationSoftware,KiCad,Pcbnew,9.0.4*%
%TF.CreationDate,2026-06-27T21:58:40+02:00*%
%TF.ProjectId,esp32_wroom32e,65737033-325f-4777-926f-6f6d3332652e,rev?*%
%TF.SameCoordinates,Original*%
%TF.FileFunction,Copper,L2,Bot*%
%TF.FilePolarity,Positive*%
%FSLAX46Y46*%
G04 Gerber Fmt 4.6, Leading zero omitted, Abs format (unit mm)*
G04 Created by KiCad (PCBNEW 9.0.4) date 2026-06-27 21:58:40*
%MOMM*%
%LPD*%
G01*
G04 APERTURE LIST*
%TA.AperFunction,ComponentPad*%
%ADD10R,1.700000X1.700000*%
%TD*%
%TA.AperFunction,ComponentPad*%
%ADD11C,1.700000*%
%TD*%
%TA.AperFunction,HeatsinkPad*%
%ADD12O,1.800000X1.000000*%
%TD*%
%TA.AperFunction,HeatsinkPad*%
%ADD13O,2.100000X1.000000*%
%TD*%
%TA.AperFunction,HeatsinkPad*%
%ADD14C,0.600000*%
%TD*%
%TA.AperFunction,ViaPad*%
%ADD15C,0.600000*%
%TD*%
%TA.AperFunction,ViaPad*%
%ADD16C,1.000000*%
%TD*%
%TA.AperFunction,Conductor*%
%ADD17C,0.600000*%
%TD*%
%TA.AperFunction,Conductor*%
%ADD18C,0.250000*%
%TD*%
%TA.AperFunction,Conductor*%
%ADD19C,0.500000*%
%TD*%
G04 APERTURE END LIST*
D10*
%TO.P,J3,1,Pin_1*%
%TO.N,+3V3*%
X100460000Y-74490000D03*
D11*
%TO.P,J3,2,Pin_2*%
%TO.N,GND*%
X103000000Y-74490000D03*
%TO.P,J3,3,Pin_3*%
%TO.N,VBUS*%
X105540000Y-74490000D03*
%TD*%
D10*
%TO.P,J2,1,Pin_1*%
%TO.N,/cs*%
X136610000Y-74210000D03*
D11*
%TO.P,J2,2,Pin_2*%
%TO.N,/gpio4*%
X134070000Y-74210000D03*
%TO.P,J2,3,Pin_3*%
%TO.N,/sck*%
X131530000Y-74210000D03*
%TO.P,J2,4,Pin_4*%
%TO.N,/miso*%
X128990000Y-74210000D03*
%TO.P,J2,5,Pin_5*%
%TO.N,/sda*%
X126450000Y-74210000D03*
%TO.P,J2,6,Pin_6*%
%TO.N,/scl*%
X123910000Y-74210000D03*
%TO.P,J2,7,Pin_7*%
%TO.N,/mosi*%
X121370000Y-74210000D03*
%TO.P,J2,8,Pin_8*%
%TO.N,/gpio13*%
X118830000Y-74210000D03*
%TO.P,J2,9,Pin_9*%
%TO.N,/gpio14*%
X116290000Y-74210000D03*
%TO.P,J2,10,Pin_10*%
%TO.N,/gpio12*%
X113750000Y-74210000D03*
%TD*%
D12*
%TO.P,J1,S1,SHIELD*%
%TO.N,GND*%
X141030000Y-60770000D03*
D13*
X136850000Y-60770000D03*
D12*
X141030000Y-69410000D03*
D13*
X136850000Y-69410000D03*
%TD*%
D14*
%TO.P,U1,39,GND*%
%TO.N,GND*%
X116152500Y-57145000D03*
X116152500Y-55745000D03*
X115452500Y-57845000D03*
X115452500Y-56445000D03*
X115452500Y-55045000D03*
X114752500Y-57145000D03*
X114752500Y-55745000D03*
X114052500Y-57845000D03*
X114052500Y-56445000D03*
X114052500Y-55045000D03*
X113352500Y-57145000D03*
X113352500Y-55745000D03*
%TD*%
D15*
%TO.N,GND*%
X95170000Y-73860000D03*
X119570000Y-49450000D03*
X109620000Y-57540000D03*
X118580000Y-52680000D03*
D16*
X111160000Y-61010000D03*
X112760000Y-53320000D03*
D15*
%TO.N,/cs*%
X127120000Y-61500000D03*
X130910000Y-61330000D03*
%TO.N,/gpio4*%
X126790000Y-63370000D03*
X130170000Y-62230000D03*
%TO.N,/sck*%
X122030000Y-60310000D03*
%TO.N,/miso*%
X120490000Y-60240000D03*
%TO.N,/sda*%
X119580000Y-60030000D03*
%TO.N,/scl*%
X118410000Y-59880000D03*
%TO.N,/mosi*%
X117200000Y-59700000D03*
%TO.N,/gpio12*%
X108815000Y-65380000D03*
%TO.N,/gpio14*%
X109440000Y-64130000D03*
%TO.N,/gpio13*%
X112317897Y-68248938D03*
D16*
%TO.N,+3V3*%
X122540000Y-69450000D03*
X107260000Y-69450000D03*
%TO.N,GND*%
X141540000Y-53270000D03*
X141000000Y-57310000D03*
X111120000Y-68320000D03*
%TO.N,VBUS*%
X133050000Y-67490000D03*
X127585000Y-71725000D03*
%TO.N,+3V3*%
X104560000Y-69450000D03*
D15*
%TO.N,GND*%
X132110000Y-55710000D03*
D16*
%TO.N,+3V3*%
X139320000Y-58290000D03*
D15*
%TO.N,/U3_RTS*%
X126980000Y-57970000D03*
%TO.N,Net-(J1-CC1)*%
X134060000Y-66740000D03*
X134060000Y-68610000D03*
%TO.N,Net-(J1-CC2)*%
X134180000Y-63440000D03*
X133620000Y-61600000D03*
%TO.N,/U3_DTR*%
X104710000Y-67190000D03*
X105590000Y-58030000D03*
X128990000Y-57190000D03*
%TO.N,/U3_RTS*%
X103050000Y-58400000D03*
X126590000Y-50610000D03*
D16*
%TO.N,+3V3*%
X128630000Y-65455000D03*
X110210000Y-49590000D03*
%TD*%
D17*
%TO.N,+3V3*%
X104560000Y-70390000D02*
X100460000Y-74490000D01*
X104560000Y-69450000D02*
X104560000Y-70390000D01*
D18*
%TO.N,/cs*%
X127290000Y-61330000D02*
X127120000Y-61500000D01*
X130910000Y-61330000D02*
X127290000Y-61330000D01*
%TO.N,/gpio4*%
X127930000Y-62230000D02*
X126790000Y-63370000D01*
X130170000Y-62230000D02*
X127930000Y-62230000D01*
D19*
%TO.N,VBUS*%
X131820000Y-67490000D02*
X133050000Y-67490000D01*
X127585000Y-71725000D02*
X131820000Y-67490000D01*
D18*
%TO.N,/sck*%
X121714000Y-69792141D02*
X121714000Y-60626000D01*
X122341859Y-70420000D02*
X121714000Y-69792141D01*
X121714000Y-60626000D02*
X122030000Y-60310000D01*
X126938810Y-72551000D02*
X124807810Y-70420000D01*
X124807810Y-70420000D02*
X122341859Y-70420000D01*
X129871000Y-72551000D02*
X126938810Y-72551000D01*
X131530000Y-74210000D02*
X129871000Y-72551000D01*
X122030000Y-60310000D02*
X122030000Y-60370000D01*
%TO.N,/miso*%
X119551000Y-68493190D02*
X119551000Y-61179000D01*
X126937116Y-73034000D02*
X126784000Y-73034000D01*
X119551000Y-61179000D02*
X120490000Y-60240000D01*
X127626000Y-73722884D02*
X126937116Y-73034000D01*
X127626000Y-73876000D02*
X127626000Y-73722884D01*
X127960000Y-74210000D02*
X127626000Y-73876000D01*
X126784000Y-73034000D02*
X126333000Y-72583000D01*
X126333000Y-72583000D02*
X123640810Y-72583000D01*
X128990000Y-74210000D02*
X127960000Y-74210000D01*
X123640810Y-72583000D02*
X119551000Y-68493190D01*
%TO.N,Net-(J1-CC1)*%
X134060000Y-68610000D02*
X134060000Y-66740000D01*
%TO.N,/miso*%
X120490000Y-60240000D02*
X120490000Y-60190000D01*
%TO.N,/sda*%
X119100000Y-68680000D02*
X119100000Y-60510000D01*
X125204000Y-73034000D02*
X123454000Y-73034000D01*
X126380000Y-74210000D02*
X125204000Y-73034000D01*
X123454000Y-73034000D02*
X119100000Y-68680000D01*
X126450000Y-74210000D02*
X126380000Y-74210000D01*
X119100000Y-60510000D02*
X119580000Y-60030000D01*
%TO.N,/scl*%
X118410000Y-59880000D02*
X118310000Y-59880000D01*
X118410000Y-68710000D02*
X118410000Y-59880000D01*
X123910000Y-74210000D02*
X118410000Y-68710000D01*
%TO.N,/mosi*%
X117200000Y-59700000D02*
X117200000Y-59770000D01*
X117200000Y-70040000D02*
X117200000Y-59700000D01*
X121370000Y-74210000D02*
X117200000Y-70040000D01*
%TO.N,/gpio12*%
X108840000Y-65380000D02*
X108815000Y-65380000D01*
X108840000Y-69300000D02*
X108840000Y-65380000D01*
X113750000Y-74210000D02*
X108840000Y-69300000D01*
%TO.N,/gpio14*%
X109440000Y-64130000D02*
X109440000Y-64150000D01*
X109440000Y-67808141D02*
X109440000Y-64130000D01*
X115841859Y-74210000D02*
X109440000Y-67808141D01*
X116290000Y-74210000D02*
X115841859Y-74210000D01*
%TO.N,/gpio13*%
X112316835Y-68250000D02*
X112317897Y-68248938D01*
X118830000Y-74210000D02*
X112870000Y-68250000D01*
X112870000Y-68250000D02*
X112316835Y-68250000D01*
D17*
%TO.N,+3V3*%
X122540000Y-69450000D02*
X124635000Y-69450000D01*
X124635000Y-69450000D02*
X128630000Y-65455000D01*
X102249000Y-67139000D02*
X102249000Y-57551000D01*
X102249000Y-57551000D02*
X110210000Y-49590000D01*
X104560000Y-69450000D02*
X102249000Y-67139000D01*
X104560000Y-69450000D02*
X107260000Y-69450000D01*
D19*
%TO.N,GND*%
X141540000Y-56770000D02*
X141540000Y-53270000D01*
X141000000Y-57310000D02*
X141540000Y-56770000D01*
D17*
%TO.N,+3V3*%
X134316000Y-59769000D02*
X128630000Y-65455000D01*
X138981000Y-59769000D02*
X134316000Y-59769000D01*
X139320000Y-58290000D02*
X139320000Y-59430000D01*
X139320000Y-59430000D02*
X138981000Y-59769000D01*
D18*
%TO.N,/U3_RTS*%
X126980000Y-57970000D02*
X121260000Y-52250000D01*
X121260000Y-51436000D02*
X110444000Y-51436000D01*
X121260000Y-52250000D02*
X121260000Y-51436000D01*
%TO.N,Net-(J1-CC2)*%
X134210000Y-63410000D02*
X134180000Y-63440000D01*
X134210000Y-63370000D02*
X134210000Y-63410000D01*
X133620000Y-61600000D02*
X133620000Y-62780000D01*
X133620000Y-62780000D02*
X134210000Y-63370000D01*
%TO.N,/U3_DTR*%
X104710000Y-58910000D02*
X105590000Y-58030000D01*
X104710000Y-67190000D02*
X104710000Y-58910000D01*
X127154000Y-59026000D02*
X106586000Y-59026000D01*
X106586000Y-59026000D02*
X105590000Y-58030000D01*
X128990000Y-57190000D02*
X127154000Y-59026000D01*
%TO.N,/U3_RTS*%
X103480000Y-58400000D02*
X103050000Y-58400000D01*
X125764000Y-51436000D02*
X121260000Y-51436000D01*
X126590000Y-50610000D02*
X125764000Y-51436000D01*
X110444000Y-51436000D02*
X103480000Y-58400000D01*
%TD*%
%TA.AperFunction,Conductor*%
%TO.N,GND*%
G36*
X142722539Y-47910185D02*
G01*
X142768294Y-47962989D01*
X142779500Y-48014500D01*
X142779500Y-75675500D01*
X142759815Y-75742539D01*
X142707011Y-75788294D01*
X142655500Y-75799500D01*
X137592901Y-75799500D01*
X137525862Y-75779815D01*
X137480107Y-75727011D01*
X137470163Y-75657853D01*
X137499188Y-75594297D01*
X137557966Y-75556523D01*
X137564384Y-75554824D01*
X137567479Y-75554092D01*
X137567481Y-75554091D01*
X137567483Y-75554091D01*
X137702331Y-75503796D01*
X137817546Y-75417546D01*
X137903796Y-75302331D01*
X137954091Y-75167483D01*
X137960500Y-75107873D01*
X137960499Y-73312128D01*
X137954091Y-73252517D01*
X137952810Y-73249083D01*
X137903797Y-73117671D01*
X137903793Y-73117664D01*
X137817547Y-73002455D01*
X137817544Y-73002452D01*
X137702335Y-72916206D01*
X137702328Y-72916202D01*
X137567482Y-72865908D01*
X137567483Y-72865908D01*
X137507883Y-72859501D01*
X137507881Y-72859500D01*
X137507873Y-72859500D01*
X137507864Y-72859500D01*
X135712129Y-72859500D01*
X135712123Y-72859501D01*
X135652516Y-72865908D01*
X135517671Y-72916202D01*
X135517664Y-72916206D01*
X135402455Y-73002452D01*
X135402452Y-73002455D01*
X135316206Y-73117664D01*
X135316203Y-73117669D01*
X135267189Y-73249083D01*
X135225317Y-73305016D01*
X135159853Y-73329433D01*
X135091580Y-73314581D01*
X135063326Y-73293430D01*
X134949786Y-73179890D01*
X134777820Y-73054951D01*
X134588414Y-72958444D01*
X134588413Y-72958443D01*
X134588412Y-72958443D01*
X134386243Y-72892754D01*
X134386241Y-72892753D01*
X134386240Y-72892753D01*
X134224957Y-72867208D01*
X134176287Y-72859500D01*
X133963713Y-72859500D01*
X133915042Y-72867208D01*
X133753760Y-72892753D01*
X133551585Y-72958444D01*
X133362179Y-73054951D01*
X133190213Y-73179890D01*
X133039890Y-73330213D01*
X132914949Y-73502182D01*
X132910484Y-73510946D01*
X132862509Y-73561742D01*
X132794688Y-73578536D01*
X132728553Y-73555998D01*
X132689516Y-73510946D01*
X132685050Y-73502182D01*
X132560109Y-73330213D01*
X132409786Y-73179890D01*
X132237820Y-73054951D01*
X132048414Y-72958444D01*
X132048413Y-72958443D01*
X132048412Y-72958443D01*
X131846243Y-72892754D01*
X131846241Y-72892753D01*
X131846240Y-72892753D01*
X131684957Y-72867208D01*
X131636287Y-72859500D01*
X131423713Y-72859500D01*
X131395006Y-72864046D01*
X131213757Y-72892753D01*
X131198158Y-72897822D01*
X131128317Y-72899816D01*
X131072161Y-72867571D01*
X130364746Y-72160156D01*
X130356860Y-72152270D01*
X130356858Y-72152267D01*
X130269733Y-72065142D01*
X130197437Y-72016835D01*
X130167286Y-71996688D01*
X130167284Y-71996687D01*
X130167281Y-71996685D01*
X130080470Y-71960728D01*
X130080467Y-71960727D01*
X130072676Y-71957500D01*
X130053452Y-71949537D01*
X129993029Y-71937518D01*
X129989338Y-71936783D01*
X129989331Y-71936782D01*
X129932610Y-71925500D01*
X129932607Y-71925500D01*
X129932606Y-71925500D01*
X128745229Y-71925500D01*
X128678190Y-71905815D01*
X128632435Y-71853011D01*
X128622491Y-71783853D01*
X128651516Y-71720297D01*
X128657548Y-71713819D01*
X132094548Y-68276819D01*
X132121475Y-68262115D01*
X132147294Y-68245523D01*
X132153494Y-68244631D01*
X132155871Y-68243334D01*
X132182229Y-68240500D01*
X132335390Y-68240500D01*
X132402429Y-68260185D01*
X132409358Y-68265228D01*
X132576079Y-68376628D01*
X132576092Y-68376635D01*
X132749416Y-68448427D01*
X132758165Y-68452051D01*
X132758169Y-68452051D01*
X132758170Y-68452052D01*
X132951456Y-68490500D01*
X133135500Y-68490500D01*
X133202539Y-68510185D01*
X133248294Y-68562989D01*
X133259500Y-68614500D01*
X133259500Y-68688846D01*
X133290261Y-68843489D01*
X133290264Y-68843501D01*
X133350602Y-68989172D01*
X133350609Y-68989185D01*
X133438210Y-69120288D01*
X133438213Y-69120292D01*
X133549707Y-69231786D01*
X133549711Y-69231789D01*
X133680814Y-69319390D01*
X133680827Y-69319397D01*
X133804212Y-69370504D01*
X133826503Y-69379737D01*
X133981153Y-69410499D01*
X133981156Y-69410500D01*
X133981158Y-69410500D01*
X134138844Y-69410500D01*
X134138845Y-69410499D01*
X134293497Y-69379737D01*
X134439179Y-69319394D01*
X134570289Y-69231789D01*
X134642078Y-69160000D01*
X135330138Y-69160000D01*
X136133012Y-69160000D01*
X136115795Y-69169940D01*
X136059940Y-69225795D01*
X136020444Y-69294204D01*
X136000000Y-69370504D01*
X136000000Y-69449496D01*
X136020444Y-69525796D01*
X136059940Y-69594205D01*
X136115795Y-69650060D01*
X136133012Y-69660000D01*
X135330138Y-69660000D01*
X135338430Y-69701690D01*
X135338430Y-69701692D01*
X135413807Y-69883671D01*
X135413814Y-69883684D01*
X135523248Y-70047462D01*
X135523251Y-70047466D01*
X135662533Y-70186748D01*
X135662537Y-70186751D01*
X135826315Y-70296185D01*
X135826328Y-70296192D01*
X136008306Y-70371569D01*
X136008318Y-70371572D01*
X136201504Y-70409999D01*
X136201508Y-70410000D01*
X136600000Y-70410000D01*
X136600000Y-69710000D01*
X137100000Y-69710000D01*
X137100000Y-70410000D01*
X137498492Y-70410000D01*
X137498495Y-70409999D01*
X137691681Y-70371572D01*
X137691693Y-70371569D01*
X137873671Y-70296192D01*
X137873684Y-70296185D01*
X138037462Y-70186751D01*
X138037466Y-70186748D01*
X138176748Y-70047466D01*
X138176751Y-70047462D01*
X138286185Y-69883684D01*
X138286192Y-69883671D01*
X138361569Y-69701692D01*
X138361569Y-69701690D01*
X138369862Y-69660000D01*
X137566988Y-69660000D01*
X137584205Y-69650060D01*
X137640060Y-69594205D01*
X137679556Y-69525796D01*
X137700000Y-69449496D01*
X137700000Y-69370504D01*
X137679556Y-69294204D01*
X137640060Y-69225795D01*
X137584205Y-69169940D01*
X137566988Y-69160000D01*
X138369862Y-69160000D01*
X139660138Y-69160000D01*
X140463012Y-69160000D01*
X140445795Y-69169940D01*
X140389940Y-69225795D01*
X140350444Y-69294204D01*
X140330000Y-69370504D01*
X140330000Y-69449496D01*
X140350444Y-69525796D01*
X140389940Y-69594205D01*
X140445795Y-69650060D01*
X140463012Y-69660000D01*
X139660138Y-69660000D01*
X139668430Y-69701690D01*
X139668430Y-69701692D01*
X139743807Y-69883671D01*
X139743814Y-69883684D01*
X139853248Y-70047462D01*
X139853251Y-70047466D01*
X139992533Y-70186748D01*
X139992537Y-70186751D01*
X140156315Y-70296185D01*
X140156328Y-70296192D01*
X140338306Y-70371569D01*
X140338318Y-70371572D01*
X140531504Y-70409999D01*
X140531508Y-70410000D01*
X140780000Y-70410000D01*
X140780000Y-69710000D01*
X141280000Y-69710000D01*
X141280000Y-70410000D01*
X141528492Y-70410000D01*
X141528495Y-70409999D01*
X141721681Y-70371572D01*
X141721693Y-70371569D01*
X141903671Y-70296192D01*
X141903684Y-70296185D01*
X142067462Y-70186751D01*
X142067466Y-70186748D01*
X142206748Y-70047466D01*
X142206751Y-70047462D01*
X142316185Y-69883684D01*
X142316192Y-69883671D01*
X142391569Y-69701692D01*
X142391569Y-69701690D01*
X142399862Y-69660000D01*
X141596988Y-69660000D01*
X141614205Y-69650060D01*
X141670060Y-69594205D01*
X141709556Y-69525796D01*
X141730000Y-69449496D01*
X141730000Y-69370504D01*
X141709556Y-69294204D01*
X141670060Y-69225795D01*
X141614205Y-69169940D01*
X141596988Y-69160000D01*
X142399862Y-69160000D01*
X142391569Y-69118309D01*
X142391569Y-69118307D01*
X142316192Y-68936328D01*
X142316185Y-68936315D01*
X142206751Y-68772537D01*
X142206748Y-68772533D01*
X142067466Y-68633251D01*
X142067462Y-68633248D01*
X141903684Y-68523814D01*
X141903671Y-68523807D01*
X141721693Y-68448430D01*
X141721681Y-68448427D01*
X141528495Y-68410000D01*
X141280000Y-68410000D01*
X141280000Y-69110000D01*
X140780000Y-69110000D01*
X140780000Y-68410000D01*
X140531504Y-68410000D01*
X140338318Y-68448427D01*
X140338306Y-68448430D01*
X140156328Y-68523807D01*
X140156315Y-68523814D01*
X139992537Y-68633248D01*
X139992533Y-68633251D01*
X139853251Y-68772533D01*
X139853248Y-68772537D01*
X139743814Y-68936315D01*
X139743807Y-68936328D01*
X139668430Y-69118307D01*
X139668430Y-69118309D01*
X139660138Y-69160000D01*
X138369862Y-69160000D01*
X138361569Y-69118309D01*
X138361569Y-69118307D01*
X138286192Y-68936328D01*
X138286185Y-68936315D01*
X138176751Y-68772537D01*
X138176748Y-68772533D01*
X138037466Y-68633251D01*
X138037462Y-68633248D01*
X137873684Y-68523814D01*
X137873674Y-68523809D01*
X137795801Y-68491553D01*
X137741398Y-68447712D01*
X137719333Y-68381418D01*
X137736612Y-68313718D01*
X137749665Y-68296915D01*
X137749554Y-68296830D01*
X137754492Y-68290392D01*
X137754501Y-68290384D01*
X137821051Y-68175116D01*
X137855500Y-68046550D01*
X137855500Y-67913450D01*
X137821051Y-67784884D01*
X137754501Y-67669616D01*
X137660384Y-67575499D01*
X137545116Y-67508949D01*
X137416550Y-67474500D01*
X137283450Y-67474500D01*
X137154884Y-67508949D01*
X137154881Y-67508950D01*
X137039619Y-67575497D01*
X137039613Y-67575501D01*
X136945501Y-67669613D01*
X136945497Y-67669619D01*
X136878950Y-67784881D01*
X136878949Y-67784884D01*
X136844500Y-67913450D01*
X136844500Y-68046550D01*
X136863778Y-68118494D01*
X136878949Y-68175115D01*
X136878950Y-68175118D01*
X136898567Y-68209096D01*
X136945499Y-68290384D01*
X137039616Y-68384501D01*
X137039618Y-68384502D01*
X137046067Y-68389451D01*
X137044970Y-68390879D01*
X137086213Y-68434129D01*
X137100000Y-68490955D01*
X137100000Y-69110000D01*
X136600000Y-69110000D01*
X136600000Y-68410000D01*
X136201504Y-68410000D01*
X136008318Y-68448427D01*
X136008306Y-68448430D01*
X135826328Y-68523807D01*
X135826315Y-68523814D01*
X135662537Y-68633248D01*
X135662533Y-68633251D01*
X135523251Y-68772533D01*
X135523248Y-68772537D01*
X135413814Y-68936315D01*
X135413807Y-68936328D01*
X135338430Y-69118307D01*
X135338430Y-69118309D01*
X135330138Y-69160000D01*
X134642078Y-69160000D01*
X134681789Y-69120289D01*
X134769394Y-68989179D01*
X134829737Y-68843497D01*
X134860500Y-68688842D01*
X134860500Y-68531158D01*
X134860500Y-68531155D01*
X134860499Y-68531153D01*
X134852503Y-68490955D01*
X134829737Y-68376503D01*
X134809557Y-68327784D01*
X134769397Y-68230828D01*
X134769396Y-68230827D01*
X134769394Y-68230821D01*
X134706397Y-68136539D01*
X134700747Y-68118494D01*
X134690523Y-68102585D01*
X134686071Y-68071623D01*
X134685520Y-68069863D01*
X134685500Y-68067650D01*
X134685500Y-67282350D01*
X134705185Y-67215311D01*
X134706398Y-67213459D01*
X134706809Y-67212843D01*
X134769394Y-67119179D01*
X134772719Y-67111153D01*
X134829735Y-66973501D01*
X134829737Y-66973497D01*
X134860500Y-66818842D01*
X134860500Y-66661158D01*
X134860500Y-66661155D01*
X134860499Y-66661153D01*
X134834003Y-66527949D01*
X134829737Y-66506503D01*
X134829735Y-66506498D01*
X134769397Y-66360827D01*
X134769390Y-66360814D01*
X134681789Y-66229711D01*
X134681786Y-66229707D01*
X134570292Y-66118213D01*
X134570288Y-66118210D01*
X134439185Y-66030609D01*
X134439172Y-66030602D01*
X134293501Y-65970264D01*
X134293489Y-65970261D01*
X134138845Y-65939500D01*
X134138842Y-65939500D01*
X133981158Y-65939500D01*
X133981155Y-65939500D01*
X133826510Y-65970261D01*
X133826498Y-65970264D01*
X133680827Y-66030602D01*
X133680814Y-66030609D01*
X133549711Y-66118210D01*
X133549707Y-66118213D01*
X133438213Y-66229707D01*
X133438210Y-66229711D01*
X133350609Y-66360814D01*
X133350601Y-66360829D01*
X133324923Y-66422821D01*
X133281082Y-66477224D01*
X133214787Y-66499288D01*
X133186174Y-66496985D01*
X133148541Y-66489500D01*
X132951459Y-66489500D01*
X132951457Y-66489500D01*
X132758170Y-66527947D01*
X132758160Y-66527950D01*
X132576092Y-66603364D01*
X132576079Y-66603371D01*
X132407153Y-66716245D01*
X132406132Y-66714717D01*
X132349745Y-66738666D01*
X132335390Y-66739500D01*
X131746080Y-66739500D01*
X131601092Y-66768340D01*
X131601082Y-66768343D01*
X131464511Y-66824912D01*
X131464498Y-66824919D01*
X131341584Y-66907048D01*
X131341580Y-66907051D01*
X127559621Y-70689010D01*
X127498298Y-70722495D01*
X127489822Y-70723830D01*
X127293170Y-70762947D01*
X127293160Y-70762950D01*
X127111092Y-70838364D01*
X127111079Y-70838371D01*
X126947218Y-70947860D01*
X126947214Y-70947863D01*
X126807863Y-71087214D01*
X126712262Y-71230290D01*
X126658649Y-71275094D01*
X126589324Y-71283801D01*
X126526297Y-71253646D01*
X126521479Y-71249079D01*
X125332419Y-70060019D01*
X125298934Y-69998696D01*
X125303918Y-69929004D01*
X125332417Y-69884659D01*
X128743185Y-66473891D01*
X128804506Y-66440408D01*
X128806503Y-66439991D01*
X128921835Y-66417051D01*
X129103914Y-66341632D01*
X129267782Y-66232139D01*
X129407139Y-66092782D01*
X129516632Y-65928914D01*
X129592051Y-65746835D01*
X129614958Y-65631668D01*
X129647341Y-65569763D01*
X129648837Y-65568239D01*
X132782819Y-62434258D01*
X132844142Y-62400773D01*
X132913834Y-62405757D01*
X132969767Y-62447629D01*
X132994184Y-62513093D01*
X132994500Y-62521939D01*
X132994500Y-62841611D01*
X132996639Y-62852366D01*
X132996645Y-62852390D01*
X132997264Y-62855501D01*
X133018537Y-62962452D01*
X133030288Y-62990821D01*
X133033738Y-62999150D01*
X133033739Y-62999154D01*
X133065685Y-63076281D01*
X133065688Y-63076286D01*
X133090696Y-63113712D01*
X133090697Y-63113715D01*
X133090698Y-63113715D01*
X133134141Y-63178732D01*
X133134144Y-63178736D01*
X133225586Y-63270178D01*
X133225608Y-63270198D01*
X133343181Y-63387771D01*
X133376666Y-63449094D01*
X133379500Y-63475452D01*
X133379500Y-63518846D01*
X133410261Y-63673489D01*
X133410264Y-63673501D01*
X133470602Y-63819172D01*
X133470609Y-63819185D01*
X133558210Y-63950288D01*
X133558213Y-63950292D01*
X133669707Y-64061786D01*
X133669711Y-64061789D01*
X133800814Y-64149390D01*
X133800827Y-64149397D01*
X133944342Y-64208842D01*
X133946503Y-64209737D01*
X134101153Y-64240499D01*
X134101156Y-64240500D01*
X134101158Y-64240500D01*
X134258844Y-64240500D01*
X134258845Y-64240499D01*
X134413497Y-64209737D01*
X134559179Y-64149394D01*
X134690289Y-64061789D01*
X134801789Y-63950289D01*
X134889394Y-63819179D01*
X134949737Y-63673497D01*
X134980500Y-63518842D01*
X134980500Y-63361158D01*
X134980500Y-63361155D01*
X134980499Y-63361153D01*
X134961544Y-63265860D01*
X134949737Y-63206503D01*
X134938236Y-63178736D01*
X134889397Y-63060827D01*
X134889390Y-63060814D01*
X134801789Y-62929711D01*
X134801786Y-62929707D01*
X134690292Y-62818213D01*
X134690288Y-62818210D01*
X134559185Y-62730609D01*
X134559172Y-62730602D01*
X134407870Y-62667932D01*
X134408505Y-62666398D01*
X134404057Y-62663732D01*
X134393025Y-62661332D01*
X134364771Y-62640181D01*
X134281819Y-62557229D01*
X134248334Y-62495906D01*
X134245500Y-62469548D01*
X134245500Y-62142350D01*
X134265185Y-62075311D01*
X134266398Y-62073460D01*
X134277775Y-62056433D01*
X134277775Y-62056432D01*
X134329394Y-61979179D01*
X134389737Y-61833497D01*
X134420500Y-61678842D01*
X134420500Y-61521158D01*
X134420500Y-61521155D01*
X134420499Y-61521153D01*
X134414193Y-61489451D01*
X134389737Y-61366503D01*
X134338942Y-61243871D01*
X134329397Y-61220827D01*
X134329390Y-61220814D01*
X134252494Y-61105732D01*
X134243006Y-61075432D01*
X134231912Y-61045687D01*
X134232641Y-61042331D01*
X134231616Y-61039055D01*
X134240015Y-61008436D01*
X134246764Y-60977414D01*
X134249544Y-60973699D01*
X134250100Y-60971675D01*
X134267910Y-60949165D01*
X134611260Y-60605816D01*
X134672581Y-60572334D01*
X134698939Y-60569500D01*
X136076235Y-60569500D01*
X136059940Y-60585795D01*
X136020444Y-60654204D01*
X136000000Y-60730504D01*
X136000000Y-60809496D01*
X136020444Y-60885796D01*
X136059940Y-60954205D01*
X136115795Y-61010060D01*
X136133012Y-61020000D01*
X135330138Y-61020000D01*
X135338430Y-61061690D01*
X135338430Y-61061692D01*
X135413807Y-61243671D01*
X135413814Y-61243684D01*
X135523248Y-61407462D01*
X135523251Y-61407466D01*
X135662533Y-61546748D01*
X135662537Y-61546751D01*
X135826315Y-61656185D01*
X135826328Y-61656192D01*
X136008306Y-61731569D01*
X136008318Y-61731572D01*
X136201504Y-61769999D01*
X136201508Y-61770000D01*
X136600000Y-61770000D01*
X136600000Y-61070000D01*
X137100000Y-61070000D01*
X137100000Y-61689045D01*
X137080315Y-61756084D01*
X137045263Y-61789506D01*
X137046065Y-61790551D01*
X137039613Y-61795501D01*
X136945501Y-61889613D01*
X136945497Y-61889619D01*
X136878950Y-62004881D01*
X136878949Y-62004884D01*
X136844500Y-62133450D01*
X136844500Y-62266550D01*
X136864604Y-62341577D01*
X136878949Y-62395115D01*
X136878950Y-62395118D01*
X136886162Y-62407609D01*
X136945499Y-62510384D01*
X137039616Y-62604501D01*
X137154884Y-62671051D01*
X137283450Y-62705500D01*
X137283452Y-62705500D01*
X137416548Y-62705500D01*
X137416550Y-62705500D01*
X137545116Y-62671051D01*
X137660384Y-62604501D01*
X137754501Y-62510384D01*
X137821051Y-62395116D01*
X137855500Y-62266550D01*
X137855500Y-62133450D01*
X137821051Y-62004884D01*
X137754501Y-61889616D01*
X137754495Y-61889610D01*
X137749554Y-61883170D01*
X137750902Y-61882135D01*
X137722088Y-61829365D01*
X137727072Y-61759673D01*
X137768944Y-61703740D01*
X137795802Y-61688445D01*
X137873680Y-61656187D01*
X137873684Y-61656185D01*
X138037462Y-61546751D01*
X138037466Y-61546748D01*
X138176748Y-61407466D01*
X138176751Y-61407462D01*
X138286185Y-61243684D01*
X138286192Y-61243671D01*
X138361569Y-61061692D01*
X138361569Y-61061690D01*
X138369862Y-61020000D01*
X137566988Y-61020000D01*
X137584205Y-61010060D01*
X137640060Y-60954205D01*
X137679556Y-60885796D01*
X137700000Y-60809496D01*
X137700000Y-60730504D01*
X137679556Y-60654204D01*
X137640060Y-60585795D01*
X137623765Y-60569500D01*
X139059844Y-60569500D01*
X139059845Y-60569499D01*
X139214497Y-60538737D01*
X139360179Y-60478394D01*
X139466751Y-60407184D01*
X139533425Y-60386308D01*
X139600805Y-60404792D01*
X139647495Y-60456770D01*
X139657152Y-60516364D01*
X139660136Y-60520000D01*
X140463012Y-60520000D01*
X140445795Y-60529940D01*
X140389940Y-60585795D01*
X140350444Y-60654204D01*
X140330000Y-60730504D01*
X140330000Y-60809496D01*
X140350444Y-60885796D01*
X140389940Y-60954205D01*
X140445795Y-61010060D01*
X140463012Y-61020000D01*
X139660138Y-61020000D01*
X139668430Y-61061690D01*
X139668430Y-61061692D01*
X139743807Y-61243671D01*
X139743814Y-61243684D01*
X139853248Y-61407462D01*
X139853251Y-61407466D01*
X139992533Y-61546748D01*
X139992537Y-61546751D01*
X140156315Y-61656185D01*
X140156328Y-61656192D01*
X140338306Y-61731569D01*
X140338318Y-61731572D01*
X140531504Y-61769999D01*
X140531508Y-61770000D01*
X140780000Y-61770000D01*
X140780000Y-61070000D01*
X141280000Y-61070000D01*
X141280000Y-61770000D01*
X141528492Y-61770000D01*
X141528495Y-61769999D01*
X141721681Y-61731572D01*
X141721693Y-61731569D01*
X141903671Y-61656192D01*
X141903684Y-61656185D01*
X142067462Y-61546751D01*
X142067466Y-61546748D01*
X142206748Y-61407466D01*
X142206751Y-61407462D01*
X142316185Y-61243684D01*
X142316192Y-61243671D01*
X142391569Y-61061692D01*
X142391569Y-61061690D01*
X142399862Y-61020000D01*
X141596988Y-61020000D01*
X141614205Y-61010060D01*
X141670060Y-60954205D01*
X141709556Y-60885796D01*
X141730000Y-60809496D01*
X141730000Y-60730504D01*
X141709556Y-60654204D01*
X141670060Y-60585795D01*
X141614205Y-60529940D01*
X141596988Y-60520000D01*
X142399862Y-60520000D01*
X142391569Y-60478309D01*
X142391569Y-60478307D01*
X142316192Y-60296328D01*
X142316185Y-60296315D01*
X142206751Y-60132537D01*
X142206748Y-60132533D01*
X142067466Y-59993251D01*
X142067462Y-59993248D01*
X141903684Y-59883814D01*
X141903671Y-59883807D01*
X141721693Y-59808430D01*
X141721681Y-59808427D01*
X141528495Y-59770000D01*
X141280000Y-59770000D01*
X141280000Y-60470000D01*
X140780000Y-60470000D01*
X140780000Y-59770000D01*
X140531504Y-59770000D01*
X140338318Y-59808427D01*
X140338306Y-59808430D01*
X140242363Y-59848171D01*
X140172894Y-59855640D01*
X140110415Y-59824364D01*
X140074763Y-59764275D01*
X140077257Y-59694450D01*
X140080399Y-59686040D01*
X140080546Y-59685685D01*
X140089737Y-59663498D01*
X140120500Y-59508843D01*
X140120500Y-59351158D01*
X140120500Y-58930434D01*
X140140185Y-58863395D01*
X140141398Y-58861543D01*
X140154266Y-58842285D01*
X140206632Y-58763914D01*
X140282051Y-58581835D01*
X140294632Y-58518582D01*
X140320500Y-58388543D01*
X140320500Y-58191456D01*
X140282052Y-57998170D01*
X140282051Y-57998169D01*
X140282051Y-57998165D01*
X140266133Y-57959735D01*
X140206635Y-57816092D01*
X140206628Y-57816079D01*
X140097139Y-57652218D01*
X140097136Y-57652214D01*
X139957785Y-57512863D01*
X139957781Y-57512860D01*
X139793920Y-57403371D01*
X139793907Y-57403364D01*
X139611839Y-57327950D01*
X139611829Y-57327947D01*
X139418543Y-57289500D01*
X139418541Y-57289500D01*
X139221459Y-57289500D01*
X139221457Y-57289500D01*
X139028170Y-57327947D01*
X139028160Y-57327950D01*
X138846092Y-57403364D01*
X138846079Y-57403371D01*
X138682218Y-57512860D01*
X138682214Y-57512863D01*
X138542863Y-57652214D01*
X138542860Y-57652218D01*
X138433371Y-57816079D01*
X138433364Y-57816092D01*
X138357950Y-57998160D01*
X138357947Y-57998170D01*
X138319500Y-58191456D01*
X138319500Y-58191459D01*
X138319500Y-58388541D01*
X138319500Y-58388543D01*
X138319499Y-58388543D01*
X138357947Y-58581829D01*
X138357950Y-58581839D01*
X138433364Y-58763907D01*
X138433372Y-58763922D01*
X138441181Y-58775608D01*
X138462060Y-58842285D01*
X138443576Y-58909665D01*
X138391598Y-58956356D01*
X138338080Y-58968500D01*
X134237155Y-58968500D01*
X134126024Y-58990606D01*
X134126023Y-58990606D01*
X134082510Y-58999261D01*
X134082498Y-58999264D01*
X133936827Y-59059602D01*
X133936814Y-59059609D01*
X133805712Y-59147209D01*
X133761912Y-59191010D01*
X133694211Y-59258711D01*
X133694209Y-59258713D01*
X131862709Y-61090211D01*
X131801386Y-61123696D01*
X131731694Y-61118712D01*
X131675761Y-61076840D01*
X131660470Y-61049988D01*
X131619394Y-60950821D01*
X131619390Y-60950814D01*
X131531789Y-60819711D01*
X131531786Y-60819707D01*
X131420292Y-60708213D01*
X131420288Y-60708210D01*
X131289185Y-60620609D01*
X131289172Y-60620602D01*
X131143501Y-60560264D01*
X131143489Y-60560261D01*
X130988845Y-60529500D01*
X130988842Y-60529500D01*
X130831158Y-60529500D01*
X130831155Y-60529500D01*
X130676510Y-60560261D01*
X130676498Y-60560264D01*
X130530827Y-60620602D01*
X130530815Y-60620609D01*
X130436541Y-60683602D01*
X130369864Y-60704480D01*
X130367650Y-60704500D01*
X127236191Y-60704500D01*
X127211999Y-60702117D01*
X127198842Y-60699500D01*
X127041158Y-60699500D01*
X127041155Y-60699500D01*
X126886510Y-60730261D01*
X126886498Y-60730264D01*
X126740827Y-60790602D01*
X126740814Y-60790609D01*
X126609711Y-60878210D01*
X126609707Y-60878213D01*
X126498213Y-60989707D01*
X126498210Y-60989711D01*
X126410609Y-61120814D01*
X126410602Y-61120827D01*
X126350264Y-61266498D01*
X126350261Y-61266510D01*
X126319500Y-61421153D01*
X126319500Y-61578846D01*
X126350261Y-61733489D01*
X126350264Y-61733501D01*
X126410602Y-61879172D01*
X126410609Y-61879185D01*
X126498210Y-62010288D01*
X126498213Y-62010292D01*
X126609707Y-62121786D01*
X126609711Y-62121789D01*
X126740814Y-62209390D01*
X126740821Y-62209394D01*
X126799315Y-62233623D01*
X126824863Y-62254210D01*
X126851129Y-62273872D01*
X126851930Y-62276021D01*
X126853717Y-62277461D01*
X126864078Y-62308591D01*
X126875546Y-62339336D01*
X126875058Y-62341577D01*
X126875783Y-62343755D01*
X126867665Y-62375560D01*
X126860694Y-62407609D01*
X126858861Y-62410056D01*
X126858505Y-62411455D01*
X126839544Y-62435864D01*
X126731204Y-62544205D01*
X126669881Y-62577690D01*
X126667714Y-62578141D01*
X126556508Y-62600261D01*
X126556498Y-62600264D01*
X126410827Y-62660602D01*
X126410814Y-62660609D01*
X126279711Y-62748210D01*
X126279707Y-62748213D01*
X126168213Y-62859707D01*
X126168210Y-62859711D01*
X126080609Y-62990814D01*
X126080602Y-62990827D01*
X126020264Y-63136498D01*
X126020261Y-63136510D01*
X125989500Y-63291153D01*
X125989500Y-63448846D01*
X126020261Y-63603489D01*
X126020264Y-63603501D01*
X126080602Y-63749172D01*
X126080609Y-63749185D01*
X126168210Y-63880288D01*
X126168213Y-63880292D01*
X126279707Y-63991786D01*
X126279711Y-63991789D01*
X126410814Y-64079390D01*
X126410827Y-64079397D01*
X126556498Y-64139735D01*
X126556503Y-64139737D01*
X126711153Y-64170499D01*
X126711156Y-64170500D01*
X126711158Y-64170500D01*
X126868844Y-64170500D01*
X126868845Y-64170499D01*
X127023497Y-64139737D01*
X127169179Y-64079394D01*
X127300289Y-63991789D01*
X127411789Y-63880289D01*
X127499394Y-63749179D01*
X127559737Y-63603497D01*
X127581858Y-63492282D01*
X127614240Y-63430375D01*
X127615730Y-63428858D01*
X128152772Y-62891819D01*
X128214095Y-62858334D01*
X128240453Y-62855500D01*
X129627650Y-62855500D01*
X129645634Y-62860780D01*
X129664377Y-62861064D01*
X129692886Y-62874655D01*
X129694689Y-62875185D01*
X129696257Y-62876209D01*
X129696450Y-62876337D01*
X129790821Y-62939394D01*
X129792321Y-62940015D01*
X129798653Y-62944221D01*
X129817475Y-62966617D01*
X129838347Y-62987122D01*
X129839692Y-62993053D01*
X129843605Y-62997709D01*
X129847330Y-63026721D01*
X129853804Y-63055260D01*
X129851728Y-63060978D01*
X129852503Y-63067010D01*
X129839952Y-63093428D01*
X129829969Y-63120939D01*
X129823064Y-63128978D01*
X129822522Y-63130120D01*
X129821582Y-63130704D01*
X129817727Y-63135193D01*
X128516815Y-64436105D01*
X128455492Y-64469590D01*
X128453326Y-64470041D01*
X128338170Y-64492947D01*
X128338160Y-64492950D01*
X128156092Y-64568364D01*
X128156079Y-64568371D01*
X127992218Y-64677860D01*
X127992214Y-64677863D01*
X127852863Y-64817214D01*
X127852860Y-64817218D01*
X127743371Y-64981079D01*
X127743364Y-64981092D01*
X127667950Y-65163160D01*
X127667947Y-65163170D01*
X127645041Y-65278326D01*
X127612656Y-65340237D01*
X127611105Y-65341815D01*
X124339741Y-68613181D01*
X124278418Y-68646666D01*
X124252060Y-68649500D01*
X123180435Y-68649500D01*
X123113396Y-68629815D01*
X123111544Y-68628602D01*
X123013911Y-68563366D01*
X122831839Y-68487950D01*
X122831829Y-68487947D01*
X122638543Y-68449500D01*
X122638541Y-68449500D01*
X122463500Y-68449500D01*
X122396461Y-68429815D01*
X122350706Y-68377011D01*
X122339500Y-68325500D01*
X122339500Y-61130960D01*
X122359185Y-61063921D01*
X122405056Y-61021597D01*
X122409171Y-61019397D01*
X122409179Y-61019394D01*
X122540289Y-60931789D01*
X122651789Y-60820289D01*
X122739394Y-60689179D01*
X122799737Y-60543497D01*
X122830500Y-60388842D01*
X122830500Y-60231158D01*
X122830500Y-60231155D01*
X122830499Y-60231153D01*
X122799738Y-60076510D01*
X122799737Y-60076503D01*
X122790686Y-60054651D01*
X122739397Y-59930827D01*
X122739390Y-59930814D01*
X122681644Y-59844391D01*
X122660766Y-59777713D01*
X122679251Y-59710333D01*
X122731229Y-59663643D01*
X122784746Y-59651500D01*
X127215608Y-59651500D01*
X127215608Y-59651499D01*
X127293879Y-59635931D01*
X127336452Y-59627463D01*
X127369792Y-59613652D01*
X127450286Y-59580312D01*
X127510222Y-59540263D01*
X127510223Y-59540263D01*
X127538368Y-59521456D01*
X127552733Y-59511858D01*
X127639858Y-59424733D01*
X127639859Y-59424730D01*
X127646925Y-59417665D01*
X127646928Y-59417661D01*
X129048797Y-58015791D01*
X129110118Y-57982308D01*
X129112128Y-57981889D01*
X129223497Y-57959737D01*
X129369179Y-57899394D01*
X129500289Y-57811789D01*
X129611789Y-57700289D01*
X129699394Y-57569179D01*
X129759737Y-57423497D01*
X129790500Y-57268842D01*
X129790500Y-57111158D01*
X129790500Y-57111155D01*
X129790499Y-57111153D01*
X129759738Y-56956510D01*
X129759738Y-56956508D01*
X129759737Y-56956503D01*
X129748433Y-56929212D01*
X129699397Y-56810827D01*
X129699390Y-56810814D01*
X129611789Y-56679711D01*
X129611786Y-56679707D01*
X129500292Y-56568213D01*
X129500288Y-56568210D01*
X129369185Y-56480609D01*
X129369172Y-56480602D01*
X129223501Y-56420264D01*
X129223489Y-56420261D01*
X129068845Y-56389500D01*
X129068842Y-56389500D01*
X128911158Y-56389500D01*
X128911155Y-56389500D01*
X128756510Y-56420261D01*
X128756498Y-56420264D01*
X128610827Y-56480602D01*
X128610814Y-56480609D01*
X128479711Y-56568210D01*
X128479707Y-56568213D01*
X128368213Y-56679707D01*
X128368210Y-56679711D01*
X128280609Y-56810814D01*
X128280602Y-56810827D01*
X128220264Y-56956498D01*
X128220261Y-56956508D01*
X128198141Y-57067714D01*
X128165756Y-57129625D01*
X128164205Y-57131203D01*
X127802319Y-57493089D01*
X127740996Y-57526574D01*
X127671304Y-57521590D01*
X127615371Y-57479718D01*
X127611534Y-57474296D01*
X127601788Y-57459709D01*
X127490292Y-57348213D01*
X127490288Y-57348210D01*
X127359185Y-57260609D01*
X127359172Y-57260602D01*
X127213501Y-57200264D01*
X127213489Y-57200261D01*
X127102286Y-57178141D01*
X127040375Y-57145756D01*
X127038796Y-57144205D01*
X122167771Y-52273181D01*
X122134286Y-52211858D01*
X122139270Y-52142166D01*
X122181142Y-52086233D01*
X122246606Y-52061816D01*
X122255452Y-52061500D01*
X125825607Y-52061500D01*
X125886029Y-52049481D01*
X125946452Y-52037463D01*
X125979792Y-52023652D01*
X126060286Y-51990312D01*
X126115057Y-51953714D01*
X126162733Y-51921858D01*
X126249858Y-51834733D01*
X126249858Y-51834731D01*
X126260066Y-51824524D01*
X126260068Y-51824521D01*
X126648797Y-51435791D01*
X126710118Y-51402308D01*
X126712128Y-51401889D01*
X126823497Y-51379737D01*
X126969179Y-51319394D01*
X127100289Y-51231789D01*
X127211789Y-51120289D01*
X127299394Y-50989179D01*
X127359737Y-50843497D01*
X127390500Y-50688842D01*
X127390500Y-50531158D01*
X127390500Y-50531155D01*
X127390499Y-50531153D01*
X127381858Y-50487714D01*
X127359737Y-50376503D01*
X127355857Y-50367136D01*
X127299397Y-50230827D01*
X127299390Y-50230814D01*
X127211789Y-50099711D01*
X127211786Y-50099707D01*
X127100292Y-49988213D01*
X127100288Y-49988210D01*
X126969185Y-49900609D01*
X126969172Y-49900602D01*
X126823501Y-49840264D01*
X126823489Y-49840261D01*
X126668845Y-49809500D01*
X126668842Y-49809500D01*
X126511158Y-49809500D01*
X126511155Y-49809500D01*
X126356510Y-49840261D01*
X126356498Y-49840264D01*
X126210827Y-49900602D01*
X126210814Y-49900609D01*
X126079711Y-49988210D01*
X126079707Y-49988213D01*
X125968213Y-50099707D01*
X125968210Y-50099711D01*
X125880609Y-50230814D01*
X125880602Y-50230827D01*
X125820264Y-50376498D01*
X125820261Y-50376508D01*
X125798141Y-50487714D01*
X125765756Y-50549625D01*
X125764206Y-50551203D01*
X125541227Y-50774182D01*
X125479907Y-50807666D01*
X125453548Y-50810500D01*
X110461516Y-50810500D01*
X110394477Y-50790815D01*
X110348722Y-50738011D01*
X110338778Y-50668853D01*
X110367803Y-50605297D01*
X110426581Y-50567523D01*
X110437325Y-50564883D01*
X110460954Y-50560182D01*
X110501835Y-50552051D01*
X110683914Y-50476632D01*
X110847782Y-50367139D01*
X110987139Y-50227782D01*
X111096632Y-50063914D01*
X111172051Y-49881835D01*
X111184632Y-49818582D01*
X111210500Y-49688543D01*
X111210500Y-49491456D01*
X111172052Y-49298170D01*
X111172051Y-49298169D01*
X111172051Y-49298165D01*
X111172049Y-49298160D01*
X111096635Y-49116092D01*
X111096628Y-49116079D01*
X110987139Y-48952218D01*
X110987136Y-48952214D01*
X110847785Y-48812863D01*
X110847781Y-48812860D01*
X110683920Y-48703371D01*
X110683907Y-48703364D01*
X110501839Y-48627950D01*
X110501829Y-48627947D01*
X110308543Y-48589500D01*
X110308541Y-48589500D01*
X110111459Y-48589500D01*
X110111457Y-48589500D01*
X109918170Y-48627947D01*
X109918160Y-48627950D01*
X109736092Y-48703364D01*
X109736079Y-48703371D01*
X109572218Y-48812860D01*
X109572214Y-48812863D01*
X109432863Y-48952214D01*
X109432860Y-48952218D01*
X109323371Y-49116079D01*
X109323364Y-49116092D01*
X109247950Y-49298160D01*
X109247947Y-49298170D01*
X109225041Y-49413326D01*
X109192656Y-49475237D01*
X109191105Y-49476815D01*
X107288186Y-51379735D01*
X101738711Y-56929211D01*
X101682960Y-56984962D01*
X101627209Y-57040712D01*
X101539609Y-57171814D01*
X101539602Y-57171827D01*
X101479264Y-57317498D01*
X101479261Y-57317510D01*
X101448500Y-57472153D01*
X101448500Y-67217846D01*
X101479261Y-67372489D01*
X101479264Y-67372501D01*
X101539602Y-67518172D01*
X101539609Y-67518185D01*
X101627210Y-67649288D01*
X101627213Y-67649292D01*
X103541105Y-69563183D01*
X103574590Y-69624506D01*
X103575041Y-69626672D01*
X103597947Y-69741829D01*
X103597950Y-69741839D01*
X103673364Y-69923907D01*
X103673371Y-69923920D01*
X103705206Y-69971564D01*
X103726084Y-70038242D01*
X103707599Y-70105622D01*
X103689785Y-70128136D01*
X100714739Y-73103181D01*
X100653416Y-73136666D01*
X100627058Y-73139500D01*
X99562129Y-73139500D01*
X99562123Y-73139501D01*
X99502516Y-73145908D01*
X99367671Y-73196202D01*
X99367664Y-73196206D01*
X99252455Y-73282452D01*
X99252452Y-73282455D01*
X99166206Y-73397664D01*
X99166202Y-73397671D01*
X99115908Y-73532517D01*
X99109501Y-73592116D01*
X99109500Y-73592135D01*
X99109500Y-75387870D01*
X99109501Y-75387876D01*
X99115908Y-75447483D01*
X99166202Y-75582328D01*
X99166204Y-75582331D01*
X99180321Y-75601189D01*
X99204738Y-75666654D01*
X99189886Y-75734927D01*
X99140481Y-75784332D01*
X99081054Y-75799500D01*
X91214500Y-75799500D01*
X91147461Y-75779815D01*
X91101706Y-75727011D01*
X91090500Y-75675500D01*
X91090500Y-48014500D01*
X91110185Y-47947461D01*
X91162989Y-47901706D01*
X91214500Y-47890500D01*
X142655500Y-47890500D01*
X142722539Y-47910185D01*
G37*
%TD.AperFunction*%
%TA.AperFunction,Conductor*%
G36*
X102534075Y-74682993D02*
G01*
X102599901Y-74797007D01*
X102692993Y-74890099D01*
X102807007Y-74955925D01*
X102870590Y-74972962D01*
X102238282Y-75605269D01*
X102242768Y-75662259D01*
X102242264Y-75662298D01*
X102245515Y-75700119D01*
X102212912Y-75761916D01*
X102152075Y-75796276D01*
X102123983Y-75799500D01*
X101838946Y-75799500D01*
X101771907Y-75779815D01*
X101726152Y-75727011D01*
X101716208Y-75657853D01*
X101739679Y-75601189D01*
X101744838Y-75594297D01*
X101753796Y-75582331D01*
X101804091Y-75447483D01*
X101810500Y-75387873D01*
X101810499Y-75377312D01*
X101830179Y-75310275D01*
X101846818Y-75289626D01*
X102517037Y-74619408D01*
X102534075Y-74682993D01*
G37*
%TD.AperFunction*%
%TA.AperFunction,Conductor*%
G36*
X104115270Y-75251717D02*
G01*
X104115270Y-75251716D01*
X104154622Y-75197555D01*
X104159232Y-75188507D01*
X104207205Y-75137709D01*
X104275025Y-75120912D01*
X104341161Y-75143447D01*
X104380204Y-75188504D01*
X104384949Y-75197817D01*
X104509890Y-75369786D01*
X104509896Y-75369792D01*
X104660208Y-75520104D01*
X104715807Y-75560499D01*
X104736016Y-75575181D01*
X104778682Y-75630511D01*
X104784661Y-75700124D01*
X104752056Y-75761920D01*
X104691217Y-75796277D01*
X104663131Y-75799500D01*
X103876016Y-75799500D01*
X103808977Y-75779815D01*
X103763222Y-75727011D01*
X103753278Y-75657853D01*
X103758474Y-75646474D01*
X103761717Y-75605270D01*
X103129408Y-74972962D01*
X103192993Y-74955925D01*
X103307007Y-74890099D01*
X103400099Y-74797007D01*
X103465925Y-74682993D01*
X103482962Y-74619409D01*
X104115270Y-75251717D01*
G37*
%TD.AperFunction*%
%TA.AperFunction,Conductor*%
G36*
X108344258Y-69721050D02*
G01*
X108376330Y-69728026D01*
X108378782Y-69729861D01*
X108380178Y-69730218D01*
X108404577Y-69749171D01*
X108404585Y-69749177D01*
X108419275Y-69763866D01*
X108441267Y-69785858D01*
X108441268Y-69785858D01*
X108448336Y-69792926D01*
X108448338Y-69792928D01*
X112407571Y-73752162D01*
X112441056Y-73813485D01*
X112437821Y-73878160D01*
X112432754Y-73893753D01*
X112401688Y-74089901D01*
X112399500Y-74103713D01*
X112399500Y-74316287D01*
X112432754Y-74526243D01*
X112483685Y-74682993D01*
X112498444Y-74728414D01*
X112594951Y-74917820D01*
X112719890Y-75089786D01*
X112870213Y-75240109D01*
X113042179Y-75365048D01*
X113042181Y-75365049D01*
X113042184Y-75365051D01*
X113231588Y-75461557D01*
X113433757Y-75527246D01*
X113596531Y-75553027D01*
X113659666Y-75582956D01*
X113696597Y-75642268D01*
X113695599Y-75712130D01*
X113656989Y-75770363D01*
X113593026Y-75798477D01*
X113577133Y-75799500D01*
X106416869Y-75799500D01*
X106349830Y-75779815D01*
X106304075Y-75727011D01*
X106294131Y-75657853D01*
X106323156Y-75594297D01*
X106343984Y-75575181D01*
X106364191Y-75560500D01*
X106419792Y-75520104D01*
X106570104Y-75369792D01*
X106570106Y-75369788D01*
X106570109Y-75369786D01*
X106695048Y-75197820D01*
X106695050Y-75197817D01*
X106695051Y-75197816D01*
X106791557Y-75008412D01*
X106857246Y-74806243D01*
X106890500Y-74596287D01*
X106890500Y-74383713D01*
X106857246Y-74173757D01*
X106791557Y-73971588D01*
X106695051Y-73782184D01*
X106695049Y-73782181D01*
X106695048Y-73782179D01*
X106570109Y-73610213D01*
X106419786Y-73459890D01*
X106247820Y-73334951D01*
X106058414Y-73238444D01*
X106058413Y-73238443D01*
X106058412Y-73238443D01*
X105856243Y-73172754D01*
X105856241Y-73172753D01*
X105856240Y-73172753D01*
X105694957Y-73147208D01*
X105646287Y-73139500D01*
X105433713Y-73139500D01*
X105385042Y-73147208D01*
X105223760Y-73172753D01*
X105021585Y-73238444D01*
X104832179Y-73334951D01*
X104660213Y-73459890D01*
X104509890Y-73610213D01*
X104384949Y-73782182D01*
X104380202Y-73791499D01*
X104332227Y-73842293D01*
X104264405Y-73859087D01*
X104198271Y-73836548D01*
X104159234Y-73791495D01*
X104154626Y-73782452D01*
X104115270Y-73728282D01*
X104115269Y-73728282D01*
X103482962Y-74360590D01*
X103465925Y-74297007D01*
X103400099Y-74182993D01*
X103307007Y-74089901D01*
X103192993Y-74024075D01*
X103129408Y-74007037D01*
X103761716Y-73374728D01*
X103707550Y-73335375D01*
X103518217Y-73238904D01*
X103316129Y-73173242D01*
X103204889Y-73155623D01*
X103141755Y-73125693D01*
X103104824Y-73066382D01*
X103105822Y-72996519D01*
X103136604Y-72945472D01*
X105181789Y-70900289D01*
X105269394Y-70769179D01*
X105329738Y-70623497D01*
X105360500Y-70468842D01*
X105360500Y-70374500D01*
X105380185Y-70307461D01*
X105432989Y-70261706D01*
X105484500Y-70250500D01*
X106619565Y-70250500D01*
X106686604Y-70270185D01*
X106688456Y-70271398D01*
X106786086Y-70336632D01*
X106786087Y-70336632D01*
X106786088Y-70336633D01*
X106838627Y-70358395D01*
X106968165Y-70412051D01*
X106968169Y-70412051D01*
X106968170Y-70412052D01*
X107161456Y-70450500D01*
X107161459Y-70450500D01*
X107358543Y-70450500D01*
X107488582Y-70424632D01*
X107551835Y-70412051D01*
X107733914Y-70336632D01*
X107897782Y-70227139D01*
X108037139Y-70087782D01*
X108146632Y-69923914D01*
X108202346Y-69789405D01*
X108222926Y-69763866D01*
X108242593Y-69737595D01*
X108244744Y-69736792D01*
X108246185Y-69735005D01*
X108277311Y-69724644D01*
X108308057Y-69713176D01*
X108310300Y-69713664D01*
X108312479Y-69712939D01*
X108344258Y-69721050D01*
G37*
%TD.AperFunction*%
%TA.AperFunction,Conductor*%
G36*
X105633333Y-58973770D02*
G01*
X105677680Y-59002271D01*
X106187263Y-59511855D01*
X106187267Y-59511858D01*
X106289710Y-59580309D01*
X106289711Y-59580309D01*
X106289715Y-59580312D01*
X106338710Y-59600606D01*
X106403548Y-59627463D01*
X106422668Y-59631266D01*
X106509359Y-59648510D01*
X106524393Y-59651501D01*
X106524394Y-59651501D01*
X106653721Y-59651501D01*
X106653741Y-59651500D01*
X116275500Y-59651500D01*
X116342539Y-59671185D01*
X116388294Y-59723989D01*
X116399500Y-59775500D01*
X116399500Y-59778846D01*
X116430261Y-59933489D01*
X116430264Y-59933501D01*
X116490602Y-60079172D01*
X116490609Y-60079184D01*
X116553602Y-60173459D01*
X116574480Y-60240136D01*
X116574500Y-60242350D01*
X116574500Y-70101608D01*
X116579777Y-70128136D01*
X116585419Y-70156502D01*
X116598537Y-70222452D01*
X116610155Y-70250500D01*
X116613192Y-70257833D01*
X116613194Y-70257839D01*
X116645685Y-70336281D01*
X116645690Y-70336290D01*
X116660460Y-70358394D01*
X116660461Y-70358395D01*
X116714140Y-70438731D01*
X116714141Y-70438732D01*
X116714142Y-70438733D01*
X116801267Y-70525858D01*
X116801268Y-70525858D01*
X116808335Y-70532925D01*
X116808334Y-70532925D01*
X116808338Y-70532928D01*
X118923228Y-72647819D01*
X118956713Y-72709142D01*
X118951729Y-72778834D01*
X118909857Y-72834767D01*
X118844393Y-72859184D01*
X118835547Y-72859500D01*
X118723713Y-72859500D01*
X118695006Y-72864046D01*
X118513757Y-72892753D01*
X118498158Y-72897822D01*
X118428317Y-72899816D01*
X118372161Y-72867571D01*
X113363150Y-67858560D01*
X113355860Y-67851270D01*
X113355858Y-67851267D01*
X113268733Y-67764142D01*
X113217509Y-67729915D01*
X113166286Y-67695688D01*
X113166283Y-67695686D01*
X113166282Y-67695686D01*
X113166281Y-67695685D01*
X113054278Y-67649293D01*
X113054277Y-67649292D01*
X113052454Y-67648537D01*
X112992029Y-67636518D01*
X112931610Y-67624500D01*
X112931607Y-67624500D01*
X112931606Y-67624500D01*
X112861836Y-67624500D01*
X112794797Y-67604815D01*
X112792945Y-67603602D01*
X112697081Y-67539547D01*
X112697069Y-67539540D01*
X112551398Y-67479202D01*
X112551386Y-67479199D01*
X112396742Y-67448438D01*
X112396739Y-67448438D01*
X112239055Y-67448438D01*
X112239052Y-67448438D01*
X112084407Y-67479199D01*
X112084395Y-67479202D01*
X111938724Y-67539540D01*
X111938711Y-67539547D01*
X111807608Y-67627148D01*
X111807604Y-67627151D01*
X111696110Y-67738645D01*
X111696107Y-67738649D01*
X111608506Y-67869752D01*
X111608499Y-67869765D01*
X111548161Y-68015436D01*
X111548158Y-68015448D01*
X111517397Y-68170091D01*
X111517397Y-68327784D01*
X111548158Y-68482427D01*
X111548161Y-68482439D01*
X111608499Y-68628110D01*
X111608506Y-68628123D01*
X111696107Y-68759226D01*
X111696110Y-68759230D01*
X111807604Y-68870724D01*
X111807608Y-68870727D01*
X111938711Y-68958328D01*
X111938724Y-68958335D01*
X112082514Y-69017894D01*
X112084400Y-69018675D01*
X112239050Y-69049437D01*
X112239053Y-69049438D01*
X112239055Y-69049438D01*
X112396741Y-69049438D01*
X112396742Y-69049437D01*
X112551394Y-69018675D01*
X112618171Y-68991014D01*
X112687638Y-68983545D01*
X112750117Y-69014819D01*
X112753304Y-69017894D01*
X116383229Y-72647819D01*
X116416714Y-72709142D01*
X116411730Y-72778834D01*
X116369858Y-72834767D01*
X116304394Y-72859184D01*
X116295548Y-72859500D01*
X116183713Y-72859500D01*
X116135042Y-72867208D01*
X115973760Y-72892753D01*
X115771582Y-72958445D01*
X115655309Y-73017689D01*
X115586640Y-73030585D01*
X115521900Y-73004308D01*
X115511334Y-72994885D01*
X110101819Y-67585370D01*
X110068334Y-67524047D01*
X110065500Y-67497689D01*
X110065500Y-64672350D01*
X110085185Y-64605311D01*
X110086398Y-64603459D01*
X110109848Y-64568364D01*
X110149394Y-64509179D01*
X110156118Y-64492947D01*
X110179662Y-64436105D01*
X110209737Y-64363497D01*
X110240500Y-64208842D01*
X110240500Y-64051158D01*
X110240500Y-64051155D01*
X110240499Y-64051153D01*
X110220436Y-63950289D01*
X110209737Y-63896503D01*
X110177706Y-63819172D01*
X110149397Y-63750827D01*
X110149390Y-63750814D01*
X110061789Y-63619711D01*
X110061786Y-63619707D01*
X109950292Y-63508213D01*
X109950288Y-63508210D01*
X109819185Y-63420609D01*
X109819172Y-63420602D01*
X109673501Y-63360264D01*
X109673489Y-63360261D01*
X109518845Y-63329500D01*
X109518842Y-63329500D01*
X109361158Y-63329500D01*
X109361155Y-63329500D01*
X109206510Y-63360261D01*
X109206498Y-63360264D01*
X109060827Y-63420602D01*
X109060814Y-63420609D01*
X108929711Y-63508210D01*
X108929707Y-63508213D01*
X108818213Y-63619707D01*
X108818210Y-63619711D01*
X108730609Y-63750814D01*
X108730602Y-63750827D01*
X108670264Y-63896498D01*
X108670261Y-63896510D01*
X108639500Y-64051153D01*
X108639500Y-64208846D01*
X108670261Y-64363489D01*
X108670264Y-64363501D01*
X108700118Y-64435575D01*
X108707587Y-64505044D01*
X108676311Y-64567523D01*
X108616222Y-64603175D01*
X108609749Y-64604644D01*
X108581508Y-64610261D01*
X108581498Y-64610264D01*
X108435827Y-64670602D01*
X108435814Y-64670609D01*
X108304711Y-64758210D01*
X108304707Y-64758213D01*
X108193213Y-64869707D01*
X108193210Y-64869711D01*
X108105609Y-65000814D01*
X108105602Y-65000827D01*
X108045264Y-65146498D01*
X108045261Y-65146510D01*
X108014500Y-65301153D01*
X108014500Y-65458846D01*
X108045261Y-65613489D01*
X108045264Y-65613501D01*
X108105602Y-65759172D01*
X108105609Y-65759185D01*
X108193602Y-65890874D01*
X108214480Y-65957551D01*
X108214500Y-65959765D01*
X108214500Y-68690216D01*
X108194815Y-68757255D01*
X108142011Y-68803010D01*
X108072853Y-68812954D01*
X108009297Y-68783929D01*
X108002819Y-68777897D01*
X107897785Y-68672863D01*
X107897781Y-68672860D01*
X107733920Y-68563371D01*
X107733907Y-68563364D01*
X107551839Y-68487950D01*
X107551829Y-68487947D01*
X107358543Y-68449500D01*
X107358541Y-68449500D01*
X107161459Y-68449500D01*
X107161457Y-68449500D01*
X106968170Y-68487947D01*
X106968160Y-68487950D01*
X106786088Y-68563366D01*
X106688456Y-68628602D01*
X106621778Y-68649480D01*
X106619565Y-68649500D01*
X105200435Y-68649500D01*
X105133396Y-68629815D01*
X105131544Y-68628602D01*
X105033911Y-68563366D01*
X104851839Y-68487950D01*
X104851829Y-68487947D01*
X104736672Y-68465041D01*
X104674762Y-68432656D01*
X104673183Y-68431105D01*
X104422655Y-68180577D01*
X104389170Y-68119254D01*
X104394154Y-68049562D01*
X104436026Y-67993629D01*
X104501490Y-67969212D01*
X104534528Y-67971279D01*
X104631155Y-67990500D01*
X104631158Y-67990500D01*
X104788844Y-67990500D01*
X104788845Y-67990499D01*
X104943497Y-67959737D01*
X105089179Y-67899394D01*
X105220289Y-67811789D01*
X105331789Y-67700289D01*
X105419394Y-67569179D01*
X105479737Y-67423497D01*
X105510500Y-67268842D01*
X105510500Y-67111158D01*
X105510500Y-67111155D01*
X105510499Y-67111153D01*
X105483117Y-66973497D01*
X105479737Y-66956503D01*
X105479735Y-66956498D01*
X105419397Y-66810828D01*
X105419396Y-66810827D01*
X105419394Y-66810821D01*
X105356397Y-66716539D01*
X105335520Y-66649863D01*
X105335500Y-66647650D01*
X105335500Y-59220451D01*
X105344144Y-59191010D01*
X105350668Y-59161024D01*
X105354422Y-59156008D01*
X105355185Y-59153412D01*
X105371815Y-59132774D01*
X105502318Y-59002270D01*
X105563641Y-58968786D01*
X105633333Y-58973770D01*
G37*
%TD.AperFunction*%
%TA.AperFunction,Conductor*%
G36*
X120577539Y-52081185D02*
G01*
X120623294Y-52133989D01*
X120634500Y-52185500D01*
X120634500Y-52311611D01*
X120658535Y-52432444D01*
X120658540Y-52432461D01*
X120705685Y-52546280D01*
X120705687Y-52546283D01*
X120705688Y-52546286D01*
X120739915Y-52597509D01*
X120774142Y-52648733D01*
X120861267Y-52735858D01*
X120861269Y-52735859D01*
X120871232Y-52745822D01*
X126154205Y-58028796D01*
X126187690Y-58090119D01*
X126188141Y-58092286D01*
X126207867Y-58191456D01*
X126210263Y-58203497D01*
X126220847Y-58229049D01*
X126228315Y-58298518D01*
X126197039Y-58360997D01*
X126136950Y-58396649D01*
X126106285Y-58400500D01*
X106896453Y-58400500D01*
X106829414Y-58380815D01*
X106808772Y-58364181D01*
X106415793Y-57971203D01*
X106382308Y-57909880D01*
X106381887Y-57907864D01*
X106359737Y-57796503D01*
X106335599Y-57738230D01*
X106299397Y-57650827D01*
X106299390Y-57650814D01*
X106211789Y-57519711D01*
X106211786Y-57519707D01*
X106100292Y-57408213D01*
X106100288Y-57408210D01*
X105969185Y-57320609D01*
X105969172Y-57320602D01*
X105823501Y-57260264D01*
X105823491Y-57260261D01*
X105784809Y-57252567D01*
X105722898Y-57220182D01*
X105688324Y-57159466D01*
X105692064Y-57089697D01*
X105721318Y-57043271D01*
X110666771Y-52097819D01*
X110728094Y-52064334D01*
X110754452Y-52061500D01*
X120510500Y-52061500D01*
X120577539Y-52081185D01*
G37*
%TD.AperFunction*%
%TD*%
M02*
