%TF.GenerationSoftware,KiCad,Pcbnew,9.0.4*%
%TF.CreationDate,2026-06-27T21:58:40+02:00*%
%TF.ProjectId,esp32_wroom32e,65737033-325f-4777-926f-6f6d3332652e,rev?*%
%TF.SameCoordinates,Original*%
%TF.FileFunction,Copper,L1,Top*%
%TF.FilePolarity,Positive*%
%FSLAX46Y46*%
G04 Gerber Fmt 4.6, Leading zero omitted, Abs format (unit mm)*
G04 Created by KiCad (PCBNEW 9.0.4) date 2026-06-27 21:58:40*
%MOMM*%
%LPD*%
G01*
G04 APERTURE LIST*
G04 Aperture macros list*
%AMRoundRect*
0 Rectangle with rounded corners*
0 $1 Rounding radius*
0 $2 $3 $4 $5 $6 $7 $8 $9 X,Y pos of 4 corners*
0 Add a 4 corners polygon primitive as box body*
4,1,4,$2,$3,$4,$5,$6,$7,$8,$9,$2,$3,0*
0 Add four circle primitives for the rounded corners*
1,1,$1+$1,$2,$3*
1,1,$1+$1,$4,$5*
1,1,$1+$1,$6,$7*
1,1,$1+$1,$8,$9*
0 Add four rect primitives between the rounded corners*
20,1,$1+$1,$2,$3,$4,$5,0*
20,1,$1+$1,$4,$5,$6,$7,0*
20,1,$1+$1,$6,$7,$8,$9,0*
20,1,$1+$1,$8,$9,$2,$3,0*%
G04 Aperture macros list end*
%TA.AperFunction,ComponentPad*%
%ADD10R,1.700000X1.700000*%
%TD*%
%TA.AperFunction,ComponentPad*%
%ADD11C,1.700000*%
%TD*%
%TA.AperFunction,SMDPad,CuDef*%
%ADD12RoundRect,0.225000X0.225000X0.250000X-0.225000X0.250000X-0.225000X-0.250000X0.225000X-0.250000X0*%
%TD*%
%TA.AperFunction,SMDPad,CuDef*%
%ADD13RoundRect,0.375000X-0.625000X-0.375000X0.625000X-0.375000X0.625000X0.375000X-0.625000X0.375000X0*%
%TD*%
%TA.AperFunction,SMDPad,CuDef*%
%ADD14RoundRect,0.500000X-0.500000X-1.400000X0.500000X-1.400000X0.500000X1.400000X-0.500000X1.400000X0*%
%TD*%
%TA.AperFunction,SMDPad,CuDef*%
%ADD15RoundRect,0.225000X-0.225000X-0.250000X0.225000X-0.250000X0.225000X0.250000X-0.225000X0.250000X0*%
%TD*%
%TA.AperFunction,SMDPad,CuDef*%
%ADD16RoundRect,0.200000X0.200000X0.275000X-0.200000X0.275000X-0.200000X-0.275000X0.200000X-0.275000X0*%
%TD*%
%TA.AperFunction,SMDPad,CuDef*%
%ADD17RoundRect,0.062500X0.062500X-0.350000X0.062500X0.350000X-0.062500X0.350000X-0.062500X-0.350000X0*%
%TD*%
%TA.AperFunction,SMDPad,CuDef*%
%ADD18RoundRect,0.062500X0.350000X-0.062500X0.350000X0.062500X-0.350000X0.062500X-0.350000X-0.062500X0*%
%TD*%
%TA.AperFunction,HeatsinkPad*%
%ADD19R,2.600000X2.600000*%
%TD*%
%TA.AperFunction,HeatsinkPad*%
%ADD20O,1.800000X1.000000*%
%TD*%
%TA.AperFunction,HeatsinkPad*%
%ADD21O,2.100000X1.000000*%
%TD*%
%TA.AperFunction,SMDPad,CuDef*%
%ADD22RoundRect,0.150000X0.425000X-0.150000X0.425000X0.150000X-0.425000X0.150000X-0.425000X-0.150000X0*%
%TD*%
%TA.AperFunction,SMDPad,CuDef*%
%ADD23RoundRect,0.075000X0.500000X-0.075000X0.500000X0.075000X-0.500000X0.075000X-0.500000X-0.075000X0*%
%TD*%
%TA.AperFunction,HeatsinkPad*%
%ADD24R,0.900000X0.900000*%
%TD*%
%TA.AperFunction,HeatsinkPad*%
%ADD25C,0.600000*%
%TD*%
%TA.AperFunction,SMDPad,CuDef*%
%ADD26R,1.500000X0.900000*%
%TD*%
%TA.AperFunction,SMDPad,CuDef*%
%ADD27R,0.900000X1.500000*%
%TD*%
%TA.AperFunction,SMDPad,CuDef*%
%ADD28R,1.000000X0.750000*%
%TD*%
%TA.AperFunction,SMDPad,CuDef*%
%ADD29R,0.750000X1.000000*%
%TD*%
%TA.AperFunction,SMDPad,CuDef*%
%ADD30RoundRect,0.200000X-0.275000X0.200000X-0.275000X-0.200000X0.275000X-0.200000X0.275000X0.200000X0*%
%TD*%
%TA.AperFunction,SMDPad,CuDef*%
%ADD31RoundRect,0.200000X-0.200000X-0.275000X0.200000X-0.275000X0.200000X0.275000X-0.200000X0.275000X0*%
%TD*%
%TA.AperFunction,SMDPad,CuDef*%
%ADD32RoundRect,0.150000X0.150000X-0.587500X0.150000X0.587500X-0.150000X0.587500X-0.150000X-0.587500X0*%
%TD*%
%TA.AperFunction,SMDPad,CuDef*%
%ADD33RoundRect,0.225000X0.250000X-0.225000X0.250000X0.225000X-0.250000X0.225000X-0.250000X-0.225000X0*%
%TD*%
%TA.AperFunction,ViaPad*%
%ADD34C,0.600000*%
%TD*%
%TA.AperFunction,ViaPad*%
%ADD35C,1.000000*%
%TD*%
%TA.AperFunction,Conductor*%
%ADD36C,0.250000*%
%TD*%
%TA.AperFunction,Conductor*%
%ADD37C,0.500000*%
%TD*%
%TA.AperFunction,Conductor*%
%ADD38C,0.600000*%
%TD*%
%TA.AperFunction,Conductor*%
%ADD39C,0.200000*%
%TD*%
G04 APERTURE END LIST*
D10*
%TO.P,J3,1,Pin_1*%
%TO.N,+3V3*%
X100460000Y-74490000D03*
D11*
%TO.P,J3,2,Pin_2*%
%TO.N,GND*%
X103000000Y-74490000D03*
%TO.P,J3,3,Pin_3*%
%TO.N,VBUS*%
X105540000Y-74490000D03*
%TD*%
D10*
%TO.P,J2,1,Pin_1*%
%TO.N,/cs*%
X136610000Y-74210000D03*
D11*
%TO.P,J2,2,Pin_2*%
%TO.N,/gpio4*%
X134070000Y-74210000D03*
%TO.P,J2,3,Pin_3*%
%TO.N,/sck*%
X131530000Y-74210000D03*
%TO.P,J2,4,Pin_4*%
%TO.N,/miso*%
X128990000Y-74210000D03*
%TO.P,J2,5,Pin_5*%
%TO.N,/sda*%
X126450000Y-74210000D03*
%TO.P,J2,6,Pin_6*%
%TO.N,/scl*%
X123910000Y-74210000D03*
%TO.P,J2,7,Pin_7*%
%TO.N,/mosi*%
X121370000Y-74210000D03*
%TO.P,J2,8,Pin_8*%
%TO.N,/gpio13*%
X118830000Y-74210000D03*
%TO.P,J2,9,Pin_9*%
%TO.N,/gpio14*%
X116290000Y-74210000D03*
%TO.P,J2,10,Pin_10*%
%TO.N,/gpio12*%
X113750000Y-74210000D03*
%TD*%
D12*
%TO.P,C3,2*%
%TO.N,GND*%
X92595000Y-66080000D03*
%TO.P,C3,1*%
%TO.N,+3V3*%
X94145000Y-66080000D03*
%TD*%
%TO.P,C1,1*%
%TO.N,VBUS*%
X94325000Y-69130000D03*
%TO.P,C1,2*%
%TO.N,GND*%
X92775000Y-69130000D03*
%TD*%
%TO.P,C2,1*%
%TO.N,VBUS*%
X94315000Y-70920000D03*
%TO.P,C2,2*%
%TO.N,GND*%
X92765000Y-70920000D03*
%TD*%
D13*
%TO.P,U2,1,GND*%
%TO.N,GND*%
X96590000Y-66270000D03*
%TO.P,U2,2,VO*%
%TO.N,+3V3*%
X96590000Y-68570000D03*
D14*
X102890000Y-68570000D03*
D13*
%TO.P,U2,3,VI*%
%TO.N,VBUS*%
X96590000Y-70870000D03*
%TD*%
D15*
%TO.P,C6,1*%
%TO.N,VBUS*%
X137240000Y-52240000D03*
%TO.P,C6,2*%
%TO.N,GND*%
X138790000Y-52240000D03*
%TD*%
%TO.P,C5,1*%
%TO.N,+3V3*%
X136305000Y-54790000D03*
%TO.P,C5,2*%
%TO.N,GND*%
X137855000Y-54790000D03*
%TD*%
D16*
%TO.P,R9,1*%
%TO.N,/U3_TX*%
X129275000Y-54860000D03*
%TO.P,R9,2*%
%TO.N,/ESP32_RX*%
X127625000Y-54860000D03*
%TD*%
%TO.P,R8,1*%
%TO.N,/U3_RX*%
X129455000Y-51820000D03*
%TO.P,R8,2*%
%TO.N,/ESP32_TX*%
X127805000Y-51820000D03*
%TD*%
D17*
%TO.P,U3,1,~{RI}/CLK*%
%TO.N,unconnected-(U3-~{RI}{slash}CLK-Pad1)*%
X132432500Y-53417500D03*
%TO.P,U3,2,GND*%
%TO.N,GND*%
X132932500Y-53417500D03*
%TO.P,U3,3,D+*%
%TO.N,/D+*%
X133432500Y-53417500D03*
%TO.P,U3,4,D-*%
%TO.N,/D-*%
X133932500Y-53417500D03*
%TO.P,U3,5,VIO*%
%TO.N,+3V3*%
X134432500Y-53417500D03*
%TO.P,U3,6,VDD*%
X134932500Y-53417500D03*
D18*
%TO.P,U3,7,VREGIN*%
%TO.N,VBUS*%
X135620000Y-52730000D03*
%TO.P,U3,8,VBUS*%
X135620000Y-52230000D03*
%TO.P,U3,9,~{RST}*%
%TO.N,unconnected-(U3-~{RST}-Pad9)*%
X135620000Y-51730000D03*
%TO.P,U3,10,NC*%
%TO.N,unconnected-(U3-NC-Pad10)*%
X135620000Y-51230000D03*
%TO.P,U3,11,~{WAKEUP}/GPIO.3*%
%TO.N,unconnected-(U3-~{WAKEUP}{slash}GPIO.3-Pad11)*%
X135620000Y-50730000D03*
%TO.P,U3,12,RS485/GPIO.2*%
%TO.N,unconnected-(U3-RS485{slash}GPIO.2-Pad12)*%
X135620000Y-50230000D03*
D17*
%TO.P,U3,13,~{RXT}/GPIO.1*%
%TO.N,unconnected-(U3-~{RXT}{slash}GPIO.1-Pad13)*%
X134932500Y-49542500D03*
%TO.P,U3,14,~{TXT}/GPIO.0*%
%TO.N,unconnected-(U3-~{TXT}{slash}GPIO.0-Pad14)*%
X134432500Y-49542500D03*
%TO.P,U3,15,~{SUSPEND}*%
%TO.N,unconnected-(U3-~{SUSPEND}-Pad15)*%
X133932500Y-49542500D03*
%TO.P,U3,16,NC*%
%TO.N,unconnected-(U3-NC-Pad16)*%
X133432500Y-49542500D03*
%TO.P,U3,17,SUSPEND*%
%TO.N,unconnected-(U3-SUSPEND-Pad17)*%
X132932500Y-49542500D03*
%TO.P,U3,18,~{CTS}*%
%TO.N,unconnected-(U3-~{CTS}-Pad18)*%
X132432500Y-49542500D03*
D18*
%TO.P,U3,19,~{RTS}*%
%TO.N,/U3_RTS*%
X131745000Y-50230000D03*
%TO.P,U3,20,RXD*%
%TO.N,/U3_RX*%
X131745000Y-50730000D03*
%TO.P,U3,21,TXD*%
%TO.N,/U3_TX*%
X131745000Y-51230000D03*
%TO.P,U3,22,~{DSR}*%
%TO.N,unconnected-(U3-~{DSR}-Pad22)*%
X131745000Y-51730000D03*
%TO.P,U3,23,~{DTR}*%
%TO.N,/U3_DTR*%
X131745000Y-52230000D03*
%TO.P,U3,24,~{DCD}*%
%TO.N,unconnected-(U3-~{DCD}-Pad24)*%
X131745000Y-52730000D03*
D19*
%TO.P,U3,25,GND*%
%TO.N,GND*%
X133682500Y-51480000D03*
%TD*%
D20*
%TO.P,J1,S1,SHIELD*%
%TO.N,GND*%
X141030000Y-60770000D03*
D21*
X136850000Y-60770000D03*
D20*
X141030000Y-69410000D03*
D21*
X136850000Y-69410000D03*
D22*
%TO.P,J1,B12,GND*%
X136275000Y-68290000D03*
%TO.P,J1,B9,VBUS*%
%TO.N,VBUS*%
X136275000Y-67490000D03*
D23*
%TO.P,J1,B8,SBU2*%
%TO.N,unconnected-(J1-SBU2-PadB8)*%
X136275000Y-66840000D03*
%TO.P,J1,B7,D-*%
%TO.N,/D-*%
X136275000Y-65840000D03*
%TO.P,J1,B6,D+*%
%TO.N,/D+*%
X136275000Y-64340000D03*
%TO.P,J1,B5,CC2*%
%TO.N,Net-(J1-CC2)*%
X136275000Y-63340000D03*
D22*
%TO.P,J1,B4,VBUS*%
%TO.N,VBUS*%
X136275000Y-62690000D03*
%TO.P,J1,B1,GND*%
%TO.N,GND*%
X136275000Y-61890000D03*
%TO.P,J1,A12,GND*%
X136275000Y-61890000D03*
%TO.P,J1,A9,VBUS*%
%TO.N,VBUS*%
X136275000Y-62690000D03*
D23*
%TO.P,J1,A8,SBU1*%
%TO.N,unconnected-(J1-SBU1-PadA8)*%
X136275000Y-63840000D03*
%TO.P,J1,A7,D-*%
%TO.N,/D-*%
X136275000Y-64840000D03*
%TO.P,J1,A6,D+*%
%TO.N,/D+*%
X136275000Y-65340000D03*
%TO.P,J1,A5,CC1*%
%TO.N,Net-(J1-CC1)*%
X136275000Y-66340000D03*
D22*
%TO.P,J1,A4,VBUS*%
%TO.N,VBUS*%
X136275000Y-67490000D03*
%TO.P,J1,A1,GND*%
%TO.N,GND*%
X136275000Y-68290000D03*
%TD*%
D24*
%TO.P,U1,39,GND*%
%TO.N,GND*%
X116152500Y-57845000D03*
D25*
X116152500Y-57145000D03*
D24*
X116152500Y-56445000D03*
D25*
X116152500Y-55745000D03*
D24*
X116152500Y-55045000D03*
D25*
X115452500Y-57845000D03*
X115452500Y-56445000D03*
X115452500Y-55045000D03*
D24*
X114752500Y-57845000D03*
D25*
X114752500Y-57145000D03*
D24*
X114752500Y-56445000D03*
D25*
X114752500Y-55745000D03*
D24*
X114752500Y-55045000D03*
D25*
X114052500Y-57845000D03*
X114052500Y-56445000D03*
X114052500Y-55045000D03*
D24*
X113352500Y-57845000D03*
D25*
X113352500Y-57145000D03*
D24*
X113352500Y-56445000D03*
D25*
X113352500Y-55745000D03*
D24*
X113352500Y-55045000D03*
D26*
%TO.P,U1,38,GND*%
X125002500Y-48725000D03*
%TO.P,U1,37,IO23*%
%TO.N,/mosi*%
X125002500Y-49995000D03*
%TO.P,U1,36,IO22*%
%TO.N,/scl*%
X125002500Y-51265000D03*
%TO.P,U1,35,TXD0/IO1*%
%TO.N,/ESP32_TX*%
X125002500Y-52535000D03*
%TO.P,U1,34,RXD0/IO3*%
%TO.N,/ESP32_RX*%
X125002500Y-53805000D03*
%TO.P,U1,33,IO21*%
%TO.N,/sda*%
X125002500Y-55075000D03*
%TO.P,U1,32,NC*%
%TO.N,unconnected-(U1-NC-Pad32)*%
X125002500Y-56345000D03*
%TO.P,U1,31,IO19*%
%TO.N,/miso*%
X125002500Y-57615000D03*
%TO.P,U1,30,IO18*%
%TO.N,/sck*%
X125002500Y-58885000D03*
%TO.P,U1,29,IO5*%
%TO.N,/cs*%
X125002500Y-60155000D03*
%TO.P,U1,28,IO17*%
%TO.N,unconnected-(U1-IO17-Pad28)*%
X125002500Y-61425000D03*
%TO.P,U1,27,IO16*%
%TO.N,unconnected-(U1-IO16-Pad27)*%
X125002500Y-62695000D03*
%TO.P,U1,26,IO4*%
%TO.N,/gpio4*%
X125002500Y-63965000D03*
%TO.P,U1,25,IO0*%
%TO.N,/IO0_NET*%
X125002500Y-65235000D03*
D27*
%TO.P,U1,24,IO2*%
%TO.N,unconnected-(U1-IO2-Pad24)*%
X121967500Y-66485000D03*
%TO.P,U1,23,IO15*%
%TO.N,unconnected-(U1-IO15-Pad23)*%
X120697500Y-66485000D03*
%TO.P,U1,22,NC*%
%TO.N,unconnected-(U1-NC-Pad22)*%
X119427500Y-66485000D03*
%TO.P,U1,21,NC*%
%TO.N,unconnected-(U1-NC-Pad21)*%
X118157500Y-66485000D03*
%TO.P,U1,20,NC*%
%TO.N,unconnected-(U1-NC-Pad20)*%
X116887500Y-66485000D03*
%TO.P,U1,19,NC*%
%TO.N,unconnected-(U1-NC-Pad19)*%
X115617500Y-66485000D03*
%TO.P,U1,18,NC*%
%TO.N,unconnected-(U1-NC-Pad18)*%
X114347500Y-66485000D03*
%TO.P,U1,17,NC*%
%TO.N,unconnected-(U1-NC-Pad17)*%
X113077500Y-66485000D03*
%TO.P,U1,16,IO13*%
%TO.N,/gpio13*%
X111807500Y-66485000D03*
%TO.P,U1,15,GND*%
%TO.N,GND*%
X110537500Y-66485000D03*
D26*
%TO.P,U1,14,IO12*%
%TO.N,/gpio12*%
X107502500Y-65235000D03*
%TO.P,U1,13,IO14*%
%TO.N,/gpio14*%
X107502500Y-63965000D03*
%TO.P,U1,12,IO27*%
%TO.N,unconnected-(U1-IO27-Pad12)*%
X107502500Y-62695000D03*
%TO.P,U1,11,IO26*%
%TO.N,unconnected-(U1-IO26-Pad11)*%
X107502500Y-61425000D03*
%TO.P,U1,10,IO25*%
%TO.N,unconnected-(U1-IO25-Pad10)*%
X107502500Y-60155000D03*
%TO.P,U1,9,IO33*%
%TO.N,unconnected-(U1-IO33-Pad9)*%
X107502500Y-58885000D03*
%TO.P,U1,8,IO32*%
%TO.N,unconnected-(U1-IO32-Pad8)*%
X107502500Y-57615000D03*
%TO.P,U1,7,IO35*%
%TO.N,unconnected-(U1-IO35-Pad7)*%
X107502500Y-56345000D03*
%TO.P,U1,6,IO34*%
%TO.N,unconnected-(U1-IO34-Pad6)*%
X107502500Y-55075000D03*
%TO.P,U1,5,SENSOR_VN*%
%TO.N,unconnected-(U1-SENSOR_VN-Pad5)*%
X107502500Y-53805000D03*
%TO.P,U1,4,SENSOR_VP*%
%TO.N,unconnected-(U1-SENSOR_VP-Pad4)*%
X107502500Y-52535000D03*
%TO.P,U1,3,EN*%
%TO.N,/EN_NET*%
X107502500Y-51265000D03*
%TO.P,U1,2,VDD*%
%TO.N,+3V3*%
X107502500Y-49995000D03*
%TO.P,U1,1,GND*%
%TO.N,GND*%
X107502500Y-48725000D03*
%TD*%
D28*
%TO.P,S2,A*%
%TO.N,/IO0_NET*%
X98082500Y-63015000D03*
%TO.P,S2,B*%
X92082500Y-63015000D03*
%TO.P,S2,C*%
%TO.N,GND*%
X98082500Y-59265000D03*
%TO.P,S2,D*%
X92082500Y-59265000D03*
%TD*%
D29*
%TO.P,S1,A*%
%TO.N,/EN_NET*%
X96885000Y-50100000D03*
%TO.P,S1,B*%
X96885000Y-56100000D03*
%TO.P,S1,C*%
%TO.N,GND*%
X93135000Y-50100000D03*
%TO.P,S1,D*%
X93135000Y-56100000D03*
%TD*%
D30*
%TO.P,R6,1*%
%TO.N,/IO0_NET*%
X127190000Y-65245000D03*
%TO.P,R6,2*%
%TO.N,+3V3*%
X127190000Y-66895000D03*
%TD*%
D31*
%TO.P,R5,1*%
%TO.N,/EN_NET*%
X100645000Y-50110000D03*
%TO.P,R5,2*%
%TO.N,+3V3*%
X102295000Y-50110000D03*
%TD*%
%TO.P,R4,1*%
%TO.N,/U3_DTR*%
X106420000Y-70750000D03*
%TO.P,R4,2*%
%TO.N,Net-(Q2-B)*%
X108070000Y-70750000D03*
%TD*%
D16*
%TO.P,R3,1*%
%TO.N,/U3_RTS*%
X101445000Y-58300000D03*
%TO.P,R3,2*%
%TO.N,Net-(Q1-B)*%
X99795000Y-58300000D03*
%TD*%
%TO.P,R2,1*%
%TO.N,Net-(J1-CC2)*%
X132925000Y-59500000D03*
%TO.P,R2,2*%
%TO.N,GND*%
X131275000Y-59500000D03*
%TD*%
%TO.P,R1,1*%
%TO.N,Net-(J1-CC1)*%
X133725000Y-69860000D03*
%TO.P,R1,2*%
%TO.N,GND*%
X132075000Y-69860000D03*
%TD*%
D32*
%TO.P,Q2,1,B*%
%TO.N,Net-(Q2-B)*%
X124920000Y-70465000D03*
%TO.P,Q2,2,E*%
%TO.N,/U3_RTS*%
X126820000Y-70465000D03*
%TO.P,Q2,3,C*%
%TO.N,/IO0_NET*%
X125870000Y-68590000D03*
%TD*%
%TO.P,Q1,1,B*%
%TO.N,Net-(Q1-B)*%
X99800000Y-54825000D03*
%TO.P,Q1,2,E*%
%TO.N,/U3_DTR*%
X101700000Y-54825000D03*
%TO.P,Q1,3,C*%
%TO.N,/EN_NET*%
X100750000Y-52950000D03*
%TD*%
D33*
%TO.P,C7,1*%
%TO.N,/EN_NET*%
X98700000Y-50080000D03*
%TO.P,C7,2*%
%TO.N,GND*%
X98700000Y-48530000D03*
%TD*%
%TO.P,C4,1*%
%TO.N,+3V3*%
X104960000Y-50075000D03*
%TO.P,C4,2*%
%TO.N,GND*%
X104960000Y-48525000D03*
%TD*%
D34*
%TO.N,GND*%
X95170000Y-73860000D03*
X119570000Y-49450000D03*
X109620000Y-57540000D03*
X118580000Y-52680000D03*
D35*
X111160000Y-61010000D03*
X112760000Y-53320000D03*
D34*
%TO.N,/cs*%
X127120000Y-61500000D03*
X130910000Y-61330000D03*
%TO.N,/gpio4*%
X126790000Y-63370000D03*
X130170000Y-62230000D03*
%TO.N,/sck*%
X122030000Y-60310000D03*
%TO.N,/miso*%
X120490000Y-60240000D03*
%TO.N,/sda*%
X119580000Y-60030000D03*
%TO.N,/scl*%
X118410000Y-59880000D03*
%TO.N,/mosi*%
X117200000Y-59700000D03*
%TO.N,/gpio12*%
X108815000Y-65380000D03*
%TO.N,/gpio14*%
X109440000Y-64130000D03*
%TO.N,/gpio13*%
X112317897Y-68248938D03*
D35*
%TO.N,+3V3*%
X122540000Y-69450000D03*
X107260000Y-69450000D03*
%TO.N,GND*%
X141540000Y-53270000D03*
X141000000Y-57310000D03*
X111120000Y-68320000D03*
%TO.N,VBUS*%
X133050000Y-67490000D03*
X127585000Y-71725000D03*
%TO.N,+3V3*%
X104560000Y-69450000D03*
D34*
%TO.N,GND*%
X132110000Y-55710000D03*
D35*
%TO.N,+3V3*%
X139320000Y-58290000D03*
D34*
%TO.N,/U3_RTS*%
X126980000Y-57970000D03*
%TO.N,Net-(J1-CC1)*%
X134060000Y-66740000D03*
X134060000Y-68610000D03*
%TO.N,Net-(J1-CC2)*%
X134180000Y-63440000D03*
X133620000Y-61600000D03*
%TO.N,/U3_DTR*%
X104710000Y-67190000D03*
X105590000Y-58030000D03*
X128990000Y-57190000D03*
%TO.N,/U3_RTS*%
X103050000Y-58400000D03*
X126590000Y-50610000D03*
D35*
%TO.N,+3V3*%
X128630000Y-65455000D03*
X110210000Y-49590000D03*
%TD*%
D36*
%TO.N,/IO0_NET*%
X125870000Y-68590000D02*
X125870000Y-66102500D01*
X125870000Y-66102500D02*
X125002500Y-65235000D01*
%TO.N,Net-(Q2-B)*%
X124635000Y-70750000D02*
X124920000Y-70465000D01*
X108070000Y-70750000D02*
X124635000Y-70750000D01*
%TO.N,/cs*%
X125775000Y-60155000D02*
X125002500Y-60155000D01*
X127120000Y-61500000D02*
X125775000Y-60155000D01*
X130910000Y-70820000D02*
X130910000Y-61330000D01*
X132290000Y-72200000D02*
X130910000Y-70820000D01*
X134600000Y-72200000D02*
X132290000Y-72200000D01*
X136610000Y-74210000D02*
X134600000Y-72200000D01*
%TO.N,/gpio4*%
X130001000Y-67206810D02*
X130001000Y-62399000D01*
X128850000Y-69670000D02*
X128850000Y-68357810D01*
X130001000Y-62399000D02*
X130170000Y-62230000D01*
X133390000Y-74210000D02*
X128850000Y-69670000D01*
X134070000Y-74210000D02*
X133390000Y-74210000D01*
X128850000Y-68357810D02*
X130001000Y-67206810D01*
X126195000Y-63965000D02*
X125002500Y-63965000D01*
X126790000Y-63370000D02*
X126195000Y-63965000D01*
X130170000Y-62230000D02*
X130170000Y-62110000D01*
%TO.N,/U3_RTS*%
X126820000Y-69750000D02*
X126820000Y-70465000D01*
X129550000Y-67020000D02*
X126820000Y-69750000D01*
X129550000Y-62540000D02*
X129550000Y-67020000D01*
X126980000Y-59970000D02*
X129550000Y-62540000D01*
X126980000Y-57970000D02*
X126980000Y-59970000D01*
%TO.N,/sck*%
X123455000Y-58885000D02*
X125002500Y-58885000D01*
X122030000Y-60310000D02*
X123455000Y-58885000D01*
D37*
%TO.N,VBUS*%
X127480000Y-71830000D02*
X127585000Y-71725000D01*
X126376600Y-71830000D02*
X127480000Y-71830000D01*
X126349600Y-71830000D02*
X126363100Y-71843500D01*
X126363100Y-71843500D02*
X126376600Y-71830000D01*
X96590000Y-70870000D02*
X97550000Y-71830000D01*
X97550000Y-71830000D02*
X126349600Y-71830000D01*
D36*
%TO.N,Net-(J1-CC1)*%
X134060000Y-69525000D02*
X133725000Y-69860000D01*
X134060000Y-68610000D02*
X134060000Y-69525000D01*
%TO.N,/miso*%
X123115000Y-57615000D02*
X125002500Y-57615000D01*
X120490000Y-60240000D02*
X123115000Y-57615000D01*
%TO.N,/sda*%
X124535000Y-55075000D02*
X125002500Y-55075000D01*
X119580000Y-60030000D02*
X124535000Y-55075000D01*
%TO.N,/scl*%
X118410000Y-56857500D02*
X124002500Y-51265000D01*
X118410000Y-59880000D02*
X118410000Y-56857500D01*
X124002500Y-51265000D02*
X125002500Y-51265000D01*
%TO.N,/mosi*%
X117200000Y-56797500D02*
X124002500Y-49995000D01*
X117200000Y-59700000D02*
X117200000Y-56797500D01*
X124002500Y-49995000D02*
X125002500Y-49995000D01*
%TO.N,/gpio14*%
X107667500Y-64130000D02*
X107502500Y-63965000D01*
X109440000Y-64130000D02*
X107667500Y-64130000D01*
%TO.N,/gpio12*%
X107647500Y-65380000D02*
X107502500Y-65235000D01*
X108815000Y-65380000D02*
X107647500Y-65380000D01*
%TO.N,/gpio13*%
X111807500Y-67738541D02*
X111807500Y-66485000D01*
X112317897Y-68248938D02*
X111807500Y-67738541D01*
D38*
%TO.N,+3V3*%
X107260000Y-69450000D02*
X122540000Y-69450000D01*
X104560000Y-69450000D02*
X103770000Y-69450000D01*
X103770000Y-69450000D02*
X102890000Y-68570000D01*
D37*
%TO.N,VBUS*%
X105540000Y-74490000D02*
X108200000Y-71830000D01*
D38*
%TO.N,+3V3*%
X137370000Y-56800000D02*
X136305000Y-55735000D01*
X136305000Y-55735000D02*
X136305000Y-54790000D01*
X138330000Y-56800000D02*
X137370000Y-56800000D01*
X139320000Y-57790000D02*
X138330000Y-56800000D01*
X139320000Y-58290000D02*
X139320000Y-57790000D01*
D37*
%TO.N,GND*%
X141000000Y-57310000D02*
X139350000Y-55660000D01*
X111120000Y-68320000D02*
X111070000Y-68370000D01*
X110537500Y-67737500D02*
X111120000Y-68320000D01*
X110537500Y-66485000D02*
X110537500Y-67737500D01*
D38*
%TO.N,+3V3*%
X108815000Y-49995000D02*
X107502500Y-49995000D01*
X109220000Y-49590000D02*
X108815000Y-49995000D01*
X110210000Y-49590000D02*
X109220000Y-49590000D01*
X96590000Y-68525000D02*
X94145000Y-66080000D01*
X96590000Y-68570000D02*
X96590000Y-68525000D01*
D37*
%TO.N,VBUS*%
X96540000Y-70920000D02*
X96590000Y-70870000D01*
X94315000Y-70920000D02*
X96540000Y-70920000D01*
X94315000Y-69140000D02*
X94325000Y-69130000D01*
X94315000Y-70920000D02*
X94315000Y-69140000D01*
D36*
%TO.N,/IO0_NET*%
X108785500Y-66385000D02*
X106625000Y-66385000D01*
X106625000Y-66385000D02*
X103255000Y-63015000D01*
X109935500Y-65235000D02*
X108785500Y-66385000D01*
X125002500Y-65235000D02*
X109935500Y-65235000D01*
X103255000Y-63015000D02*
X98082500Y-63015000D01*
X98082500Y-63015000D02*
X92082500Y-63015000D01*
D37*
%TO.N,GND*%
X141030000Y-57340000D02*
X141000000Y-57310000D01*
X141030000Y-60770000D02*
X141030000Y-57340000D01*
X138480000Y-54790000D02*
X139350000Y-55660000D01*
X137855000Y-54790000D02*
X138480000Y-54790000D01*
D36*
X135680000Y-61890000D02*
X134880000Y-61090000D01*
X136275000Y-61890000D02*
X135680000Y-61890000D01*
X135770000Y-60770000D02*
X134590000Y-59590000D01*
X136850000Y-60770000D02*
X135770000Y-60770000D01*
D39*
%TO.N,/D-*%
X137137501Y-65840000D02*
X136275000Y-65840000D01*
X137162501Y-65815000D02*
X137137501Y-65840000D01*
X139380000Y-60700000D02*
X139380000Y-64293554D01*
X135891020Y-57211020D02*
X139380000Y-60700000D01*
X134677388Y-57211020D02*
X135891020Y-57211020D01*
X133907500Y-56441132D02*
X134677388Y-57211020D01*
X139380000Y-64293554D02*
X137858554Y-65815000D01*
X133907500Y-54061251D02*
X133907500Y-56441132D01*
X133932500Y-54036251D02*
X133907500Y-54061251D01*
X133932500Y-53417500D02*
X133932500Y-54036251D01*
%TO.N,/D+*%
X137137501Y-65340000D02*
X136275000Y-65340000D01*
X137162501Y-65365000D02*
X137137501Y-65340000D01*
X138904678Y-64061768D02*
X137601446Y-65365000D01*
X138904678Y-60819976D02*
X138904678Y-64061768D01*
X133457500Y-56627500D02*
X134470000Y-57640000D01*
%TO.N,/D-*%
X137858554Y-65815000D02*
X137162501Y-65815000D01*
%TO.N,/D+*%
X133457500Y-54061251D02*
X133457500Y-56627500D01*
X137601446Y-65365000D02*
X137162501Y-65365000D01*
X133432500Y-54036251D02*
X133457500Y-54061251D01*
X135724702Y-57640000D02*
X138904678Y-60819976D01*
X133432500Y-53417500D02*
X133432500Y-54036251D01*
X134470000Y-57640000D02*
X135724702Y-57640000D01*
D36*
%TO.N,GND*%
X132110000Y-55190000D02*
X132110000Y-55710000D01*
X132932500Y-54367500D02*
X132110000Y-55190000D01*
X132932500Y-53417500D02*
X132932500Y-54367500D01*
X132932500Y-52230000D02*
X133682500Y-51480000D01*
X132932500Y-53417500D02*
X132932500Y-52230000D01*
D38*
%TO.N,+3V3*%
X102890000Y-68570000D02*
X96590000Y-68570000D01*
D36*
%TO.N,Net-(J1-CC1)*%
X134460000Y-66340000D02*
X136275000Y-66340000D01*
X134060000Y-66740000D02*
X134460000Y-66340000D01*
%TO.N,/U3_RTS*%
X126980000Y-57970000D02*
X127060000Y-57890000D01*
%TO.N,Net-(J1-CC2)*%
X134280000Y-63340000D02*
X136275000Y-63340000D01*
X134180000Y-63440000D02*
X134280000Y-63340000D01*
X132925000Y-60905000D02*
X133620000Y-61600000D01*
X132925000Y-59500000D02*
X132925000Y-60905000D01*
D37*
%TO.N,VBUS*%
X133050000Y-67490000D02*
X136275000Y-67490000D01*
X132580000Y-63130000D02*
X132580000Y-67020000D01*
X133020000Y-62690000D02*
X132580000Y-63130000D01*
X132580000Y-67020000D02*
X133050000Y-67490000D01*
X136275000Y-62690000D02*
X133020000Y-62690000D01*
D36*
%TO.N,/U3_DTR*%
X106420000Y-68900000D02*
X104710000Y-67190000D01*
X106420000Y-70750000D02*
X106420000Y-68900000D01*
X104905000Y-58030000D02*
X101700000Y-54825000D01*
X105590000Y-58030000D02*
X104905000Y-58030000D01*
X130821000Y-55359000D02*
X128990000Y-57190000D01*
X130821000Y-52690346D02*
X130821000Y-55359000D01*
X131281346Y-52230000D02*
X130821000Y-52690346D01*
X131745000Y-52230000D02*
X131281346Y-52230000D01*
%TO.N,/IO0_NET*%
X125012500Y-65245000D02*
X125002500Y-65235000D01*
X127190000Y-65245000D02*
X125012500Y-65245000D01*
%TO.N,/U3_RTS*%
X103050000Y-58400000D02*
X101545000Y-58400000D01*
X101545000Y-58400000D02*
X101445000Y-58300000D01*
X126970000Y-50230000D02*
X126590000Y-50610000D01*
X131745000Y-50230000D02*
X126970000Y-50230000D01*
%TO.N,/U3_TX*%
X130810000Y-51230000D02*
X131745000Y-51230000D01*
X130370000Y-52540000D02*
X130370000Y-51670000D01*
X130370000Y-51670000D02*
X130810000Y-51230000D01*
X129940000Y-52970000D02*
X130370000Y-52540000D01*
X129275000Y-54860000D02*
X129940000Y-54195000D01*
X129940000Y-54195000D02*
X129940000Y-52970000D01*
%TO.N,/U3_RX*%
X130545000Y-50730000D02*
X131745000Y-50730000D01*
X129455000Y-51820000D02*
X130545000Y-50730000D01*
%TO.N,/ESP32_RX*%
X126570000Y-53805000D02*
X125002500Y-53805000D01*
X127625000Y-54860000D02*
X126570000Y-53805000D01*
%TO.N,/ESP32_TX*%
X127090000Y-52535000D02*
X125002500Y-52535000D01*
X127805000Y-51820000D02*
X127090000Y-52535000D01*
D37*
%TO.N,VBUS*%
X141901000Y-63489000D02*
X138570000Y-66820000D01*
X142381000Y-63489000D02*
X141901000Y-63489000D01*
D36*
X136769178Y-67490000D02*
X136275000Y-67490000D01*
X137439178Y-66820000D02*
X136769178Y-67490000D01*
X138570000Y-66820000D02*
X137439178Y-66820000D01*
D37*
X142381000Y-57011000D02*
X142381000Y-63489000D01*
X139920000Y-54550000D02*
X142381000Y-57011000D01*
D36*
%TO.N,/D-*%
X135374000Y-65096822D02*
X135374000Y-65583178D01*
X135374000Y-65583178D02*
X135630822Y-65840000D01*
X135630822Y-65840000D02*
X136275000Y-65840000D01*
X135630822Y-64840000D02*
X135374000Y-65096822D01*
X136275000Y-64840000D02*
X135630822Y-64840000D01*
%TO.N,/D+*%
X136920000Y-65340000D02*
X136275000Y-65340000D01*
X137176000Y-64596822D02*
X137176000Y-65084000D01*
X137176000Y-65084000D02*
X136920000Y-65340000D01*
X136919178Y-64340000D02*
X137176000Y-64596822D01*
X136275000Y-64340000D02*
X136919178Y-64340000D01*
%TO.N,Net-(Q1-B)*%
X99800000Y-58295000D02*
X99795000Y-58300000D01*
X99800000Y-54825000D02*
X99800000Y-58295000D01*
%TO.N,/EN_NET*%
X96885000Y-56100000D02*
X96885000Y-50100000D01*
X98680000Y-50100000D02*
X98700000Y-50080000D01*
X96885000Y-50100000D02*
X98680000Y-50100000D01*
D37*
%TO.N,VBUS*%
X139550000Y-54550000D02*
X137240000Y-52240000D01*
X139920000Y-54550000D02*
X139550000Y-54550000D01*
D38*
%TO.N,+3V3*%
X128630000Y-65455000D02*
X127190000Y-66895000D01*
D36*
%TO.N,/EN_NET*%
X102435000Y-51265000D02*
X107502500Y-51265000D01*
X100750000Y-52950000D02*
X102435000Y-51265000D01*
D38*
%TO.N,+3V3*%
X135005000Y-53490000D02*
X134720000Y-53490000D01*
D37*
%TO.N,VBUS*%
X137040000Y-52440000D02*
X135620000Y-52440000D01*
X137240000Y-52240000D02*
X137040000Y-52440000D01*
D36*
%TO.N,/EN_NET*%
X100750000Y-52950000D02*
X100750000Y-50215000D01*
X100750000Y-50215000D02*
X100645000Y-50110000D01*
X100615000Y-50080000D02*
X100645000Y-50110000D01*
X98700000Y-50080000D02*
X100615000Y-50080000D01*
D38*
%TO.N,+3V3*%
X104925000Y-50110000D02*
X104960000Y-50075000D01*
X102295000Y-50110000D02*
X104925000Y-50110000D01*
X105040000Y-49995000D02*
X104960000Y-50075000D01*
X107502500Y-49995000D02*
X105040000Y-49995000D01*
X136305000Y-54790000D02*
X135005000Y-53490000D01*
%TD*%
%TA.AperFunction,Conductor*%
%TO.N,GND*%
G36*
X97149788Y-63660185D02*
G01*
X97182015Y-63690188D01*
X97209775Y-63727270D01*
X97224954Y-63747546D01*
X97229329Y-63750821D01*
X97340164Y-63833793D01*
X97340171Y-63833797D01*
X97475017Y-63884091D01*
X97475016Y-63884091D01*
X97481944Y-63884835D01*
X97534627Y-63890500D01*
X98630372Y-63890499D01*
X98689983Y-63884091D01*
X98824831Y-63833796D01*
X98940046Y-63747546D01*
X98966727Y-63711903D01*
X98982985Y-63690188D01*
X99038919Y-63648318D01*
X99082251Y-63640500D01*
X102944548Y-63640500D01*
X103011587Y-63660185D01*
X103032229Y-63676819D01*
X106226263Y-66870855D01*
X106226267Y-66870858D01*
X106328708Y-66939308D01*
X106328715Y-66939312D01*
X106391939Y-66965500D01*
X106442548Y-66986463D01*
X106462597Y-66990451D01*
X106502966Y-66998481D01*
X106563392Y-67010501D01*
X106563394Y-67010501D01*
X106692721Y-67010501D01*
X106692741Y-67010500D01*
X108847107Y-67010500D01*
X108907529Y-66998481D01*
X108967952Y-66986463D01*
X109018561Y-66965500D01*
X109081786Y-66939312D01*
X109149133Y-66894311D01*
X109184233Y-66870858D01*
X109271358Y-66783733D01*
X109271359Y-66783730D01*
X109375821Y-66679267D01*
X109437143Y-66645785D01*
X109506834Y-66650769D01*
X109562768Y-66692641D01*
X109587184Y-66758106D01*
X109587500Y-66766951D01*
X109587500Y-67282844D01*
X109593901Y-67342372D01*
X109593903Y-67342379D01*
X109644145Y-67477086D01*
X109644149Y-67477093D01*
X109730309Y-67592187D01*
X109730312Y-67592190D01*
X109845406Y-67678350D01*
X109845413Y-67678354D01*
X109980120Y-67728596D01*
X109980127Y-67728598D01*
X110039655Y-67734999D01*
X110039672Y-67735000D01*
X110287500Y-67735000D01*
X110287500Y-66609000D01*
X110307185Y-66541961D01*
X110359989Y-66496206D01*
X110411500Y-66485000D01*
X110663500Y-66485000D01*
X110730539Y-66504685D01*
X110776294Y-66557489D01*
X110787500Y-66609000D01*
X110787500Y-67735000D01*
X111035328Y-67735000D01*
X111035329Y-67734999D01*
X111053485Y-67733047D01*
X111122246Y-67745449D01*
X111173385Y-67793057D01*
X111188364Y-67832145D01*
X111206035Y-67920985D01*
X111206040Y-67921002D01*
X111253185Y-68034822D01*
X111253188Y-68034827D01*
X111280774Y-68076111D01*
X111321642Y-68137274D01*
X111408767Y-68224399D01*
X111408769Y-68224400D01*
X111419036Y-68234667D01*
X111492102Y-68307733D01*
X111525587Y-68369056D01*
X111526038Y-68371223D01*
X111548158Y-68482427D01*
X111549928Y-68488262D01*
X111547513Y-68488994D01*
X111553817Y-68547485D01*
X111522559Y-68609972D01*
X111462479Y-68645640D01*
X111431782Y-68649500D01*
X107900435Y-68649500D01*
X107833396Y-68629815D01*
X107831544Y-68628602D01*
X107733911Y-68563366D01*
X107551839Y-68487950D01*
X107551829Y-68487947D01*
X107358543Y-68449500D01*
X107358541Y-68449500D01*
X107161459Y-68449500D01*
X107161454Y-68449500D01*
X106970092Y-68487564D01*
X106962187Y-68486856D01*
X106954750Y-68489631D01*
X106927883Y-68483787D01*
X106900500Y-68481337D01*
X106892492Y-68476089D01*
X106886477Y-68474781D01*
X106858227Y-68453633D01*
X106858222Y-68453630D01*
X106831547Y-68426956D01*
X106818733Y-68414142D01*
X106818729Y-68414139D01*
X105535793Y-67131203D01*
X105502308Y-67069880D01*
X105501887Y-67067864D01*
X105479737Y-66956503D01*
X105439705Y-66859856D01*
X105419397Y-66810827D01*
X105419390Y-66810814D01*
X105331789Y-66679711D01*
X105331786Y-66679707D01*
X105220292Y-66568213D01*
X105220288Y-66568210D01*
X105089185Y-66480609D01*
X105089172Y-66480602D01*
X104943501Y-66420264D01*
X104943489Y-66420261D01*
X104788845Y-66389500D01*
X104788842Y-66389500D01*
X104631158Y-66389500D01*
X104631155Y-66389500D01*
X104476510Y-66420261D01*
X104476498Y-66420264D01*
X104330827Y-66480602D01*
X104330816Y-66480608D01*
X104287328Y-66509666D01*
X104220650Y-66530543D01*
X104153270Y-66512058D01*
X104122336Y-66484923D01*
X104101113Y-66458895D01*
X104101110Y-66458893D01*
X104101109Y-66458891D01*
X103943407Y-66330302D01*
X103763049Y-66236091D01*
X103763048Y-66236090D01*
X103763045Y-66236089D01*
X103645829Y-66202550D01*
X103567418Y-66180114D01*
X103567415Y-66180113D01*
X103567413Y-66180113D01*
X103501102Y-66174217D01*
X103448037Y-66169500D01*
X103448032Y-66169500D01*
X102331971Y-66169500D01*
X102331965Y-66169500D01*
X102331964Y-66169501D01*
X102320316Y-66170536D01*
X102212584Y-66180113D01*
X102016954Y-66236089D01*
X101952035Y-66270000D01*
X101836593Y-66330302D01*
X101836591Y-66330303D01*
X101836590Y-66330304D01*
X101678890Y-66458890D01*
X101556493Y-66609000D01*
X101550302Y-66616593D01*
X101532450Y-66650769D01*
X101456089Y-66796954D01*
X101415356Y-66939312D01*
X101408300Y-66963975D01*
X101400114Y-66992583D01*
X101400113Y-66992586D01*
X101389500Y-67111966D01*
X101389500Y-67645500D01*
X101369815Y-67712539D01*
X101317011Y-67758294D01*
X101265500Y-67769500D01*
X98055673Y-67769500D01*
X97988634Y-67749815D01*
X97959026Y-67723187D01*
X97837724Y-67572280D01*
X97835510Y-67570500D01*
X97768112Y-67516324D01*
X97728196Y-67458985D01*
X97725616Y-67389163D01*
X97761194Y-67329030D01*
X97768115Y-67323033D01*
X97837366Y-67267367D01*
X97837367Y-67267366D01*
X97956607Y-67119025D01*
X97956609Y-67119022D01*
X98041168Y-66948523D01*
X98087102Y-66763824D01*
X98090000Y-66721096D01*
X98090000Y-66520000D01*
X96714000Y-66520000D01*
X96646961Y-66500315D01*
X96601206Y-66447511D01*
X96590000Y-66396000D01*
X96590000Y-66270000D01*
X96464000Y-66270000D01*
X96396961Y-66250315D01*
X96351206Y-66197511D01*
X96340000Y-66146000D01*
X96340000Y-66020000D01*
X96840000Y-66020000D01*
X98090000Y-66020000D01*
X98090000Y-65818903D01*
X98087102Y-65776175D01*
X98041168Y-65591476D01*
X97956609Y-65420977D01*
X97956607Y-65420974D01*
X97837367Y-65272633D01*
X97837366Y-65272632D01*
X97689025Y-65153392D01*
X97689022Y-65153390D01*
X97518523Y-65068831D01*
X97333824Y-65022897D01*
X97291097Y-65020000D01*
X96840000Y-65020000D01*
X96840000Y-66020000D01*
X96340000Y-66020000D01*
X96340000Y-65020000D01*
X95888903Y-65020000D01*
X95846175Y-65022897D01*
X95661476Y-65068831D01*
X95490977Y-65153390D01*
X95490974Y-65153392D01*
X95342633Y-65272632D01*
X95342632Y-65272633D01*
X95223393Y-65420973D01*
X95209807Y-65448366D01*
X95162384Y-65499677D01*
X95094748Y-65517204D01*
X95028374Y-65495383D01*
X94993184Y-65458368D01*
X94942968Y-65376956D01*
X94823044Y-65257032D01*
X94823040Y-65257029D01*
X94678705Y-65168001D01*
X94678699Y-65167998D01*
X94678697Y-65167997D01*
X94634616Y-65153390D01*
X94517709Y-65114651D01*
X94418346Y-65104500D01*
X93871662Y-65104500D01*
X93871644Y-65104501D01*
X93772292Y-65114650D01*
X93772289Y-65114651D01*
X93611305Y-65167996D01*
X93611294Y-65168001D01*
X93466959Y-65257029D01*
X93466953Y-65257033D01*
X93457324Y-65266663D01*
X93396000Y-65300146D01*
X93326308Y-65295159D01*
X93281965Y-65266660D01*
X93272732Y-65257427D01*
X93272728Y-65257424D01*
X93128492Y-65168457D01*
X93128481Y-65168452D01*
X92967606Y-65115144D01*
X92868322Y-65105000D01*
X92845000Y-65105000D01*
X92845000Y-67054999D01*
X92868308Y-67054999D01*
X92868322Y-67054998D01*
X92967607Y-67044855D01*
X93128481Y-66991547D01*
X93128492Y-66991542D01*
X93272731Y-66902573D01*
X93281959Y-66893345D01*
X93343279Y-66859856D01*
X93412971Y-66864835D01*
X93457327Y-66893339D01*
X93466955Y-66902967D01*
X93466959Y-66902970D01*
X93611294Y-66991998D01*
X93611297Y-66991999D01*
X93611303Y-66992003D01*
X93772292Y-67045349D01*
X93871655Y-67055500D01*
X93937058Y-67055499D01*
X94004097Y-67075183D01*
X94024740Y-67091818D01*
X94925783Y-67992861D01*
X94959268Y-68054184D01*
X94954284Y-68123876D01*
X94912412Y-68179809D01*
X94846948Y-68204226D01*
X94799098Y-68198248D01*
X94697709Y-68164651D01*
X94598346Y-68154500D01*
X94051662Y-68154500D01*
X94051644Y-68154501D01*
X93952292Y-68164650D01*
X93952289Y-68164651D01*
X93791305Y-68217996D01*
X93791294Y-68218001D01*
X93646959Y-68307029D01*
X93646953Y-68307033D01*
X93637324Y-68316663D01*
X93576000Y-68350146D01*
X93506308Y-68345159D01*
X93461965Y-68316660D01*
X93452732Y-68307427D01*
X93452728Y-68307424D01*
X93308492Y-68218457D01*
X93308481Y-68218452D01*
X93147606Y-68165144D01*
X93048322Y-68155000D01*
X93025000Y-68155000D01*
X93025000Y-70173638D01*
X93015000Y-70207693D01*
X93015000Y-71894999D01*
X93038308Y-71894999D01*
X93038322Y-71894998D01*
X93137607Y-71884855D01*
X93298481Y-71831547D01*
X93298492Y-71831542D01*
X93442731Y-71742573D01*
X93451959Y-71733345D01*
X93513279Y-71699856D01*
X93582971Y-71704835D01*
X93627327Y-71733339D01*
X93636955Y-71742967D01*
X93636959Y-71742970D01*
X93781294Y-71831998D01*
X93781297Y-71831999D01*
X93781303Y-71832003D01*
X93942292Y-71885349D01*
X94041655Y-71895500D01*
X94588344Y-71895499D01*
X94588352Y-71895498D01*
X94588355Y-71895498D01*
X94642760Y-71889940D01*
X94687708Y-71885349D01*
X94848697Y-71832003D01*
X94993044Y-71742968D01*
X95029193Y-71706819D01*
X95056120Y-71692115D01*
X95081939Y-71675523D01*
X95088139Y-71674631D01*
X95090516Y-71673334D01*
X95116874Y-71670500D01*
X95124327Y-71670500D01*
X95191366Y-71690185D01*
X95220974Y-71716813D01*
X95342277Y-71867721D01*
X95342278Y-71867722D01*
X95490704Y-71987030D01*
X95490707Y-71987032D01*
X95661302Y-72071639D01*
X95661303Y-72071639D01*
X95661307Y-72071641D01*
X95846111Y-72117600D01*
X95888877Y-72120500D01*
X96727769Y-72120499D01*
X96794808Y-72140183D01*
X96815450Y-72156818D01*
X97071586Y-72412954D01*
X97105214Y-72435422D01*
X97122030Y-72446658D01*
X97194505Y-72495084D01*
X97331087Y-72551658D01*
X97331091Y-72551658D01*
X97331092Y-72551659D01*
X97476079Y-72580500D01*
X97476082Y-72580500D01*
X97476083Y-72580500D01*
X97623917Y-72580500D01*
X106088770Y-72580500D01*
X106155809Y-72600185D01*
X106201564Y-72652989D01*
X106211508Y-72722147D01*
X106182483Y-72785703D01*
X106176455Y-72792175D01*
X106012620Y-72956011D01*
X105848807Y-73119824D01*
X105787484Y-73153309D01*
X105741728Y-73154616D01*
X105646292Y-73139500D01*
X105646287Y-73139500D01*
X105433713Y-73139500D01*
X105385042Y-73147208D01*
X105223760Y-73172753D01*
X105021585Y-73238444D01*
X104832179Y-73334951D01*
X104660213Y-73459890D01*
X104509890Y-73610213D01*
X104384949Y-73782182D01*
X104380202Y-73791499D01*
X104332227Y-73842293D01*
X104264405Y-73859087D01*
X104198271Y-73836548D01*
X104159234Y-73791495D01*
X104154626Y-73782452D01*
X104115270Y-73728282D01*
X104115269Y-73728282D01*
X103482962Y-74360590D01*
X103465925Y-74297007D01*
X103400099Y-74182993D01*
X103307007Y-74089901D01*
X103192993Y-74024075D01*
X103129409Y-74007037D01*
X103761716Y-73374728D01*
X103707550Y-73335375D01*
X103518217Y-73238904D01*
X103316129Y-73173242D01*
X103106246Y-73140000D01*
X102893754Y-73140000D01*
X102683872Y-73173242D01*
X102683869Y-73173242D01*
X102481782Y-73238904D01*
X102292439Y-73335380D01*
X102238282Y-73374727D01*
X102238282Y-73374728D01*
X102870591Y-74007037D01*
X102807007Y-74024075D01*
X102692993Y-74089901D01*
X102599901Y-74182993D01*
X102534075Y-74297007D01*
X102517037Y-74360591D01*
X101846818Y-73690372D01*
X101813333Y-73629049D01*
X101813330Y-73629036D01*
X101810499Y-73616015D01*
X101810499Y-73592128D01*
X101804091Y-73532517D01*
X101775926Y-73457002D01*
X101753798Y-73397673D01*
X101753793Y-73397664D01*
X101667547Y-73282455D01*
X101667544Y-73282452D01*
X101552335Y-73196206D01*
X101552328Y-73196202D01*
X101417482Y-73145908D01*
X101417483Y-73145908D01*
X101357883Y-73139501D01*
X101357881Y-73139500D01*
X101357873Y-73139500D01*
X101357864Y-73139500D01*
X99562129Y-73139500D01*
X99562123Y-73139501D01*
X99502516Y-73145908D01*
X99367671Y-73196202D01*
X99367664Y-73196206D01*
X99252455Y-73282452D01*
X99252452Y-73282455D01*
X99166206Y-73397664D01*
X99166202Y-73397671D01*
X99115908Y-73532517D01*
X99109501Y-73592116D01*
X99109500Y-73592135D01*
X99109500Y-75387870D01*
X99109501Y-75387876D01*
X99115908Y-75447483D01*
X99166202Y-75582328D01*
X99166204Y-75582331D01*
X99180321Y-75601189D01*
X99204738Y-75666654D01*
X99189886Y-75734927D01*
X99140481Y-75784332D01*
X99081054Y-75799500D01*
X91214500Y-75799500D01*
X91147461Y-75779815D01*
X91101706Y-75727011D01*
X91090500Y-75675500D01*
X91090500Y-71218322D01*
X91815001Y-71218322D01*
X91825144Y-71317607D01*
X91878452Y-71478481D01*
X91878457Y-71478492D01*
X91967424Y-71622728D01*
X91967427Y-71622732D01*
X92087267Y-71742572D01*
X92087271Y-71742575D01*
X92231507Y-71831542D01*
X92231518Y-71831547D01*
X92392393Y-71884855D01*
X92491683Y-71894999D01*
X92515000Y-71894998D01*
X92515000Y-71170000D01*
X91815001Y-71170000D01*
X91815001Y-71218322D01*
X91090500Y-71218322D01*
X91090500Y-70621677D01*
X91815000Y-70621677D01*
X91815000Y-70670000D01*
X92515000Y-70670000D01*
X92515000Y-69876362D01*
X92525000Y-69842306D01*
X92525000Y-69380000D01*
X91825001Y-69380000D01*
X91825001Y-69428322D01*
X91835144Y-69527607D01*
X91888452Y-69688481D01*
X91888457Y-69688492D01*
X91977424Y-69832728D01*
X91977427Y-69832732D01*
X92077013Y-69932318D01*
X92110498Y-69993641D01*
X92105514Y-70063333D01*
X92077014Y-70107679D01*
X91967427Y-70217267D01*
X91967424Y-70217271D01*
X91878457Y-70361507D01*
X91878452Y-70361518D01*
X91825144Y-70522393D01*
X91815000Y-70621677D01*
X91090500Y-70621677D01*
X91090500Y-68831677D01*
X91825000Y-68831677D01*
X91825000Y-68880000D01*
X92525000Y-68880000D01*
X92525000Y-68154999D01*
X92501693Y-68155000D01*
X92501674Y-68155001D01*
X92402392Y-68165144D01*
X92241518Y-68218452D01*
X92241507Y-68218457D01*
X92097271Y-68307424D01*
X92097267Y-68307427D01*
X91977427Y-68427267D01*
X91977424Y-68427271D01*
X91888457Y-68571507D01*
X91888452Y-68571518D01*
X91835144Y-68732393D01*
X91825000Y-68831677D01*
X91090500Y-68831677D01*
X91090500Y-66378322D01*
X91645001Y-66378322D01*
X91655144Y-66477607D01*
X91708452Y-66638481D01*
X91708457Y-66638492D01*
X91797424Y-66782728D01*
X91797427Y-66782732D01*
X91917267Y-66902572D01*
X91917271Y-66902575D01*
X92061507Y-66991542D01*
X92061518Y-66991547D01*
X92222393Y-67044855D01*
X92321683Y-67054999D01*
X92345000Y-67054998D01*
X92345000Y-66330000D01*
X91645001Y-66330000D01*
X91645001Y-66378322D01*
X91090500Y-66378322D01*
X91090500Y-65781677D01*
X91645000Y-65781677D01*
X91645000Y-65830000D01*
X92345000Y-65830000D01*
X92345000Y-65104999D01*
X92321693Y-65105000D01*
X92321674Y-65105001D01*
X92222392Y-65115144D01*
X92061518Y-65168452D01*
X92061507Y-65168457D01*
X91917271Y-65257424D01*
X91917267Y-65257427D01*
X91797427Y-65377267D01*
X91797424Y-65377271D01*
X91708457Y-65521507D01*
X91708452Y-65521518D01*
X91655144Y-65682393D01*
X91645000Y-65781677D01*
X91090500Y-65781677D01*
X91090500Y-63894616D01*
X91110185Y-63827577D01*
X91162989Y-63781822D01*
X91232147Y-63771878D01*
X91288811Y-63795350D01*
X91340164Y-63833793D01*
X91340171Y-63833797D01*
X91475017Y-63884091D01*
X91475016Y-63884091D01*
X91481944Y-63884835D01*
X91534627Y-63890500D01*
X92630372Y-63890499D01*
X92689983Y-63884091D01*
X92824831Y-63833796D01*
X92940046Y-63747546D01*
X92966727Y-63711903D01*
X92982985Y-63690188D01*
X93038919Y-63648318D01*
X93082251Y-63640500D01*
X97082749Y-63640500D01*
X97149788Y-63660185D01*
G37*
%TD.AperFunction*%
%TA.AperFunction,Conductor*%
G36*
X102534075Y-74682993D02*
G01*
X102599901Y-74797007D01*
X102692993Y-74890099D01*
X102807007Y-74955925D01*
X102870590Y-74972962D01*
X102238282Y-75605269D01*
X102242768Y-75662259D01*
X102242264Y-75662298D01*
X102245515Y-75700119D01*
X102212912Y-75761916D01*
X102152075Y-75796276D01*
X102123983Y-75799500D01*
X101838946Y-75799500D01*
X101771907Y-75779815D01*
X101726152Y-75727011D01*
X101716208Y-75657853D01*
X101739679Y-75601189D01*
X101744838Y-75594297D01*
X101753796Y-75582331D01*
X101804091Y-75447483D01*
X101810500Y-75387873D01*
X101810499Y-75377312D01*
X101830179Y-75310275D01*
X101846818Y-75289626D01*
X102517037Y-74619408D01*
X102534075Y-74682993D01*
G37*
%TD.AperFunction*%
%TA.AperFunction,Conductor*%
G36*
X104115270Y-75251717D02*
G01*
X104115270Y-75251716D01*
X104154622Y-75197555D01*
X104159232Y-75188507D01*
X104207205Y-75137709D01*
X104275025Y-75120912D01*
X104341161Y-75143447D01*
X104380204Y-75188504D01*
X104384949Y-75197817D01*
X104509890Y-75369786D01*
X104509896Y-75369792D01*
X104660208Y-75520104D01*
X104715807Y-75560499D01*
X104736016Y-75575181D01*
X104778682Y-75630511D01*
X104784661Y-75700124D01*
X104752056Y-75761920D01*
X104691217Y-75796277D01*
X104663131Y-75799500D01*
X103876016Y-75799500D01*
X103808977Y-75779815D01*
X103763222Y-75727011D01*
X103753278Y-75657853D01*
X103758474Y-75646474D01*
X103761717Y-75605270D01*
X103129408Y-74972962D01*
X103192993Y-74955925D01*
X103307007Y-74890099D01*
X103400099Y-74797007D01*
X103465925Y-74682993D01*
X103482962Y-74619409D01*
X104115270Y-75251717D01*
G37*
%TD.AperFunction*%
%TA.AperFunction,Conductor*%
G36*
X132142977Y-60199483D02*
G01*
X132187326Y-60227983D01*
X132263182Y-60303839D01*
X132296666Y-60365160D01*
X132299500Y-60391519D01*
X132299500Y-60966606D01*
X132314198Y-61040499D01*
X132323537Y-61087453D01*
X132327284Y-61096498D01*
X132331013Y-61105500D01*
X132370688Y-61201286D01*
X132404012Y-61251158D01*
X132439142Y-61303733D01*
X132526267Y-61390858D01*
X132526268Y-61390858D01*
X132533335Y-61397925D01*
X132533334Y-61397925D01*
X132533338Y-61397928D01*
X132794205Y-61658795D01*
X132803267Y-61675392D01*
X132816400Y-61689002D01*
X132826804Y-61718496D01*
X132827690Y-61720118D01*
X132828141Y-61722285D01*
X132851446Y-61839450D01*
X132845219Y-61909042D01*
X132802355Y-61964219D01*
X132777282Y-61978202D01*
X132664508Y-62024914D01*
X132629368Y-62048394D01*
X132541582Y-62107049D01*
X132541581Y-62107050D01*
X131997052Y-62651578D01*
X131997049Y-62651581D01*
X131952193Y-62718713D01*
X131952194Y-62718714D01*
X131914914Y-62774508D01*
X131858343Y-62911082D01*
X131858340Y-62911092D01*
X131829500Y-63056079D01*
X131829500Y-63056082D01*
X131829500Y-67093918D01*
X131829500Y-67093920D01*
X131829499Y-67093920D01*
X131858340Y-67238907D01*
X131858343Y-67238917D01*
X131914913Y-67375490D01*
X131914915Y-67375493D01*
X131924117Y-67389266D01*
X131924116Y-67389266D01*
X131997044Y-67498411D01*
X131997050Y-67498418D01*
X132014010Y-67515378D01*
X132047495Y-67576701D01*
X132048832Y-67585188D01*
X132087947Y-67781829D01*
X132087950Y-67781839D01*
X132163364Y-67963907D01*
X132163371Y-67963920D01*
X132272860Y-68127781D01*
X132272863Y-68127785D01*
X132412214Y-68267136D01*
X132412218Y-68267139D01*
X132576079Y-68376628D01*
X132576092Y-68376635D01*
X132749416Y-68448427D01*
X132758165Y-68452051D01*
X132758169Y-68452051D01*
X132758170Y-68452052D01*
X132951456Y-68490500D01*
X133135500Y-68490500D01*
X133136783Y-68490876D01*
X133138073Y-68490527D01*
X133170215Y-68500693D01*
X133202539Y-68510185D01*
X133203413Y-68511194D01*
X133204690Y-68511598D01*
X133226252Y-68537551D01*
X133248294Y-68562989D01*
X133248761Y-68564645D01*
X133249339Y-68565340D01*
X133250379Y-68570372D01*
X133258578Y-68599404D01*
X133259500Y-68606921D01*
X133259500Y-68688842D01*
X133285709Y-68820603D01*
X133286270Y-68825176D01*
X133281301Y-68855284D01*
X133278582Y-68885672D01*
X133275666Y-68889424D01*
X133274893Y-68894113D01*
X133254440Y-68916749D01*
X133235719Y-68940850D01*
X133228134Y-68945864D01*
X133228052Y-68945956D01*
X133227957Y-68945981D01*
X133227343Y-68946388D01*
X133089814Y-69029528D01*
X133089810Y-69029531D01*
X132987327Y-69132015D01*
X132926004Y-69165500D01*
X132856312Y-69160516D01*
X132811965Y-69132015D01*
X132709877Y-69029927D01*
X132564395Y-68941980D01*
X132564396Y-68941980D01*
X132402105Y-68891409D01*
X132402106Y-68891409D01*
X132331572Y-68885000D01*
X132325000Y-68885000D01*
X132325000Y-70834999D01*
X132331581Y-70834999D01*
X132402102Y-70828591D01*
X132402107Y-70828590D01*
X132564396Y-70778018D01*
X132709877Y-70690072D01*
X132709878Y-70690071D01*
X132811963Y-70587985D01*
X132873286Y-70554499D01*
X132942977Y-70559483D01*
X132987326Y-70587984D01*
X133089811Y-70690469D01*
X133089813Y-70690470D01*
X133089815Y-70690472D01*
X133235394Y-70778478D01*
X133397804Y-70829086D01*
X133468384Y-70835500D01*
X133468387Y-70835500D01*
X133981613Y-70835500D01*
X133981616Y-70835500D01*
X134052196Y-70829086D01*
X134214606Y-70778478D01*
X134360185Y-70690472D01*
X134480472Y-70570185D01*
X134568478Y-70424606D01*
X134619086Y-70262196D01*
X134625500Y-70191616D01*
X134625500Y-69818939D01*
X134625897Y-69816444D01*
X134625558Y-69815141D01*
X134627680Y-69805262D01*
X134631649Y-69780376D01*
X134633124Y-69775867D01*
X134647221Y-69741835D01*
X134661463Y-69707452D01*
X134669239Y-69668359D01*
X134685501Y-69586606D01*
X134685501Y-69463393D01*
X134685501Y-69458283D01*
X134685500Y-69458257D01*
X134685500Y-69152350D01*
X134705185Y-69085311D01*
X134706398Y-69083459D01*
X134742167Y-69029927D01*
X134769394Y-68989179D01*
X134829737Y-68843497D01*
X134860500Y-68688842D01*
X134860500Y-68540001D01*
X135202704Y-68540001D01*
X135202899Y-68542486D01*
X135248718Y-68700198D01*
X135332314Y-68841552D01*
X135332321Y-68841561D01*
X135359111Y-68868351D01*
X135392596Y-68929674D01*
X135387612Y-68999366D01*
X135385991Y-69003484D01*
X135338430Y-69118307D01*
X135338430Y-69118309D01*
X135330138Y-69160000D01*
X136025000Y-69160000D01*
X136025000Y-68540000D01*
X135202705Y-68540000D01*
X135202704Y-68540001D01*
X134860500Y-68540001D01*
X134860500Y-68531158D01*
X134858250Y-68519846D01*
X134858250Y-68519843D01*
X134832162Y-68388692D01*
X134838389Y-68319100D01*
X134881252Y-68263923D01*
X134947142Y-68240678D01*
X134953779Y-68240500D01*
X135567672Y-68240500D01*
X135602267Y-68245424D01*
X135747426Y-68287597D01*
X135747429Y-68287597D01*
X135747431Y-68287598D01*
X135784306Y-68290500D01*
X135784314Y-68290500D01*
X136401000Y-68290500D01*
X136468039Y-68310185D01*
X136513794Y-68362989D01*
X136525000Y-68414500D01*
X136525000Y-69110000D01*
X136260504Y-69110000D01*
X136184204Y-69130444D01*
X136115795Y-69169940D01*
X136059940Y-69225795D01*
X136020444Y-69294204D01*
X136000000Y-69370504D01*
X136000000Y-69449496D01*
X136020444Y-69525796D01*
X136059940Y-69594205D01*
X136115795Y-69650060D01*
X136133012Y-69660000D01*
X135330138Y-69660000D01*
X135338430Y-69701690D01*
X135338430Y-69701692D01*
X135413807Y-69883671D01*
X135413814Y-69883684D01*
X135523248Y-70047462D01*
X135523251Y-70047466D01*
X135662533Y-70186748D01*
X135662537Y-70186751D01*
X135826315Y-70296185D01*
X135826328Y-70296192D01*
X136008306Y-70371569D01*
X136008318Y-70371572D01*
X136201504Y-70409999D01*
X136201508Y-70410000D01*
X136600000Y-70410000D01*
X136600000Y-69710000D01*
X137100000Y-69710000D01*
X137100000Y-70410000D01*
X137498492Y-70410000D01*
X137498495Y-70409999D01*
X137691681Y-70371572D01*
X137691693Y-70371569D01*
X137873671Y-70296192D01*
X137873684Y-70296185D01*
X138037462Y-70186751D01*
X138037466Y-70186748D01*
X138176748Y-70047466D01*
X138176751Y-70047462D01*
X138286185Y-69883684D01*
X138286192Y-69883671D01*
X138361569Y-69701692D01*
X138361569Y-69701690D01*
X138369862Y-69660000D01*
X137566988Y-69660000D01*
X137584205Y-69650060D01*
X137640060Y-69594205D01*
X137679556Y-69525796D01*
X137700000Y-69449496D01*
X137700000Y-69370504D01*
X137679556Y-69294204D01*
X137640060Y-69225795D01*
X137584205Y-69169940D01*
X137566988Y-69160000D01*
X138369862Y-69160000D01*
X139660138Y-69160000D01*
X140463012Y-69160000D01*
X140445795Y-69169940D01*
X140389940Y-69225795D01*
X140350444Y-69294204D01*
X140330000Y-69370504D01*
X140330000Y-69449496D01*
X140350444Y-69525796D01*
X140389940Y-69594205D01*
X140445795Y-69650060D01*
X140463012Y-69660000D01*
X139660138Y-69660000D01*
X139668430Y-69701690D01*
X139668430Y-69701692D01*
X139743807Y-69883671D01*
X139743814Y-69883684D01*
X139853248Y-70047462D01*
X139853251Y-70047466D01*
X139992533Y-70186748D01*
X139992537Y-70186751D01*
X140156315Y-70296185D01*
X140156328Y-70296192D01*
X140338306Y-70371569D01*
X140338318Y-70371572D01*
X140531504Y-70409999D01*
X140531508Y-70410000D01*
X140780000Y-70410000D01*
X140780000Y-69710000D01*
X141280000Y-69710000D01*
X141280000Y-70410000D01*
X141528492Y-70410000D01*
X141528495Y-70409999D01*
X141721681Y-70371572D01*
X141721693Y-70371569D01*
X141903671Y-70296192D01*
X141903684Y-70296185D01*
X142067462Y-70186751D01*
X142067466Y-70186748D01*
X142206748Y-70047466D01*
X142206751Y-70047462D01*
X142316185Y-69883684D01*
X142316192Y-69883671D01*
X142391569Y-69701692D01*
X142391569Y-69701690D01*
X142399862Y-69660000D01*
X141596988Y-69660000D01*
X141614205Y-69650060D01*
X141670060Y-69594205D01*
X141709556Y-69525796D01*
X141730000Y-69449496D01*
X141730000Y-69370504D01*
X141709556Y-69294204D01*
X141670060Y-69225795D01*
X141614205Y-69169940D01*
X141596988Y-69160000D01*
X142399862Y-69160000D01*
X142391569Y-69118309D01*
X142391569Y-69118307D01*
X142316192Y-68936328D01*
X142316185Y-68936315D01*
X142206751Y-68772537D01*
X142206748Y-68772533D01*
X142067466Y-68633251D01*
X142067462Y-68633248D01*
X141903684Y-68523814D01*
X141903671Y-68523807D01*
X141721693Y-68448430D01*
X141721681Y-68448427D01*
X141528495Y-68410000D01*
X141280000Y-68410000D01*
X141280000Y-69110000D01*
X140780000Y-69110000D01*
X140780000Y-68410000D01*
X140531504Y-68410000D01*
X140338318Y-68448427D01*
X140338306Y-68448430D01*
X140156328Y-68523807D01*
X140156315Y-68523814D01*
X139992537Y-68633248D01*
X139992533Y-68633251D01*
X139853251Y-68772533D01*
X139853248Y-68772537D01*
X139743814Y-68936315D01*
X139743807Y-68936328D01*
X139668430Y-69118307D01*
X139668430Y-69118309D01*
X139660138Y-69160000D01*
X138369862Y-69160000D01*
X138361569Y-69118309D01*
X138361569Y-69118307D01*
X138286192Y-68936328D01*
X138286185Y-68936315D01*
X138176751Y-68772537D01*
X138176748Y-68772533D01*
X138037466Y-68633251D01*
X138037462Y-68633248D01*
X137873684Y-68523814D01*
X137873674Y-68523809D01*
X137795801Y-68491553D01*
X137741398Y-68447712D01*
X137719333Y-68381418D01*
X137736612Y-68313718D01*
X137749665Y-68296915D01*
X137749554Y-68296830D01*
X137754492Y-68290392D01*
X137754501Y-68290384D01*
X137821051Y-68175116D01*
X137855500Y-68046550D01*
X137855500Y-67913450D01*
X137821051Y-67784884D01*
X137754501Y-67669616D01*
X137742066Y-67657181D01*
X137708581Y-67595858D01*
X137713565Y-67526166D01*
X137755437Y-67470233D01*
X137820901Y-67445816D01*
X137829747Y-67445500D01*
X138117648Y-67445500D01*
X138184687Y-67465185D01*
X138186526Y-67466389D01*
X138214506Y-67485084D01*
X138351088Y-67541658D01*
X138351092Y-67541658D01*
X138351093Y-67541659D01*
X138496080Y-67570500D01*
X138496083Y-67570500D01*
X138643919Y-67570500D01*
X138742616Y-67550867D01*
X138788912Y-67541658D01*
X138925494Y-67485084D01*
X139048416Y-67402952D01*
X142175548Y-64275818D01*
X142236871Y-64242334D01*
X142263229Y-64239500D01*
X142454920Y-64239500D01*
X142552462Y-64220096D01*
X142599913Y-64210658D01*
X142608044Y-64207289D01*
X142677512Y-64199818D01*
X142739992Y-64231091D01*
X142775647Y-64291179D01*
X142779500Y-64321849D01*
X142779500Y-75675500D01*
X142759815Y-75742539D01*
X142707011Y-75788294D01*
X142655500Y-75799500D01*
X137592901Y-75799500D01*
X137525862Y-75779815D01*
X137480107Y-75727011D01*
X137470163Y-75657853D01*
X137499188Y-75594297D01*
X137557966Y-75556523D01*
X137564384Y-75554824D01*
X137567479Y-75554092D01*
X137567481Y-75554091D01*
X137567483Y-75554091D01*
X137702331Y-75503796D01*
X137817546Y-75417546D01*
X137903796Y-75302331D01*
X137954091Y-75167483D01*
X137960500Y-75107873D01*
X137960499Y-73312128D01*
X137954091Y-73252517D01*
X137933088Y-73196206D01*
X137903797Y-73117671D01*
X137903793Y-73117664D01*
X137817547Y-73002455D01*
X137817544Y-73002452D01*
X137702335Y-72916206D01*
X137702328Y-72916202D01*
X137567482Y-72865908D01*
X137567483Y-72865908D01*
X137507883Y-72859501D01*
X137507881Y-72859500D01*
X137507873Y-72859500D01*
X137507865Y-72859500D01*
X136195452Y-72859500D01*
X136128413Y-72839815D01*
X136107771Y-72823181D01*
X135093150Y-71808560D01*
X135085860Y-71801270D01*
X135085858Y-71801267D01*
X134998733Y-71714142D01*
X134947509Y-71679915D01*
X134896286Y-71645688D01*
X134896283Y-71645686D01*
X134896280Y-71645685D01*
X134822857Y-71615273D01*
X134822854Y-71615272D01*
X134815792Y-71612347D01*
X134782452Y-71598537D01*
X134714817Y-71585084D01*
X134710369Y-71584199D01*
X134710361Y-71584197D01*
X134661611Y-71574500D01*
X134661607Y-71574500D01*
X134661606Y-71574500D01*
X132600453Y-71574500D01*
X132533414Y-71554815D01*
X132512772Y-71538181D01*
X131861319Y-70886728D01*
X131827834Y-70825405D01*
X131825000Y-70799047D01*
X131825000Y-68885000D01*
X131824999Y-68884999D01*
X131818436Y-68885000D01*
X131818417Y-68885001D01*
X131747897Y-68891408D01*
X131747894Y-68891408D01*
X131696389Y-68907458D01*
X131626529Y-68908608D01*
X131567137Y-68871807D01*
X131537069Y-68808738D01*
X131535500Y-68789072D01*
X131535500Y-61872350D01*
X131555185Y-61805311D01*
X131556398Y-61803459D01*
X131564517Y-61791308D01*
X131619394Y-61709179D01*
X131679737Y-61563497D01*
X131710500Y-61408842D01*
X131710500Y-61251158D01*
X131710500Y-61251155D01*
X131710499Y-61251153D01*
X131704467Y-61220827D01*
X131679737Y-61096503D01*
X131647796Y-61019390D01*
X131619397Y-60950827D01*
X131619390Y-60950814D01*
X131531789Y-60819711D01*
X131531786Y-60819707D01*
X131420291Y-60708212D01*
X131411146Y-60702102D01*
X131366341Y-60648490D01*
X131357633Y-60579165D01*
X131387787Y-60516137D01*
X131447229Y-60479418D01*
X131480036Y-60474999D01*
X131531581Y-60474999D01*
X131602102Y-60468591D01*
X131602107Y-60468590D01*
X131764396Y-60418018D01*
X131909877Y-60330072D01*
X131909878Y-60330071D01*
X132011963Y-60227985D01*
X132073286Y-60194499D01*
X132142977Y-60199483D01*
G37*
%TD.AperFunction*%
%TA.AperFunction,Conductor*%
G36*
X97718902Y-47910185D02*
G01*
X97764657Y-47962989D01*
X97774601Y-48032147D01*
X97769569Y-48053503D01*
X97735144Y-48157391D01*
X97725000Y-48256677D01*
X97725000Y-48280000D01*
X99674999Y-48280000D01*
X99674999Y-48256692D01*
X99674998Y-48256677D01*
X99664855Y-48157391D01*
X99630431Y-48053503D01*
X99628029Y-47983675D01*
X99663761Y-47923633D01*
X99726282Y-47892441D01*
X99748137Y-47890500D01*
X103910207Y-47890500D01*
X103977246Y-47910185D01*
X104023001Y-47962989D01*
X104032945Y-48032147D01*
X104027913Y-48053504D01*
X103995144Y-48152393D01*
X103985000Y-48251677D01*
X103985000Y-48275000D01*
X105934999Y-48275000D01*
X105934999Y-48251692D01*
X105934998Y-48251677D01*
X105924855Y-48152392D01*
X105892087Y-48053504D01*
X105891107Y-48025039D01*
X105887055Y-47996853D01*
X105889922Y-47990574D01*
X105889685Y-47983676D01*
X105904248Y-47959204D01*
X105916080Y-47933297D01*
X105921887Y-47929564D01*
X105925417Y-47923634D01*
X105950899Y-47910920D01*
X105974858Y-47895523D01*
X105984553Y-47894128D01*
X105987937Y-47892441D01*
X106009793Y-47890500D01*
X106183669Y-47890500D01*
X106250708Y-47910185D01*
X106296463Y-47962989D01*
X106306407Y-48032147D01*
X106299851Y-48057833D01*
X106258903Y-48167620D01*
X106258901Y-48167627D01*
X106252500Y-48227155D01*
X106252500Y-48475000D01*
X108752500Y-48475000D01*
X108752500Y-48227172D01*
X108752499Y-48227155D01*
X108746098Y-48167627D01*
X108746096Y-48167620D01*
X108705149Y-48057833D01*
X108700165Y-47988141D01*
X108733650Y-47926818D01*
X108794974Y-47893334D01*
X108821331Y-47890500D01*
X123683669Y-47890500D01*
X123750708Y-47910185D01*
X123796463Y-47962989D01*
X123806407Y-48032147D01*
X123799851Y-48057833D01*
X123758903Y-48167620D01*
X123758901Y-48167627D01*
X123752500Y-48227155D01*
X123752500Y-48475000D01*
X126252500Y-48475000D01*
X126252500Y-48227172D01*
X126252499Y-48227155D01*
X126246098Y-48167627D01*
X126246096Y-48167620D01*
X126205149Y-48057833D01*
X126200165Y-47988141D01*
X126233650Y-47926818D01*
X126294974Y-47893334D01*
X126321331Y-47890500D01*
X142655500Y-47890500D01*
X142722539Y-47910185D01*
X142768294Y-47962989D01*
X142779500Y-48014500D01*
X142779500Y-56048769D01*
X142759815Y-56115808D01*
X142707011Y-56161563D01*
X142637853Y-56171507D01*
X142574297Y-56142482D01*
X142567819Y-56136450D01*
X140398420Y-53967051D01*
X140398387Y-53967029D01*
X140296145Y-53898714D01*
X140296145Y-53898713D01*
X140275495Y-53884916D01*
X140275490Y-53884913D01*
X140138917Y-53828343D01*
X140138907Y-53828340D01*
X139993920Y-53799500D01*
X139993918Y-53799500D01*
X139912229Y-53799500D01*
X139845190Y-53779815D01*
X139824548Y-53763181D01*
X139365987Y-53304619D01*
X139332502Y-53243296D01*
X139337486Y-53173604D01*
X139379358Y-53117671D01*
X139388572Y-53111399D01*
X139467731Y-53062573D01*
X139587572Y-52942732D01*
X139587575Y-52942728D01*
X139676542Y-52798492D01*
X139676547Y-52798481D01*
X139729855Y-52637606D01*
X139739999Y-52538322D01*
X139740000Y-52538309D01*
X139740000Y-52490000D01*
X138914000Y-52490000D01*
X138846961Y-52470315D01*
X138801206Y-52417511D01*
X138790000Y-52366000D01*
X138790000Y-52240000D01*
X138664000Y-52240000D01*
X138596961Y-52220315D01*
X138551206Y-52167511D01*
X138540000Y-52116000D01*
X138540000Y-51990000D01*
X139040000Y-51990000D01*
X139739999Y-51990000D01*
X139739999Y-51941692D01*
X139739998Y-51941677D01*
X139729855Y-51842392D01*
X139676547Y-51681518D01*
X139676542Y-51681507D01*
X139587575Y-51537271D01*
X139587572Y-51537267D01*
X139467732Y-51417427D01*
X139467728Y-51417424D01*
X139323492Y-51328457D01*
X139323481Y-51328452D01*
X139162606Y-51275144D01*
X139063322Y-51265000D01*
X139040000Y-51265000D01*
X139040000Y-51990000D01*
X138540000Y-51990000D01*
X138540000Y-51264999D01*
X138516693Y-51265000D01*
X138516674Y-51265001D01*
X138417392Y-51275144D01*
X138256518Y-51328452D01*
X138256507Y-51328457D01*
X138112271Y-51417424D01*
X138112265Y-51417428D01*
X138103031Y-51426663D01*
X138041707Y-51460146D01*
X137972015Y-51455159D01*
X137927672Y-51426660D01*
X137918044Y-51417032D01*
X137918040Y-51417029D01*
X137773705Y-51328001D01*
X137773699Y-51327998D01*
X137773697Y-51327997D01*
X137773694Y-51327996D01*
X137612709Y-51274651D01*
X137513346Y-51264500D01*
X136966662Y-51264500D01*
X136966644Y-51264501D01*
X136867292Y-51274650D01*
X136867289Y-51274651D01*
X136765096Y-51308515D01*
X136706303Y-51327997D01*
X136706301Y-51327997D01*
X136699448Y-51330269D01*
X136698753Y-51328171D01*
X136679668Y-51331068D01*
X136650417Y-51337994D01*
X136645484Y-51336256D01*
X136640314Y-51337041D01*
X136612874Y-51324768D01*
X136584517Y-51314779D01*
X136581306Y-51310649D01*
X136576533Y-51308515D01*
X136560083Y-51283353D01*
X136541630Y-51259621D01*
X136540427Y-51253290D01*
X136538299Y-51250034D01*
X136533498Y-51225277D01*
X136532999Y-51219733D01*
X136532999Y-51130600D01*
X136518509Y-51020528D01*
X136514132Y-51009963D01*
X136512437Y-50991108D01*
X136515692Y-50974703D01*
X136513892Y-50958075D01*
X136517001Y-50947485D01*
X136516405Y-50947326D01*
X136518508Y-50939475D01*
X136518508Y-50939474D01*
X136518509Y-50939472D01*
X136533000Y-50829401D01*
X136532999Y-50630600D01*
X136518509Y-50520528D01*
X136518508Y-50520525D01*
X136516405Y-50512674D01*
X136519707Y-50511789D01*
X136513892Y-50458075D01*
X136517001Y-50447485D01*
X136516405Y-50447326D01*
X136518508Y-50439475D01*
X136518508Y-50439474D01*
X136518509Y-50439472D01*
X136533000Y-50329401D01*
X136532999Y-50130600D01*
X136532999Y-50130596D01*
X136518511Y-50020536D01*
X136518509Y-50020531D01*
X136518509Y-50020528D01*
X136461779Y-49883571D01*
X136371536Y-49765964D01*
X136253929Y-49675721D01*
X136253925Y-49675719D01*
X136116972Y-49618991D01*
X136116970Y-49618990D01*
X136006910Y-49604501D01*
X136006907Y-49604500D01*
X136006901Y-49604500D01*
X136006894Y-49604500D01*
X135681999Y-49604500D01*
X135614960Y-49584815D01*
X135569205Y-49532011D01*
X135557999Y-49480500D01*
X135557999Y-49155596D01*
X135543511Y-49045536D01*
X135543509Y-49045529D01*
X135543509Y-49045528D01*
X135486779Y-48908571D01*
X135396536Y-48790964D01*
X135278929Y-48700721D01*
X135278925Y-48700719D01*
X135141972Y-48643991D01*
X135141970Y-48643990D01*
X135031901Y-48629500D01*
X134833096Y-48629500D01*
X134723031Y-48643989D01*
X134715178Y-48646094D01*
X134714302Y-48642824D01*
X134660353Y-48648567D01*
X134649977Y-48645518D01*
X134649823Y-48646095D01*
X134641970Y-48643990D01*
X134531901Y-48629500D01*
X134333096Y-48629500D01*
X134223031Y-48643989D01*
X134215178Y-48646094D01*
X134214302Y-48642824D01*
X134160353Y-48648567D01*
X134149977Y-48645518D01*
X134149823Y-48646095D01*
X134141970Y-48643990D01*
X134031901Y-48629500D01*
X133833096Y-48629500D01*
X133723031Y-48643989D01*
X133715178Y-48646094D01*
X133714302Y-48642824D01*
X133660353Y-48648567D01*
X133649977Y-48645518D01*
X133649823Y-48646095D01*
X133641970Y-48643990D01*
X133531901Y-48629500D01*
X133333096Y-48629500D01*
X133223031Y-48643989D01*
X133215178Y-48646094D01*
X133214302Y-48642824D01*
X133160353Y-48648567D01*
X133149977Y-48645518D01*
X133149823Y-48646095D01*
X133141970Y-48643990D01*
X133031901Y-48629500D01*
X132833096Y-48629500D01*
X132723031Y-48643989D01*
X132715178Y-48646094D01*
X132714302Y-48642824D01*
X132660353Y-48648567D01*
X132649977Y-48645518D01*
X132649823Y-48646095D01*
X132641970Y-48643990D01*
X132531901Y-48629500D01*
X132333096Y-48629500D01*
X132223036Y-48643988D01*
X132223027Y-48643991D01*
X132086074Y-48700719D01*
X132086071Y-48700720D01*
X132086071Y-48700721D01*
X131968464Y-48790964D01*
X131882798Y-48902607D01*
X131878219Y-48908574D01*
X131821491Y-49045527D01*
X131821490Y-49045529D01*
X131807513Y-49151703D01*
X131807001Y-49155596D01*
X131807000Y-49155605D01*
X131807000Y-49480500D01*
X131787315Y-49547539D01*
X131734511Y-49593294D01*
X131683000Y-49604500D01*
X126908392Y-49604500D01*
X126867150Y-49612703D01*
X126867142Y-49612705D01*
X126862960Y-49613537D01*
X126787548Y-49628537D01*
X126754207Y-49642347D01*
X126746906Y-49645371D01*
X126746899Y-49645373D01*
X126673719Y-49675684D01*
X126673705Y-49675692D01*
X126622491Y-49709913D01*
X126622490Y-49709915D01*
X126571267Y-49744142D01*
X126571266Y-49744143D01*
X126571261Y-49744147D01*
X126531200Y-49784207D01*
X126514605Y-49793268D01*
X126500996Y-49806400D01*
X126471497Y-49816805D01*
X126469876Y-49817691D01*
X126467712Y-49818141D01*
X126401190Y-49831373D01*
X126331599Y-49825146D01*
X126276421Y-49782283D01*
X126253177Y-49716393D01*
X126252999Y-49709756D01*
X126252999Y-49497129D01*
X126252998Y-49497113D01*
X126246591Y-49437518D01*
X126238995Y-49417152D01*
X126233573Y-49402616D01*
X126228590Y-49332926D01*
X126233575Y-49315949D01*
X126246097Y-49282375D01*
X126246098Y-49282372D01*
X126252499Y-49222844D01*
X126252500Y-49222827D01*
X126252500Y-48975000D01*
X123752500Y-48975000D01*
X123752500Y-49222844D01*
X123758901Y-49282372D01*
X123758903Y-49282379D01*
X123761372Y-49288999D01*
X123763484Y-49318543D01*
X123768223Y-49347781D01*
X123765948Y-49353006D01*
X123766355Y-49358691D01*
X123752160Y-49384684D01*
X123740338Y-49411846D01*
X123734429Y-49417152D01*
X123732868Y-49420013D01*
X123714081Y-49435431D01*
X123696061Y-49447472D01*
X123696056Y-49447474D01*
X123696057Y-49447475D01*
X123603768Y-49509140D01*
X123580898Y-49532011D01*
X123516642Y-49596267D01*
X116804113Y-56308795D01*
X116804105Y-56308803D01*
X116801270Y-56311639D01*
X116801267Y-56311642D01*
X116714142Y-56398767D01*
X116683655Y-56444394D01*
X116679126Y-56451170D01*
X116679123Y-56451175D01*
X116659458Y-56480606D01*
X116645688Y-56501214D01*
X116618645Y-56566502D01*
X116598539Y-56615041D01*
X116598535Y-56615055D01*
X116587425Y-56670905D01*
X116587426Y-56670906D01*
X116581350Y-56701458D01*
X116581349Y-56701464D01*
X116574500Y-56735893D01*
X116574500Y-59157650D01*
X116554815Y-59224689D01*
X116553602Y-59226541D01*
X116490609Y-59320815D01*
X116490602Y-59320828D01*
X116430264Y-59466498D01*
X116430261Y-59466510D01*
X116399500Y-59621153D01*
X116399500Y-59778846D01*
X116430261Y-59933489D01*
X116430264Y-59933501D01*
X116490602Y-60079172D01*
X116490609Y-60079185D01*
X116578210Y-60210288D01*
X116578213Y-60210292D01*
X116689707Y-60321786D01*
X116689711Y-60321789D01*
X116820814Y-60409390D01*
X116820827Y-60409397D01*
X116963734Y-60468590D01*
X116966503Y-60469737D01*
X117121153Y-60500499D01*
X117121156Y-60500500D01*
X117121158Y-60500500D01*
X117278844Y-60500500D01*
X117278845Y-60500499D01*
X117433497Y-60469737D01*
X117579179Y-60409394D01*
X117631324Y-60374551D01*
X117697997Y-60353674D01*
X117765378Y-60372157D01*
X117787894Y-60389973D01*
X117899707Y-60501786D01*
X117899711Y-60501789D01*
X118030814Y-60589390D01*
X118030827Y-60589397D01*
X118167261Y-60645909D01*
X118176503Y-60649737D01*
X118293328Y-60672975D01*
X118331153Y-60680499D01*
X118331156Y-60680500D01*
X118331158Y-60680500D01*
X118488844Y-60680500D01*
X118488845Y-60680499D01*
X118643497Y-60649737D01*
X118789179Y-60589394D01*
X118789184Y-60589390D01*
X118789187Y-60589389D01*
X118835327Y-60558559D01*
X118902004Y-60537680D01*
X118969385Y-60556164D01*
X118991900Y-60573979D01*
X119069707Y-60651786D01*
X119069711Y-60651789D01*
X119200814Y-60739390D01*
X119200827Y-60739397D01*
X119331349Y-60793460D01*
X119346503Y-60799737D01*
X119499967Y-60830263D01*
X119501153Y-60830499D01*
X119501156Y-60830500D01*
X119501158Y-60830500D01*
X119658844Y-60830500D01*
X119658845Y-60830499D01*
X119813497Y-60799737D01*
X119813507Y-60799732D01*
X119819328Y-60797968D01*
X119819926Y-60799940D01*
X119880036Y-60793460D01*
X119942525Y-60824716D01*
X119945738Y-60827816D01*
X119979707Y-60861786D01*
X119979711Y-60861789D01*
X120110814Y-60949390D01*
X120110827Y-60949397D01*
X120254226Y-61008794D01*
X120256503Y-61009737D01*
X120411153Y-61040499D01*
X120411156Y-61040500D01*
X120411158Y-61040500D01*
X120568844Y-61040500D01*
X120568845Y-61040499D01*
X120723497Y-61009737D01*
X120857564Y-60954205D01*
X120869172Y-60949397D01*
X120869172Y-60949396D01*
X120869179Y-60949394D01*
X121000289Y-60861789D01*
X121111789Y-60750289D01*
X121133512Y-60717779D01*
X121187121Y-60672975D01*
X121256446Y-60664266D01*
X121319474Y-60694420D01*
X121339715Y-60717779D01*
X121408210Y-60820288D01*
X121408213Y-60820292D01*
X121519707Y-60931786D01*
X121519711Y-60931789D01*
X121650814Y-61019390D01*
X121650827Y-61019397D01*
X121796498Y-61079735D01*
X121796503Y-61079737D01*
X121951153Y-61110499D01*
X121951156Y-61110500D01*
X121951158Y-61110500D01*
X122108844Y-61110500D01*
X122108845Y-61110499D01*
X122263497Y-61079737D01*
X122409179Y-61019394D01*
X122540289Y-60931789D01*
X122651789Y-60820289D01*
X122739394Y-60689179D01*
X122799737Y-60543497D01*
X122821858Y-60432282D01*
X122854240Y-60370375D01*
X122855732Y-60368857D01*
X123540320Y-59684270D01*
X123601642Y-59650786D01*
X123671334Y-59655770D01*
X123727267Y-59697642D01*
X123751684Y-59763106D01*
X123752000Y-59771952D01*
X123752000Y-60652870D01*
X123752001Y-60652876D01*
X123758408Y-60712481D01*
X123771159Y-60746669D01*
X123776142Y-60816361D01*
X123771159Y-60833331D01*
X123758408Y-60867518D01*
X123752001Y-60927116D01*
X123752001Y-60927123D01*
X123752000Y-60927135D01*
X123752000Y-61922870D01*
X123752001Y-61922876D01*
X123758408Y-61982481D01*
X123771159Y-62016669D01*
X123776142Y-62086361D01*
X123771159Y-62103331D01*
X123758408Y-62137518D01*
X123752249Y-62194810D01*
X123752001Y-62197123D01*
X123752000Y-62197135D01*
X123752000Y-63192870D01*
X123752001Y-63192876D01*
X123758408Y-63252481D01*
X123771159Y-63286669D01*
X123776142Y-63356361D01*
X123771159Y-63373331D01*
X123758408Y-63407518D01*
X123752001Y-63467116D01*
X123752000Y-63467135D01*
X123752000Y-64462870D01*
X123752001Y-64462885D01*
X123753008Y-64472243D01*
X123740604Y-64541003D01*
X123692994Y-64592141D01*
X123629719Y-64609500D01*
X110293418Y-64609500D01*
X110226379Y-64589815D01*
X110180624Y-64537011D01*
X110170680Y-64467853D01*
X110178855Y-64438051D01*
X110209737Y-64363497D01*
X110240500Y-64208842D01*
X110240500Y-64051158D01*
X110240500Y-64051155D01*
X110240499Y-64051153D01*
X110240025Y-64048770D01*
X110209737Y-63896503D01*
X110208955Y-63894616D01*
X110149397Y-63750827D01*
X110149390Y-63750814D01*
X110061789Y-63619711D01*
X110061786Y-63619707D01*
X109950292Y-63508213D01*
X109950288Y-63508210D01*
X109819185Y-63420609D01*
X109819172Y-63420602D01*
X109673501Y-63360264D01*
X109673489Y-63360261D01*
X109518845Y-63329500D01*
X109518842Y-63329500D01*
X109361158Y-63329500D01*
X109361155Y-63329500D01*
X109206510Y-63360261D01*
X109206498Y-63360264D01*
X109060827Y-63420602D01*
X109060815Y-63420609D01*
X108966541Y-63483602D01*
X108948494Y-63489252D01*
X108932585Y-63499477D01*
X108901625Y-63503928D01*
X108899864Y-63504480D01*
X108897650Y-63504500D01*
X108867622Y-63504500D01*
X108800583Y-63484815D01*
X108754828Y-63432011D01*
X108746945Y-63409015D01*
X108746591Y-63407518D01*
X108746591Y-63407517D01*
X108733840Y-63373332D01*
X108728857Y-63303642D01*
X108733840Y-63286669D01*
X108746591Y-63252483D01*
X108753000Y-63192873D01*
X108752999Y-62197128D01*
X108746591Y-62137517D01*
X108733840Y-62103332D01*
X108728857Y-62033642D01*
X108733841Y-62016667D01*
X108746591Y-61982483D01*
X108753000Y-61922873D01*
X108752999Y-60927128D01*
X108746591Y-60867517D01*
X108733840Y-60833332D01*
X108728857Y-60763642D01*
X108733840Y-60746669D01*
X108746591Y-60712483D01*
X108753000Y-60652873D01*
X108752999Y-59657128D01*
X108746591Y-59597517D01*
X108733840Y-59563332D01*
X108728857Y-59493642D01*
X108733840Y-59476669D01*
X108746591Y-59442483D01*
X108753000Y-59382873D01*
X108752999Y-58387128D01*
X108746591Y-58327517D01*
X108733840Y-58293332D01*
X108728857Y-58223642D01*
X108733838Y-58206672D01*
X108746591Y-58172483D01*
X108753000Y-58112873D01*
X108752999Y-57117128D01*
X108746591Y-57057517D01*
X108733840Y-57023332D01*
X108728857Y-56953642D01*
X108733840Y-56936669D01*
X108746591Y-56902483D01*
X108753000Y-56842873D01*
X108752999Y-55847128D01*
X108746591Y-55787517D01*
X108733840Y-55753332D01*
X108728857Y-55683642D01*
X108733840Y-55666669D01*
X108746591Y-55632483D01*
X108753000Y-55572873D01*
X108752999Y-54577128D01*
X108746591Y-54517517D01*
X108733840Y-54483332D01*
X108728857Y-54413642D01*
X108733840Y-54396669D01*
X108746591Y-54362483D01*
X108753000Y-54302873D01*
X108752999Y-53307128D01*
X108746591Y-53247517D01*
X108733840Y-53213332D01*
X108728857Y-53143642D01*
X108733840Y-53126669D01*
X108746591Y-53092483D01*
X108753000Y-53032873D01*
X108752999Y-52037128D01*
X108746591Y-51977517D01*
X108733840Y-51943332D01*
X108728857Y-51873642D01*
X108733838Y-51856672D01*
X108746591Y-51822483D01*
X108753000Y-51762873D01*
X108752999Y-50919499D01*
X108772683Y-50852461D01*
X108825487Y-50806706D01*
X108876999Y-50795500D01*
X108893844Y-50795500D01*
X108893845Y-50795499D01*
X109048497Y-50764737D01*
X109179382Y-50710523D01*
X109194172Y-50704397D01*
X109194172Y-50704396D01*
X109194179Y-50704394D01*
X109325289Y-50616789D01*
X109501891Y-50440187D01*
X109563214Y-50406702D01*
X109632905Y-50411686D01*
X109658462Y-50424765D01*
X109736086Y-50476632D01*
X109736087Y-50476632D01*
X109736088Y-50476633D01*
X109842054Y-50520525D01*
X109918165Y-50552051D01*
X109918169Y-50552051D01*
X109918170Y-50552052D01*
X110111456Y-50590500D01*
X110111459Y-50590500D01*
X110308543Y-50590500D01*
X110438582Y-50564632D01*
X110501835Y-50552051D01*
X110683914Y-50476632D01*
X110847782Y-50367139D01*
X110987139Y-50227782D01*
X111096632Y-50063914D01*
X111172051Y-49881835D01*
X111191853Y-49782283D01*
X111210500Y-49688543D01*
X111210500Y-49491456D01*
X111172052Y-49298170D01*
X111172051Y-49298169D01*
X111172051Y-49298165D01*
X111165369Y-49282032D01*
X111096635Y-49116092D01*
X111096628Y-49116079D01*
X110987139Y-48952218D01*
X110987136Y-48952214D01*
X110847785Y-48812863D01*
X110847781Y-48812860D01*
X110683920Y-48703371D01*
X110683907Y-48703364D01*
X110501839Y-48627950D01*
X110501829Y-48627947D01*
X110308543Y-48589500D01*
X110308541Y-48589500D01*
X110111459Y-48589500D01*
X110111457Y-48589500D01*
X109918170Y-48627947D01*
X109918160Y-48627950D01*
X109736088Y-48703366D01*
X109638456Y-48768602D01*
X109571778Y-48789480D01*
X109569565Y-48789500D01*
X109141154Y-48789500D01*
X108986509Y-48820261D01*
X108986497Y-48820264D01*
X108943832Y-48837936D01*
X108943833Y-48837937D01*
X108840823Y-48880604D01*
X108840814Y-48880609D01*
X108730826Y-48954102D01*
X108664149Y-48974980D01*
X108661935Y-48975000D01*
X106252500Y-48975000D01*
X106252500Y-49070500D01*
X106249949Y-49079185D01*
X106251238Y-49088147D01*
X106240259Y-49112187D01*
X106232815Y-49137539D01*
X106225974Y-49143466D01*
X106222213Y-49151703D01*
X106199978Y-49165992D01*
X106180011Y-49183294D01*
X106169496Y-49185581D01*
X106163435Y-49189477D01*
X106128500Y-49194500D01*
X105998195Y-49194500D01*
X105931156Y-49174815D01*
X105885401Y-49122011D01*
X105875457Y-49052853D01*
X105880489Y-49031496D01*
X105924855Y-48897606D01*
X105934999Y-48798322D01*
X105935000Y-48798309D01*
X105935000Y-48775000D01*
X103985001Y-48775000D01*
X103985001Y-48798322D01*
X103995144Y-48897607D01*
X104048452Y-49058481D01*
X104048457Y-49058492D01*
X104086645Y-49120403D01*
X104105086Y-49187795D01*
X104084164Y-49254459D01*
X104030522Y-49299228D01*
X103981107Y-49309500D01*
X103011232Y-49309500D01*
X102944193Y-49289815D01*
X102934765Y-49283115D01*
X102930192Y-49279533D01*
X102930186Y-49279529D01*
X102930185Y-49279528D01*
X102784606Y-49191522D01*
X102622196Y-49140914D01*
X102622194Y-49140913D01*
X102622192Y-49140913D01*
X102570983Y-49136260D01*
X102551616Y-49134500D01*
X102038384Y-49134500D01*
X102019145Y-49136248D01*
X101967807Y-49140913D01*
X101805393Y-49191522D01*
X101659811Y-49279530D01*
X101659810Y-49279531D01*
X101557681Y-49381661D01*
X101496358Y-49415146D01*
X101426666Y-49410162D01*
X101382319Y-49381661D01*
X101280188Y-49279530D01*
X101219449Y-49242812D01*
X101134606Y-49191522D01*
X100972196Y-49140914D01*
X100972194Y-49140913D01*
X100972192Y-49140913D01*
X100920983Y-49136260D01*
X100901616Y-49134500D01*
X100388384Y-49134500D01*
X100369145Y-49136248D01*
X100317807Y-49140913D01*
X100155393Y-49191522D01*
X100009813Y-49279529D01*
X99889524Y-49399819D01*
X99884898Y-49405724D01*
X99883482Y-49404615D01*
X99880246Y-49411703D01*
X99859399Y-49425099D01*
X99841127Y-49441835D01*
X99828971Y-49444654D01*
X99821468Y-49449477D01*
X99786533Y-49454500D01*
X99624547Y-49454500D01*
X99557508Y-49434815D01*
X99527276Y-49407405D01*
X99522963Y-49401950D01*
X99513340Y-49392327D01*
X99479855Y-49331004D01*
X99484839Y-49261312D01*
X99513343Y-49216962D01*
X99522572Y-49207732D01*
X99522573Y-49207731D01*
X99611542Y-49063492D01*
X99611547Y-49063481D01*
X99664855Y-48902606D01*
X99674999Y-48803322D01*
X99675000Y-48803309D01*
X99675000Y-48780000D01*
X97725001Y-48780000D01*
X97725001Y-48803322D01*
X97735144Y-48902607D01*
X97788452Y-49063481D01*
X97788457Y-49063492D01*
X97797519Y-49078183D01*
X97815960Y-49145575D01*
X97795038Y-49212239D01*
X97741396Y-49257009D01*
X97672065Y-49265670D01*
X97617670Y-49242547D01*
X97502330Y-49156203D01*
X97502328Y-49156202D01*
X97367482Y-49105908D01*
X97367483Y-49105908D01*
X97307883Y-49099501D01*
X97307881Y-49099500D01*
X97307873Y-49099500D01*
X97307864Y-49099500D01*
X96462129Y-49099500D01*
X96462123Y-49099501D01*
X96402516Y-49105908D01*
X96267671Y-49156202D01*
X96267664Y-49156206D01*
X96152455Y-49242452D01*
X96152452Y-49242455D01*
X96066206Y-49357664D01*
X96066202Y-49357671D01*
X96015908Y-49492517D01*
X96009501Y-49552116D01*
X96009500Y-49552135D01*
X96009500Y-50647870D01*
X96009501Y-50647876D01*
X96015908Y-50707483D01*
X96066202Y-50842328D01*
X96066203Y-50842329D01*
X96066204Y-50842331D01*
X96152452Y-50957543D01*
X96152455Y-50957547D01*
X96165080Y-50966998D01*
X96197287Y-50991108D01*
X96209810Y-51000482D01*
X96251682Y-51056415D01*
X96259500Y-51099749D01*
X96259500Y-55100249D01*
X96239815Y-55167288D01*
X96209812Y-55199515D01*
X96152457Y-55242451D01*
X96152451Y-55242457D01*
X96066206Y-55357664D01*
X96066202Y-55357671D01*
X96015908Y-55492517D01*
X96009501Y-55552116D01*
X96009501Y-55552123D01*
X96009500Y-55552135D01*
X96009500Y-56647870D01*
X96009501Y-56647876D01*
X96015908Y-56707483D01*
X96066202Y-56842328D01*
X96066206Y-56842335D01*
X96152452Y-56957544D01*
X96152455Y-56957547D01*
X96267664Y-57043793D01*
X96267671Y-57043797D01*
X96402517Y-57094091D01*
X96402516Y-57094091D01*
X96409444Y-57094835D01*
X96462127Y-57100500D01*
X97307872Y-57100499D01*
X97367483Y-57094091D01*
X97502331Y-57043796D01*
X97617546Y-56957546D01*
X97703796Y-56842331D01*
X97754091Y-56707483D01*
X97760500Y-56647873D01*
X97760499Y-55552128D01*
X97754091Y-55492517D01*
X97752756Y-55488939D01*
X97703797Y-55357671D01*
X97703793Y-55357664D01*
X97617548Y-55242457D01*
X97617546Y-55242454D01*
X97580985Y-55215084D01*
X97560188Y-55199515D01*
X97518318Y-55143581D01*
X97510500Y-55100249D01*
X97510500Y-51099749D01*
X97530185Y-51032710D01*
X97560190Y-51000482D01*
X97617546Y-50957546D01*
X97703796Y-50842331D01*
X97706323Y-50835554D01*
X97748191Y-50779619D01*
X97813654Y-50755198D01*
X97881927Y-50770046D01*
X97910188Y-50791200D01*
X97996956Y-50877968D01*
X97996958Y-50877969D01*
X97996959Y-50877970D01*
X98141294Y-50966998D01*
X98141297Y-50966999D01*
X98141303Y-50967003D01*
X98302292Y-51020349D01*
X98401655Y-51030500D01*
X98998344Y-51030499D01*
X98998352Y-51030498D01*
X98998355Y-51030498D01*
X99052760Y-51024940D01*
X99097708Y-51020349D01*
X99258697Y-50967003D01*
X99403044Y-50877968D01*
X99522968Y-50758044D01*
X99522971Y-50758038D01*
X99527276Y-50752595D01*
X99529633Y-50750925D01*
X99530834Y-50748297D01*
X99557976Y-50730853D01*
X99584296Y-50712215D01*
X99587919Y-50711610D01*
X99589612Y-50710523D01*
X99624547Y-50705500D01*
X99750262Y-50705500D01*
X99817301Y-50725185D01*
X99856378Y-50765349D01*
X99865005Y-50779619D01*
X99889528Y-50820185D01*
X100009815Y-50940472D01*
X100064648Y-50973620D01*
X100111837Y-51025146D01*
X100124500Y-51079737D01*
X100124500Y-51866691D01*
X100104815Y-51933730D01*
X100088181Y-51954372D01*
X100081923Y-51960629D01*
X100081917Y-51960637D01*
X99998255Y-52102103D01*
X99998254Y-52102106D01*
X99952402Y-52259926D01*
X99952401Y-52259932D01*
X99949500Y-52296798D01*
X99949500Y-53463000D01*
X99929815Y-53530039D01*
X99877011Y-53575794D01*
X99825500Y-53587000D01*
X99584298Y-53587000D01*
X99547432Y-53589901D01*
X99547426Y-53589902D01*
X99389606Y-53635754D01*
X99389603Y-53635755D01*
X99248137Y-53719417D01*
X99248129Y-53719423D01*
X99131923Y-53835629D01*
X99131917Y-53835637D01*
X99048255Y-53977103D01*
X99048254Y-53977106D01*
X99002402Y-54134926D01*
X99002401Y-54134932D01*
X98999500Y-54171798D01*
X98999500Y-55478201D01*
X99002401Y-55515067D01*
X99002402Y-55515073D01*
X99048254Y-55672893D01*
X99048255Y-55672896D01*
X99048256Y-55672898D01*
X99064580Y-55700500D01*
X99131609Y-55813842D01*
X99131919Y-55814365D01*
X99138179Y-55820625D01*
X99171665Y-55881945D01*
X99174500Y-55908308D01*
X99174500Y-57403480D01*
X99154815Y-57470519D01*
X99138181Y-57491161D01*
X99039531Y-57589810D01*
X99039530Y-57589811D01*
X98951522Y-57735393D01*
X98900913Y-57897807D01*
X98894500Y-57968386D01*
X98894500Y-58294128D01*
X98874815Y-58361167D01*
X98822011Y-58406922D01*
X98752853Y-58416866D01*
X98727168Y-58410310D01*
X98689883Y-58396404D01*
X98689872Y-58396401D01*
X98630344Y-58390000D01*
X98332500Y-58390000D01*
X98332500Y-59015000D01*
X98992981Y-59015000D01*
X99060020Y-59034685D01*
X99080657Y-59051314D01*
X99159815Y-59130472D01*
X99305394Y-59218478D01*
X99467804Y-59269086D01*
X99538384Y-59275500D01*
X99538387Y-59275500D01*
X100051613Y-59275500D01*
X100051616Y-59275500D01*
X100122196Y-59269086D01*
X100284606Y-59218478D01*
X100430185Y-59130472D01*
X100462853Y-59097804D01*
X100532319Y-59028339D01*
X100593642Y-58994854D01*
X100663334Y-58999838D01*
X100707681Y-59028339D01*
X100809811Y-59130469D01*
X100809813Y-59130470D01*
X100809815Y-59130472D01*
X100955394Y-59218478D01*
X101117804Y-59269086D01*
X101188384Y-59275500D01*
X101188387Y-59275500D01*
X101701613Y-59275500D01*
X101701616Y-59275500D01*
X101772196Y-59269086D01*
X101934606Y-59218478D01*
X102080185Y-59130472D01*
X102148839Y-59061817D01*
X102210160Y-59028334D01*
X102236519Y-59025500D01*
X102507650Y-59025500D01*
X102574689Y-59045185D01*
X102576541Y-59046398D01*
X102670821Y-59109394D01*
X102670823Y-59109395D01*
X102670827Y-59109397D01*
X102813241Y-59168386D01*
X102816503Y-59169737D01*
X102944835Y-59195264D01*
X102971153Y-59200499D01*
X102971156Y-59200500D01*
X102971158Y-59200500D01*
X103128844Y-59200500D01*
X103128845Y-59200499D01*
X103283497Y-59169737D01*
X103429179Y-59109394D01*
X103560289Y-59021789D01*
X103671789Y-58910289D01*
X103759394Y-58779179D01*
X103819737Y-58633497D01*
X103850500Y-58478842D01*
X103850500Y-58321158D01*
X103850500Y-58321155D01*
X103850499Y-58321153D01*
X103839585Y-58266286D01*
X103819737Y-58166503D01*
X103819732Y-58166492D01*
X103817969Y-58160676D01*
X103819177Y-58160309D01*
X103812408Y-58097385D01*
X103843678Y-58034903D01*
X103903764Y-57999246D01*
X103973589Y-58001735D01*
X104022120Y-58031711D01*
X104419141Y-58428732D01*
X104419142Y-58428733D01*
X104506267Y-58515858D01*
X104589486Y-58571463D01*
X104608714Y-58584311D01*
X104722548Y-58631463D01*
X104805250Y-58647913D01*
X104843388Y-58655499D01*
X104843392Y-58655500D01*
X104843393Y-58655500D01*
X104843394Y-58655500D01*
X105047650Y-58655500D01*
X105114689Y-58675185D01*
X105116541Y-58676398D01*
X105210821Y-58739394D01*
X105210823Y-58739395D01*
X105210827Y-58739397D01*
X105315195Y-58782627D01*
X105356503Y-58799737D01*
X105511153Y-58830499D01*
X105511156Y-58830500D01*
X105511158Y-58830500D01*
X105668844Y-58830500D01*
X105668845Y-58830499D01*
X105823497Y-58799737D01*
X105969179Y-58739394D01*
X106059111Y-58679302D01*
X106125785Y-58658426D01*
X106193166Y-58676910D01*
X106239856Y-58728888D01*
X106252000Y-58782406D01*
X106252000Y-59382870D01*
X106252001Y-59382876D01*
X106258408Y-59442481D01*
X106271159Y-59476669D01*
X106276142Y-59546361D01*
X106271159Y-59563331D01*
X106258408Y-59597518D01*
X106252146Y-59655770D01*
X106252001Y-59657123D01*
X106252000Y-59657135D01*
X106252000Y-60652870D01*
X106252001Y-60652876D01*
X106258408Y-60712481D01*
X106271159Y-60746669D01*
X106276142Y-60816361D01*
X106271159Y-60833331D01*
X106258408Y-60867518D01*
X106252001Y-60927116D01*
X106252001Y-60927123D01*
X106252000Y-60927135D01*
X106252000Y-61922870D01*
X106252001Y-61922876D01*
X106258408Y-61982481D01*
X106271159Y-62016669D01*
X106276142Y-62086361D01*
X106271159Y-62103331D01*
X106258408Y-62137518D01*
X106252249Y-62194810D01*
X106252001Y-62197123D01*
X106252000Y-62197135D01*
X106252000Y-63192870D01*
X106252001Y-63192876D01*
X106258408Y-63252481D01*
X106271159Y-63286669D01*
X106276142Y-63356361D01*
X106271159Y-63373331D01*
X106258408Y-63407518D01*
X106252001Y-63467116D01*
X106252000Y-63467135D01*
X106252000Y-64462870D01*
X106252001Y-64462876D01*
X106258408Y-64522481D01*
X106271159Y-64556669D01*
X106278117Y-64614567D01*
X106276365Y-64629370D01*
X106258409Y-64677517D01*
X106252000Y-64737127D01*
X106252000Y-64835352D01*
X106251141Y-64842614D01*
X106240181Y-64868296D01*
X106232315Y-64895086D01*
X106226657Y-64899988D01*
X106223718Y-64906876D01*
X106200609Y-64922559D01*
X106179511Y-64940841D01*
X106172101Y-64941906D01*
X106165905Y-64946112D01*
X106137988Y-64946811D01*
X106110353Y-64950785D01*
X106103541Y-64947674D01*
X106096057Y-64947862D01*
X106072198Y-64933360D01*
X106046797Y-64921760D01*
X106040319Y-64915728D01*
X103747928Y-62623338D01*
X103747925Y-62623334D01*
X103747925Y-62623335D01*
X103740858Y-62616268D01*
X103740858Y-62616267D01*
X103653733Y-62529142D01*
X103653732Y-62529141D01*
X103653731Y-62529140D01*
X103608325Y-62498801D01*
X103608324Y-62498800D01*
X103602509Y-62494915D01*
X103551286Y-62460688D01*
X103470792Y-62427347D01*
X103455457Y-62420995D01*
X103437453Y-62413537D01*
X103427427Y-62411543D01*
X103377029Y-62401518D01*
X103316610Y-62389500D01*
X103316607Y-62389500D01*
X103316606Y-62389500D01*
X99082251Y-62389500D01*
X99015212Y-62369815D01*
X98982985Y-62339812D01*
X98940048Y-62282457D01*
X98940046Y-62282454D01*
X98923060Y-62269738D01*
X98824835Y-62196206D01*
X98824828Y-62196202D01*
X98689982Y-62145908D01*
X98689983Y-62145908D01*
X98630383Y-62139501D01*
X98630381Y-62139500D01*
X98630373Y-62139500D01*
X98630364Y-62139500D01*
X97534629Y-62139500D01*
X97534623Y-62139501D01*
X97475016Y-62145908D01*
X97340171Y-62196202D01*
X97340164Y-62196206D01*
X97224957Y-62282451D01*
X97224951Y-62282457D01*
X97182015Y-62339812D01*
X97126081Y-62381682D01*
X97082749Y-62389500D01*
X93082251Y-62389500D01*
X93015212Y-62369815D01*
X92982985Y-62339812D01*
X92940048Y-62282457D01*
X92940046Y-62282454D01*
X92923060Y-62269738D01*
X92824835Y-62196206D01*
X92824828Y-62196202D01*
X92689982Y-62145908D01*
X92689983Y-62145908D01*
X92630383Y-62139501D01*
X92630381Y-62139500D01*
X92630373Y-62139500D01*
X92630364Y-62139500D01*
X91534629Y-62139500D01*
X91534623Y-62139501D01*
X91475016Y-62145908D01*
X91340171Y-62196202D01*
X91340164Y-62196206D01*
X91288810Y-62234650D01*
X91223346Y-62259067D01*
X91155073Y-62244215D01*
X91105668Y-62194810D01*
X91090500Y-62135383D01*
X91090500Y-60143991D01*
X91110185Y-60076952D01*
X91162989Y-60031197D01*
X91232147Y-60021253D01*
X91288812Y-60044725D01*
X91340410Y-60083352D01*
X91340413Y-60083354D01*
X91475120Y-60133596D01*
X91475127Y-60133598D01*
X91534655Y-60139999D01*
X91534672Y-60140000D01*
X91832500Y-60140000D01*
X92332500Y-60140000D01*
X92630328Y-60140000D01*
X92630344Y-60139999D01*
X92689872Y-60133598D01*
X92689879Y-60133596D01*
X92824586Y-60083354D01*
X92824593Y-60083350D01*
X92939687Y-59997190D01*
X92939690Y-59997187D01*
X93025850Y-59882093D01*
X93025854Y-59882086D01*
X93076096Y-59747379D01*
X93076098Y-59747372D01*
X93082499Y-59687844D01*
X97082500Y-59687844D01*
X97088901Y-59747372D01*
X97088903Y-59747379D01*
X97139145Y-59882086D01*
X97139149Y-59882093D01*
X97225309Y-59997187D01*
X97225312Y-59997190D01*
X97340406Y-60083350D01*
X97340413Y-60083354D01*
X97475120Y-60133596D01*
X97475127Y-60133598D01*
X97534655Y-60139999D01*
X97534672Y-60140000D01*
X97832500Y-60140000D01*
X98332500Y-60140000D01*
X98630328Y-60140000D01*
X98630344Y-60139999D01*
X98689872Y-60133598D01*
X98689879Y-60133596D01*
X98824586Y-60083354D01*
X98824593Y-60083350D01*
X98939687Y-59997190D01*
X98939690Y-59997187D01*
X99025850Y-59882093D01*
X99025854Y-59882086D01*
X99076096Y-59747379D01*
X99076098Y-59747372D01*
X99082499Y-59687844D01*
X99082500Y-59687827D01*
X99082500Y-59515000D01*
X98332500Y-59515000D01*
X98332500Y-60140000D01*
X97832500Y-60140000D01*
X97832500Y-59515000D01*
X97082500Y-59515000D01*
X97082500Y-59687844D01*
X93082499Y-59687844D01*
X93082500Y-59687827D01*
X93082500Y-59515000D01*
X92332500Y-59515000D01*
X92332500Y-60140000D01*
X91832500Y-60140000D01*
X91832500Y-59015000D01*
X92332500Y-59015000D01*
X93082500Y-59015000D01*
X93082500Y-58842172D01*
X93082499Y-58842155D01*
X97082500Y-58842155D01*
X97082500Y-59015000D01*
X97832500Y-59015000D01*
X97832500Y-58390000D01*
X97534655Y-58390000D01*
X97475127Y-58396401D01*
X97475120Y-58396403D01*
X97340413Y-58446645D01*
X97340406Y-58446649D01*
X97225312Y-58532809D01*
X97225309Y-58532812D01*
X97139149Y-58647906D01*
X97139145Y-58647913D01*
X97088903Y-58782620D01*
X97088901Y-58782627D01*
X97082500Y-58842155D01*
X93082499Y-58842155D01*
X93076098Y-58782627D01*
X93076096Y-58782620D01*
X93025854Y-58647913D01*
X93025850Y-58647906D01*
X92939690Y-58532812D01*
X92939687Y-58532809D01*
X92824593Y-58446649D01*
X92824586Y-58446645D01*
X92689879Y-58396403D01*
X92689872Y-58396401D01*
X92630344Y-58390000D01*
X92332500Y-58390000D01*
X92332500Y-59015000D01*
X91832500Y-59015000D01*
X91832500Y-58390000D01*
X91534655Y-58390000D01*
X91475127Y-58396401D01*
X91475120Y-58396403D01*
X91340413Y-58446645D01*
X91340411Y-58446646D01*
X91288811Y-58485275D01*
X91223347Y-58509692D01*
X91155074Y-58494841D01*
X91105668Y-58445436D01*
X91090500Y-58386008D01*
X91090500Y-56647844D01*
X92260000Y-56647844D01*
X92266401Y-56707372D01*
X92266403Y-56707379D01*
X92316645Y-56842086D01*
X92316649Y-56842093D01*
X92402809Y-56957187D01*
X92402812Y-56957190D01*
X92517906Y-57043350D01*
X92517913Y-57043354D01*
X92652620Y-57093596D01*
X92652627Y-57093598D01*
X92712155Y-57099999D01*
X92712172Y-57100000D01*
X92885000Y-57100000D01*
X93385000Y-57100000D01*
X93557828Y-57100000D01*
X93557844Y-57099999D01*
X93617372Y-57093598D01*
X93617379Y-57093596D01*
X93752086Y-57043354D01*
X93752093Y-57043350D01*
X93867187Y-56957190D01*
X93867190Y-56957187D01*
X93953350Y-56842093D01*
X93953354Y-56842086D01*
X94003596Y-56707379D01*
X94003598Y-56707372D01*
X94009999Y-56647844D01*
X94010000Y-56647827D01*
X94010000Y-56350000D01*
X93385000Y-56350000D01*
X93385000Y-57100000D01*
X92885000Y-57100000D01*
X92885000Y-56350000D01*
X92260000Y-56350000D01*
X92260000Y-56647844D01*
X91090500Y-56647844D01*
X91090500Y-55552155D01*
X92260000Y-55552155D01*
X92260000Y-55850000D01*
X92885000Y-55850000D01*
X93385000Y-55850000D01*
X94010000Y-55850000D01*
X94010000Y-55552172D01*
X94009999Y-55552155D01*
X94003598Y-55492627D01*
X94003596Y-55492620D01*
X93953354Y-55357913D01*
X93953350Y-55357906D01*
X93867190Y-55242812D01*
X93867187Y-55242809D01*
X93752093Y-55156649D01*
X93752086Y-55156645D01*
X93617379Y-55106403D01*
X93617372Y-55106401D01*
X93557844Y-55100000D01*
X93385000Y-55100000D01*
X93385000Y-55850000D01*
X92885000Y-55850000D01*
X92885000Y-55100000D01*
X92712155Y-55100000D01*
X92652627Y-55106401D01*
X92652620Y-55106403D01*
X92517913Y-55156645D01*
X92517906Y-55156649D01*
X92402812Y-55242809D01*
X92402809Y-55242812D01*
X92316649Y-55357906D01*
X92316645Y-55357913D01*
X92266403Y-55492620D01*
X92266401Y-55492627D01*
X92260000Y-55552155D01*
X91090500Y-55552155D01*
X91090500Y-50647844D01*
X92260000Y-50647844D01*
X92266401Y-50707372D01*
X92266403Y-50707379D01*
X92316645Y-50842086D01*
X92316649Y-50842093D01*
X92402809Y-50957187D01*
X92402812Y-50957190D01*
X92517906Y-51043350D01*
X92517913Y-51043354D01*
X92652620Y-51093596D01*
X92652627Y-51093598D01*
X92712155Y-51099999D01*
X92712172Y-51100000D01*
X92885000Y-51100000D01*
X93385000Y-51100000D01*
X93557828Y-51100000D01*
X93557844Y-51099999D01*
X93617372Y-51093598D01*
X93617379Y-51093596D01*
X93752086Y-51043354D01*
X93752093Y-51043350D01*
X93867187Y-50957190D01*
X93867190Y-50957187D01*
X93953350Y-50842093D01*
X93953354Y-50842086D01*
X94003596Y-50707379D01*
X94003598Y-50707372D01*
X94009999Y-50647844D01*
X94010000Y-50647827D01*
X94010000Y-50350000D01*
X93385000Y-50350000D01*
X93385000Y-51100000D01*
X92885000Y-51100000D01*
X92885000Y-50350000D01*
X92260000Y-50350000D01*
X92260000Y-50647844D01*
X91090500Y-50647844D01*
X91090500Y-49552155D01*
X92260000Y-49552155D01*
X92260000Y-49850000D01*
X92885000Y-49850000D01*
X93385000Y-49850000D01*
X94010000Y-49850000D01*
X94010000Y-49552172D01*
X94009999Y-49552155D01*
X94003598Y-49492627D01*
X94003596Y-49492620D01*
X93953354Y-49357913D01*
X93953350Y-49357906D01*
X93867190Y-49242812D01*
X93867187Y-49242809D01*
X93752093Y-49156649D01*
X93752086Y-49156645D01*
X93617379Y-49106403D01*
X93617372Y-49106401D01*
X93557844Y-49100000D01*
X93385000Y-49100000D01*
X93385000Y-49850000D01*
X92885000Y-49850000D01*
X92885000Y-49100000D01*
X92712155Y-49100000D01*
X92652627Y-49106401D01*
X92652620Y-49106403D01*
X92517913Y-49156645D01*
X92517906Y-49156649D01*
X92402812Y-49242809D01*
X92402809Y-49242812D01*
X92316649Y-49357906D01*
X92316645Y-49357913D01*
X92266403Y-49492620D01*
X92266401Y-49492627D01*
X92260000Y-49552155D01*
X91090500Y-49552155D01*
X91090500Y-48014500D01*
X91110185Y-47947461D01*
X91162989Y-47901706D01*
X91214500Y-47890500D01*
X97651863Y-47890500D01*
X97718902Y-47910185D01*
G37*
%TD.AperFunction*%
%TA.AperFunction,Conductor*%
G36*
X141280000Y-61770000D02*
G01*
X141506500Y-61770000D01*
X141573539Y-61789685D01*
X141619294Y-61842489D01*
X141630500Y-61894000D01*
X141630500Y-62705855D01*
X141610815Y-62772894D01*
X141558011Y-62818649D01*
X141553960Y-62820413D01*
X141545508Y-62823914D01*
X141545498Y-62823919D01*
X141422584Y-62906048D01*
X141422580Y-62906051D01*
X140192181Y-64136451D01*
X140130858Y-64169936D01*
X140061166Y-64164952D01*
X140005233Y-64123080D01*
X139980816Y-64057616D01*
X139980500Y-64048770D01*
X139980500Y-61768940D01*
X140000185Y-61701901D01*
X140052989Y-61656146D01*
X140122147Y-61646202D01*
X140151953Y-61654379D01*
X140338310Y-61731570D01*
X140338318Y-61731572D01*
X140531504Y-61769999D01*
X140531508Y-61770000D01*
X140780000Y-61770000D01*
X140780000Y-61070000D01*
X141280000Y-61070000D01*
X141280000Y-61770000D01*
G37*
%TD.AperFunction*%
%TA.AperFunction,Conductor*%
G36*
X131750039Y-53375184D02*
G01*
X131795794Y-53427988D01*
X131807000Y-53479499D01*
X131807000Y-53804403D01*
X131821488Y-53914463D01*
X131821491Y-53914472D01*
X131847251Y-53976663D01*
X131878221Y-54051429D01*
X131968464Y-54169036D01*
X132086071Y-54259279D01*
X132223028Y-54316009D01*
X132333099Y-54330500D01*
X132531900Y-54330499D01*
X132531901Y-54330499D01*
X132549926Y-54328126D01*
X132641972Y-54316009D01*
X132641975Y-54316007D01*
X132649826Y-54313905D01*
X132650649Y-54316978D01*
X132704520Y-54311022D01*
X132754367Y-54319742D01*
X132783437Y-54334100D01*
X132813081Y-54347214D01*
X132814576Y-54349480D01*
X132817012Y-54350684D01*
X132833698Y-54378470D01*
X132851553Y-54405538D01*
X132852084Y-54409087D01*
X132852983Y-54410583D01*
X132852869Y-54414322D01*
X132857000Y-54441887D01*
X132857000Y-56540830D01*
X132856999Y-56540848D01*
X132856999Y-56706554D01*
X132856998Y-56706554D01*
X132897922Y-56859283D01*
X132917800Y-56893712D01*
X132917802Y-56893715D01*
X132976979Y-56996214D01*
X132976981Y-56996217D01*
X133095849Y-57115085D01*
X133095855Y-57115090D01*
X133985139Y-58004374D01*
X133985149Y-58004385D01*
X133989479Y-58008715D01*
X133989480Y-58008716D01*
X134101284Y-58120520D01*
X134101286Y-58120521D01*
X134156591Y-58152451D01*
X134156590Y-58152451D01*
X134156593Y-58152452D01*
X134238209Y-58199574D01*
X134238210Y-58199574D01*
X134238215Y-58199577D01*
X134390942Y-58240500D01*
X134390943Y-58240500D01*
X135424605Y-58240500D01*
X135491644Y-58260185D01*
X135512286Y-58276819D01*
X136793786Y-59558319D01*
X136827271Y-59619642D01*
X136822287Y-59689334D01*
X136780415Y-59745267D01*
X136714951Y-59769684D01*
X136706105Y-59770000D01*
X136201504Y-59770000D01*
X136008318Y-59808427D01*
X136008306Y-59808430D01*
X135826328Y-59883807D01*
X135826315Y-59883814D01*
X135662537Y-59993248D01*
X135662533Y-59993251D01*
X135523251Y-60132533D01*
X135523248Y-60132537D01*
X135413814Y-60296315D01*
X135413807Y-60296328D01*
X135338430Y-60478307D01*
X135338430Y-60478309D01*
X135330138Y-60520000D01*
X136133012Y-60520000D01*
X136115795Y-60529940D01*
X136059940Y-60585795D01*
X136020444Y-60654204D01*
X136000000Y-60730504D01*
X136000000Y-60809496D01*
X136020444Y-60885796D01*
X136059940Y-60954205D01*
X136115795Y-61010060D01*
X136133012Y-61020000D01*
X135330138Y-61020000D01*
X135338430Y-61061690D01*
X135338430Y-61061692D01*
X135385991Y-61176515D01*
X135393460Y-61245984D01*
X135362185Y-61308463D01*
X135359114Y-61311646D01*
X135332318Y-61338443D01*
X135332313Y-61338449D01*
X135248718Y-61479801D01*
X135202899Y-61637513D01*
X135202704Y-61639998D01*
X135202705Y-61640000D01*
X136151000Y-61640000D01*
X136159685Y-61642550D01*
X136168647Y-61641262D01*
X136192687Y-61652240D01*
X136218039Y-61659685D01*
X136223966Y-61666525D01*
X136232203Y-61670287D01*
X136246492Y-61692521D01*
X136263794Y-61712489D01*
X136266081Y-61723003D01*
X136269977Y-61729065D01*
X136275000Y-61764000D01*
X136275000Y-61765500D01*
X136255315Y-61832539D01*
X136202511Y-61878294D01*
X136151000Y-61889500D01*
X135784298Y-61889500D01*
X135747432Y-61892401D01*
X135747426Y-61892402D01*
X135602267Y-61934576D01*
X135567672Y-61939500D01*
X134519746Y-61939500D01*
X134452707Y-61919815D01*
X134406952Y-61867011D01*
X134397008Y-61797853D01*
X134398129Y-61791308D01*
X134420500Y-61678844D01*
X134420500Y-61521155D01*
X134420499Y-61521153D01*
X134414644Y-61491718D01*
X134389737Y-61366503D01*
X134365696Y-61308463D01*
X134329397Y-61220827D01*
X134329390Y-61220814D01*
X134241789Y-61089711D01*
X134241786Y-61089707D01*
X134130292Y-60978213D01*
X134130288Y-60978210D01*
X133999185Y-60890609D01*
X133999172Y-60890602D01*
X133853501Y-60830264D01*
X133853489Y-60830261D01*
X133742286Y-60808141D01*
X133725530Y-60799376D01*
X133707050Y-60795356D01*
X133682008Y-60776610D01*
X133680375Y-60775756D01*
X133678795Y-60774205D01*
X133586818Y-60682227D01*
X133553334Y-60620903D01*
X133550500Y-60594546D01*
X133550500Y-60391519D01*
X133570185Y-60324480D01*
X133586814Y-60303842D01*
X133680472Y-60210185D01*
X133768478Y-60064606D01*
X133819086Y-59902196D01*
X133825500Y-59831616D01*
X133825500Y-59168384D01*
X133819086Y-59097804D01*
X133768478Y-58935394D01*
X133680472Y-58789815D01*
X133680470Y-58789813D01*
X133680469Y-58789811D01*
X133560188Y-58669530D01*
X133524429Y-58647913D01*
X133414606Y-58581522D01*
X133252196Y-58530914D01*
X133252194Y-58530913D01*
X133252192Y-58530913D01*
X133202778Y-58526423D01*
X133181616Y-58524500D01*
X132668384Y-58524500D01*
X132649145Y-58526248D01*
X132597807Y-58530913D01*
X132435393Y-58581522D01*
X132289811Y-58669530D01*
X132289810Y-58669531D01*
X132187327Y-58772015D01*
X132126004Y-58805500D01*
X132056312Y-58800516D01*
X132011965Y-58772015D01*
X131909877Y-58669927D01*
X131764395Y-58581980D01*
X131602105Y-58531409D01*
X131602106Y-58531409D01*
X131531572Y-58525000D01*
X131525000Y-58525000D01*
X131525000Y-59376000D01*
X131505315Y-59443039D01*
X131452511Y-59488794D01*
X131401000Y-59500000D01*
X131275000Y-59500000D01*
X131275000Y-59626000D01*
X131255315Y-59693039D01*
X131202511Y-59738794D01*
X131151000Y-59750000D01*
X130375001Y-59750000D01*
X130375001Y-59831582D01*
X130381408Y-59902102D01*
X130381409Y-59902107D01*
X130431981Y-60064396D01*
X130519927Y-60209877D01*
X130640121Y-60330071D01*
X130640125Y-60330074D01*
X130671040Y-60348763D01*
X130718228Y-60400290D01*
X130730067Y-60469150D01*
X130702799Y-60533479D01*
X130654344Y-60569441D01*
X130530823Y-60620604D01*
X130530814Y-60620609D01*
X130399711Y-60708210D01*
X130399707Y-60708213D01*
X130288213Y-60819707D01*
X130288210Y-60819711D01*
X130200609Y-60950814D01*
X130200602Y-60950827D01*
X130140264Y-61096498D01*
X130140261Y-61096510D01*
X130109500Y-61251153D01*
X130109500Y-61324087D01*
X130089815Y-61391126D01*
X130037011Y-61436881D01*
X130009692Y-61445704D01*
X129936508Y-61460261D01*
X129936498Y-61460264D01*
X129790827Y-61520602D01*
X129790814Y-61520609D01*
X129654646Y-61611595D01*
X129653864Y-61610425D01*
X129596060Y-61634957D01*
X129527196Y-61623147D01*
X129494058Y-61599468D01*
X127641819Y-59747229D01*
X127608334Y-59685906D01*
X127605500Y-59659548D01*
X127605500Y-59168427D01*
X130375000Y-59168427D01*
X130375000Y-59250000D01*
X131025000Y-59250000D01*
X131025000Y-58525000D01*
X131024999Y-58524999D01*
X131018436Y-58525000D01*
X131018417Y-58525001D01*
X130947897Y-58531408D01*
X130947892Y-58531409D01*
X130785603Y-58581981D01*
X130640122Y-58669927D01*
X130519927Y-58790122D01*
X130431980Y-58935604D01*
X130381409Y-59097893D01*
X130375000Y-59168427D01*
X127605500Y-59168427D01*
X127605500Y-58512350D01*
X127625185Y-58445311D01*
X127626398Y-58443459D01*
X127663090Y-58388545D01*
X127689394Y-58349179D01*
X127749737Y-58203497D01*
X127780500Y-58048842D01*
X127780500Y-57891158D01*
X127780500Y-57891155D01*
X127780499Y-57891153D01*
X127754262Y-57759252D01*
X127749737Y-57736503D01*
X127740685Y-57714650D01*
X127689397Y-57590827D01*
X127689390Y-57590814D01*
X127601789Y-57459711D01*
X127601786Y-57459707D01*
X127490292Y-57348213D01*
X127490288Y-57348210D01*
X127359185Y-57260609D01*
X127359172Y-57260602D01*
X127213501Y-57200264D01*
X127213489Y-57200261D01*
X127058845Y-57169500D01*
X127058842Y-57169500D01*
X126901158Y-57169500D01*
X126901155Y-57169500D01*
X126746510Y-57200261D01*
X126746498Y-57200264D01*
X126600827Y-57260602D01*
X126600814Y-57260609D01*
X126469711Y-57348210D01*
X126469707Y-57348213D01*
X126464680Y-57353241D01*
X126403357Y-57386726D01*
X126333665Y-57381742D01*
X126277732Y-57339870D01*
X126253315Y-57274406D01*
X126252999Y-57265560D01*
X126252999Y-57117129D01*
X126252998Y-57117123D01*
X126252997Y-57117116D01*
X126246591Y-57057517D01*
X126233840Y-57023332D01*
X126228857Y-56953642D01*
X126233840Y-56936669D01*
X126246591Y-56902483D01*
X126253000Y-56842873D01*
X126252999Y-55847128D01*
X126246591Y-55787517D01*
X126233840Y-55753332D01*
X126228857Y-55683642D01*
X126233840Y-55666669D01*
X126246591Y-55632483D01*
X126253000Y-55572873D01*
X126252999Y-54671950D01*
X126272683Y-54604912D01*
X126325487Y-54559157D01*
X126394646Y-54549213D01*
X126458202Y-54578238D01*
X126464680Y-54584270D01*
X126688181Y-54807771D01*
X126721666Y-54869094D01*
X126724500Y-54895452D01*
X126724500Y-55191613D01*
X126730913Y-55262192D01*
X126730913Y-55262194D01*
X126730914Y-55262196D01*
X126781522Y-55424606D01*
X126858628Y-55552155D01*
X126869530Y-55570188D01*
X126989811Y-55690469D01*
X126989813Y-55690470D01*
X126989815Y-55690472D01*
X127135394Y-55778478D01*
X127297804Y-55829086D01*
X127368384Y-55835500D01*
X127368387Y-55835500D01*
X127881613Y-55835500D01*
X127881616Y-55835500D01*
X127952196Y-55829086D01*
X128114606Y-55778478D01*
X128260185Y-55690472D01*
X128295376Y-55655281D01*
X128362319Y-55588339D01*
X128423642Y-55554854D01*
X128493334Y-55559838D01*
X128537681Y-55588339D01*
X128639811Y-55690469D01*
X128639813Y-55690470D01*
X128639815Y-55690472D01*
X128785394Y-55778478D01*
X128947804Y-55829086D01*
X129018384Y-55835500D01*
X129160548Y-55835500D01*
X129227587Y-55855185D01*
X129273342Y-55907989D01*
X129283286Y-55977147D01*
X129254261Y-56040703D01*
X129248247Y-56047161D01*
X128986614Y-56308795D01*
X128931203Y-56364206D01*
X128869880Y-56397690D01*
X128867714Y-56398141D01*
X128756508Y-56420261D01*
X128756498Y-56420264D01*
X128610827Y-56480602D01*
X128610814Y-56480609D01*
X128479711Y-56568210D01*
X128479707Y-56568213D01*
X128368213Y-56679707D01*
X128368210Y-56679711D01*
X128280609Y-56810814D01*
X128280602Y-56810827D01*
X128220264Y-56956498D01*
X128220261Y-56956510D01*
X128189500Y-57111153D01*
X128189500Y-57268846D01*
X128220261Y-57423489D01*
X128220264Y-57423501D01*
X128280602Y-57569172D01*
X128280609Y-57569185D01*
X128368210Y-57700288D01*
X128368213Y-57700292D01*
X128479707Y-57811786D01*
X128479711Y-57811789D01*
X128610814Y-57899390D01*
X128610827Y-57899397D01*
X128756498Y-57959735D01*
X128756503Y-57959737D01*
X128911153Y-57990499D01*
X128911156Y-57990500D01*
X128911158Y-57990500D01*
X129068844Y-57990500D01*
X129068845Y-57990499D01*
X129223497Y-57959737D01*
X129369179Y-57899394D01*
X129500289Y-57811789D01*
X129611789Y-57700289D01*
X129699394Y-57569179D01*
X129759737Y-57423497D01*
X129781858Y-57312282D01*
X129814240Y-57250375D01*
X129815735Y-57248853D01*
X131219729Y-55844860D01*
X131219733Y-55844858D01*
X131306858Y-55757733D01*
X131345100Y-55700500D01*
X131375312Y-55655286D01*
X131414425Y-55560858D01*
X131422463Y-55541452D01*
X131440414Y-55451204D01*
X131446500Y-55420607D01*
X131446500Y-55297393D01*
X131446500Y-53479499D01*
X131449050Y-53470813D01*
X131447762Y-53461852D01*
X131458740Y-53437811D01*
X131466185Y-53412460D01*
X131473025Y-53406532D01*
X131476787Y-53398296D01*
X131499021Y-53384006D01*
X131518989Y-53366705D01*
X131529503Y-53364417D01*
X131535565Y-53360522D01*
X131570500Y-53355499D01*
X131683000Y-53355499D01*
X131750039Y-53375184D01*
G37*
%TD.AperFunction*%
%TA.AperFunction,Conductor*%
G36*
X138932783Y-55039636D02*
G01*
X138952437Y-55038830D01*
X138967022Y-55047084D01*
X138981836Y-55050307D01*
X139010090Y-55071458D01*
X139071580Y-55132948D01*
X139071584Y-55132951D01*
X139194498Y-55215080D01*
X139194511Y-55215087D01*
X139331082Y-55271656D01*
X139331087Y-55271658D01*
X139331091Y-55271658D01*
X139331092Y-55271659D01*
X139476079Y-55300500D01*
X139476082Y-55300500D01*
X139557770Y-55300500D01*
X139624809Y-55320185D01*
X139645451Y-55336819D01*
X141594181Y-57285548D01*
X141627666Y-57346871D01*
X141630500Y-57373229D01*
X141630500Y-59646000D01*
X141610815Y-59713039D01*
X141558011Y-59758794D01*
X141506500Y-59770000D01*
X141280000Y-59770000D01*
X141280000Y-60470000D01*
X140780000Y-60470000D01*
X140780000Y-59770000D01*
X140531504Y-59770000D01*
X140338318Y-59808427D01*
X140338306Y-59808430D01*
X140156328Y-59883807D01*
X140156315Y-59883814D01*
X139992537Y-59993248D01*
X139992533Y-59993251D01*
X139848941Y-60136844D01*
X139847970Y-60135873D01*
X139795976Y-60171285D01*
X139726131Y-60173149D01*
X139670198Y-60140963D01*
X139009031Y-59479796D01*
X138975546Y-59418473D01*
X138980530Y-59348781D01*
X139022402Y-59292848D01*
X139087866Y-59268431D01*
X139120902Y-59270497D01*
X139140200Y-59274336D01*
X139221456Y-59290500D01*
X139221459Y-59290500D01*
X139418543Y-59290500D01*
X139570561Y-59260261D01*
X139611835Y-59252051D01*
X139793914Y-59176632D01*
X139957782Y-59067139D01*
X140097139Y-58927782D01*
X140206632Y-58763914D01*
X140282051Y-58581835D01*
X140302537Y-58478846D01*
X140320500Y-58388543D01*
X140320500Y-58191456D01*
X140282052Y-57998170D01*
X140282051Y-57998169D01*
X140282051Y-57998165D01*
X140269716Y-57968386D01*
X140206635Y-57816092D01*
X140206631Y-57816085D01*
X140127409Y-57697521D01*
X140126459Y-57695463D01*
X140125557Y-57694666D01*
X140122205Y-57686247D01*
X140111206Y-57662421D01*
X140109859Y-57657667D01*
X140104609Y-57631266D01*
X140089737Y-57556502D01*
X140065557Y-57498127D01*
X140061860Y-57489202D01*
X140029397Y-57410827D01*
X140029390Y-57410814D01*
X139941790Y-57279712D01*
X139891578Y-57229500D01*
X139830289Y-57168211D01*
X139341785Y-56679707D01*
X138840292Y-56178213D01*
X138840288Y-56178210D01*
X138709185Y-56090609D01*
X138709172Y-56090602D01*
X138563501Y-56030264D01*
X138563489Y-56030261D01*
X138408845Y-55999500D01*
X138408842Y-55999500D01*
X138256408Y-55999500D01*
X138189369Y-55979815D01*
X138143614Y-55927011D01*
X138133670Y-55857853D01*
X138162695Y-55794297D01*
X138221473Y-55756523D01*
X138226168Y-55755332D01*
X138388481Y-55701547D01*
X138388492Y-55701542D01*
X138532728Y-55612575D01*
X138532732Y-55612572D01*
X138652572Y-55492732D01*
X138652575Y-55492728D01*
X138741542Y-55348492D01*
X138741547Y-55348481D01*
X138794856Y-55187606D01*
X138799051Y-55146539D01*
X138805087Y-55131744D01*
X138806227Y-55115805D01*
X138818015Y-55100057D01*
X138825446Y-55081846D01*
X138838523Y-55072662D01*
X138848099Y-55059872D01*
X138866527Y-55052998D01*
X138882626Y-55041694D01*
X138898591Y-55041039D01*
X138913563Y-55035455D01*
X138932783Y-55039636D01*
G37*
%TD.AperFunction*%
%TA.AperFunction,Conductor*%
G36*
X134215014Y-50439501D02*
G01*
X134215174Y-50438905D01*
X134223024Y-50441008D01*
X134223026Y-50441008D01*
X134223028Y-50441009D01*
X134333099Y-50455500D01*
X134531900Y-50455499D01*
X134573330Y-50450045D01*
X134642366Y-50460811D01*
X134694621Y-50507191D01*
X134713506Y-50574460D01*
X134712454Y-50589169D01*
X134707000Y-50630597D01*
X134707000Y-50829403D01*
X134721489Y-50939468D01*
X134723594Y-50947322D01*
X134720314Y-50948200D01*
X134726081Y-51002073D01*
X134723017Y-51012522D01*
X134723595Y-51012677D01*
X134721490Y-51020529D01*
X134707000Y-51130598D01*
X134707000Y-51329403D01*
X134721489Y-51439468D01*
X134723594Y-51447322D01*
X134720314Y-51448200D01*
X134726081Y-51502073D01*
X134723017Y-51512522D01*
X134723595Y-51512677D01*
X134721490Y-51520529D01*
X134707000Y-51630598D01*
X134707000Y-51829403D01*
X134721489Y-51939468D01*
X134723594Y-51947322D01*
X134720314Y-51948200D01*
X134726081Y-52002073D01*
X134723017Y-52012522D01*
X134723595Y-52012677D01*
X134721490Y-52020529D01*
X134707000Y-52130598D01*
X134707000Y-52329396D01*
X134712455Y-52370833D01*
X134701687Y-52439868D01*
X134655306Y-52492123D01*
X134588036Y-52511006D01*
X134573330Y-52509954D01*
X134531901Y-52504500D01*
X134333096Y-52504500D01*
X134223031Y-52518989D01*
X134215178Y-52521094D01*
X134214302Y-52517824D01*
X134160353Y-52523567D01*
X134149977Y-52520518D01*
X134149823Y-52521095D01*
X134141970Y-52518990D01*
X134031901Y-52504500D01*
X133833096Y-52504500D01*
X133723031Y-52518989D01*
X133715178Y-52521094D01*
X133714302Y-52517824D01*
X133660353Y-52523567D01*
X133649977Y-52520518D01*
X133649823Y-52521095D01*
X133641970Y-52518990D01*
X133531901Y-52504500D01*
X133333096Y-52504500D01*
X133223029Y-52518989D01*
X133215181Y-52521093D01*
X133214356Y-52518015D01*
X133159729Y-52523842D01*
X133149855Y-52520989D01*
X133149697Y-52521582D01*
X133141846Y-52519478D01*
X133057500Y-52508373D01*
X133057500Y-52536494D01*
X133056422Y-52540164D01*
X133057279Y-52543893D01*
X133046655Y-52573425D01*
X133037815Y-52603533D01*
X133034548Y-52607082D01*
X133033629Y-52609639D01*
X133008966Y-52634885D01*
X133007966Y-52635652D01*
X132942792Y-52660833D01*
X132874350Y-52646781D01*
X132857034Y-52635652D01*
X132856034Y-52634885D01*
X132840736Y-52613944D01*
X132824370Y-52597956D01*
X132822218Y-52588595D01*
X132814819Y-52578466D01*
X132807500Y-52536494D01*
X132807500Y-52508373D01*
X132807499Y-52508373D01*
X132791601Y-52510466D01*
X132722566Y-52499700D01*
X132670311Y-52453320D01*
X132651426Y-52386051D01*
X132652477Y-52371349D01*
X132658000Y-52329401D01*
X132657999Y-52130600D01*
X132654247Y-52102102D01*
X132645694Y-52037127D01*
X132643509Y-52020528D01*
X132643508Y-52020525D01*
X132641405Y-52012674D01*
X132644707Y-52011789D01*
X132638892Y-51958075D01*
X132642001Y-51947485D01*
X132641405Y-51947326D01*
X132643508Y-51939475D01*
X132643508Y-51939474D01*
X132643509Y-51939472D01*
X132658000Y-51829401D01*
X132657999Y-51630600D01*
X132643509Y-51520528D01*
X132643508Y-51520525D01*
X132641405Y-51512674D01*
X132644707Y-51511789D01*
X132638892Y-51458075D01*
X132642001Y-51447485D01*
X132641405Y-51447326D01*
X132643508Y-51439475D01*
X132643508Y-51439474D01*
X132643509Y-51439472D01*
X132658000Y-51329401D01*
X132657999Y-51130600D01*
X132643509Y-51020528D01*
X132643508Y-51020525D01*
X132641405Y-51012674D01*
X132644707Y-51011789D01*
X132638892Y-50958075D01*
X132642001Y-50947485D01*
X132641405Y-50947326D01*
X132643508Y-50939475D01*
X132643508Y-50939474D01*
X132643509Y-50939472D01*
X132658000Y-50829401D01*
X132657999Y-50630600D01*
X132652545Y-50589168D01*
X132663311Y-50520133D01*
X132709692Y-50467878D01*
X132776961Y-50448993D01*
X132791655Y-50450043D01*
X132833099Y-50455500D01*
X133031900Y-50455499D01*
X133031901Y-50455499D01*
X133048587Y-50453302D01*
X133141972Y-50441009D01*
X133141975Y-50441007D01*
X133149826Y-50438905D01*
X133150710Y-50442207D01*
X133204425Y-50436392D01*
X133215014Y-50439501D01*
X133215174Y-50438905D01*
X133223024Y-50441008D01*
X133223026Y-50441008D01*
X133223028Y-50441009D01*
X133333099Y-50455500D01*
X133531900Y-50455499D01*
X133531901Y-50455499D01*
X133548587Y-50453302D01*
X133641972Y-50441009D01*
X133641975Y-50441007D01*
X133649826Y-50438905D01*
X133650710Y-50442207D01*
X133704425Y-50436392D01*
X133715014Y-50439501D01*
X133715174Y-50438905D01*
X133723024Y-50441008D01*
X133723026Y-50441008D01*
X133723028Y-50441009D01*
X133833099Y-50455500D01*
X134031900Y-50455499D01*
X134031901Y-50455499D01*
X134048587Y-50453302D01*
X134141972Y-50441009D01*
X134141975Y-50441007D01*
X134149826Y-50438905D01*
X134150710Y-50442207D01*
X134204425Y-50436392D01*
X134215014Y-50439501D01*
G37*
%TD.AperFunction*%
%TD*%
M02*
